<svg width="243" height="230" viewBox="0 0 243 230" fill="none" xmlns="http://www.w3.org/2000/svg">
<path d="M243 0H0V230H243V0Z" fill="white"/>
<path d="M90.9115 120.721L109.332 88.0627L100.438 88L76.8549 106.914L60.8195 118.451C60.8195 118.451 54.8998 124.603 32 123.363C32 123.363 38.9841 124.383 45.2255 125.841C48.4759 126.634 51.6211 127.808 54.5956 129.34C55.8569 130.081 57.1853 130.902 58.2629 131.649C60.2869 133.039 64.3319 137.083 66.9261 138.475C70.2585 140.272 75.9944 141.93 84.7855 140.169C84.7855 140.169 73.9973 140.42 69.3835 136.452C68.5355 135.714 65.7362 132.677 70.0734 130.252C71.6415 129.26 74.0318 128.659 78.3998 127.938C78.3998 127.938 90.7002 126.677 94.0175 127.325C92.8518 126.836 91.7971 126.116 90.9172 125.208C89.2645 123.553 90.9172 120.721 90.9172 120.721" fill="#D9000D"/>
<path d="M87.5133 107.295C88.5588 107.165 92.8352 106.428 93.2893 106.336C95.4388 105.911 97.7733 105.408 99.7886 104.981L100.026 104.562C97.0464 104.784 93.4731 105.057 90.8507 105.285C89.1026 105.434 87.7823 105.557 87.3433 105.631C86.7788 105.72 86.2187 105.819 85.6674 105.925C83.7786 106.293 81.9119 106.766 80.0763 107.343C82.5523 107.528 85.0392 107.512 87.5126 107.295" fill="#EF7000"/>
<path d="M87.2749 110.443C88.3192 110.586 92.6477 110.978 93.0993 111.008C94.1367 111.077 95.2136 111.144 96.2799 111.201L96.719 110.41C94.7068 110.034 92.6709 109.662 91.02 109.366C89.2896 109.052 87.9799 108.832 87.5434 108.792C86.9714 108.73 86.4087 108.683 85.8499 108.644C83.9296 108.506 82.0029 108.478 80.0795 108.561C82.4237 109.383 84.8309 110.013 87.2774 110.443" fill="#EF7000"/>
<path d="M86.2275 113.416C87.199 113.829 91.2747 115.323 91.7112 115.472C92.3021 115.672 92.9161 115.878 93.5302 116.082L94.0282 115.194C92.6307 114.527 91.2822 113.88 90.1269 113.342C88.5381 112.594 87.3295 112.046 86.913 111.887C86.3755 111.683 85.8467 111.494 85.3174 111.309C83.4975 110.683 81.6449 110.157 79.7677 109.732C81.8146 111.138 83.9754 112.37 86.2275 113.416" fill="#EF7000"/>
<path d="M84.4474 116.013C85.2784 116.668 88.8342 119.166 89.2142 119.422C89.7925 119.809 90.3809 120.205 90.9786 120.599L91.4497 119.764L91.4823 119.715C90.3232 118.721 89.1954 117.763 88.2295 116.955C86.8917 115.826 85.8699 114.975 85.5086 114.723C85.0451 114.385 84.5735 114.061 84.1143 113.749C82.5193 112.671 80.865 111.684 79.1593 110.792C80.7767 112.674 82.5453 114.421 84.4474 116.014" fill="#EF7000"/>
<path d="M82.0539 118.071C82.6912 118.914 85.4748 122.25 85.7733 122.592C87.0905 124.102 88.5519 125.719 89.8446 127.157C90.0384 127.147 90.2209 127.147 90.4091 127.143C88.7877 124.764 86.8891 122 85.4679 119.957C84.4593 118.515 83.6941 117.436 83.4087 117.094C83.0499 116.643 82.6849 116.216 82.3167 115.794C81.0547 114.341 79.7126 112.958 78.2969 111.654C79.3715 113.892 80.6277 116.038 82.0527 118.07" fill="#EF7000"/>
<path d="M79.2076 119.431C79.6053 120.416 81.4342 124.355 81.6368 124.762C82.0759 125.666 82.5501 126.603 83.0167 127.527C83.3146 127.503 83.6151 127.482 83.9212 127.46C83.2563 125.57 82.577 123.676 82.0201 122.138C81.4223 120.489 80.9638 119.241 80.7819 118.84C80.5499 118.313 80.3046 117.804 80.0575 117.304C79.219 115.569 78.2793 113.885 77.2432 112.261C77.7038 114.7 78.3608 117.097 79.2076 119.431" fill="#EF7000"/>
<path d="M76.1079 120.018C76.2434 121.067 76.9785 125.341 77.0751 125.789C77.2168 126.541 77.3749 127.308 77.5367 128.079L77.617 128.068H77.6321L77.6672 128.057H77.6778L77.7763 128.042L77.7882 128.038H77.8146L77.8271 128.033L77.8397 128.029H77.8541L77.8691 128.025L77.8842 128.019H77.9011L77.9181 128.015L77.9294 128.01H77.9438L77.9852 128H78.0059H78.0266L78.041 127.996L78.0661 127.991H78.083L78.1457 127.978H78.1658L78.1765 127.975H78.1934L78.2837 127.953H78.2963L78.3954 127.935L78.4926 127.926C78.3628 126.287 78.2348 124.699 78.1163 123.355C77.972 121.607 77.8484 120.282 77.7782 119.847C77.6854 119.283 77.5737 118.722 77.4778 118.176C77.1148 116.285 76.643 114.415 76.0646 112.578C75.8725 115.054 75.8855 117.542 76.1035 120.016" fill="#EF7000"/>
<path d="M72.9662 119.78C72.8163 120.827 72.4286 125.149 72.4017 125.603C72.317 126.805 72.2455 128.06 72.1803 129.294C72.4468 129.208 72.7341 129.118 73.032 129.038C73.4015 127.083 73.7621 125.124 74.0462 123.518C74.3599 121.795 74.5775 120.487 74.6195 120.045C74.6753 119.473 74.7199 118.909 74.7625 118.351C74.9017 116.431 74.9304 114.504 74.8485 112.581C74.0256 114.923 73.3963 117.329 72.9668 119.775" fill="#EF7000"/>
<path d="M69.9925 118.73C69.5811 119.705 68.0845 123.78 67.9409 124.213C66.8063 127.537 65.6202 131.359 64.8299 133.586C66.2098 130.721 68.5449 125.88 70.0691 122.63C70.8161 121.039 71.3668 119.833 71.5236 119.422C71.7262 118.883 71.92 118.349 72.1 117.825C72.7345 116.006 73.2602 114.15 73.6743 112.268C72.274 114.318 71.0427 116.479 69.9925 118.729" fill="#EF7000"/>
<path d="M67.3933 116.952C66.7372 117.785 64.2422 121.336 63.9794 121.711C62.0293 124.629 59.8937 128.02 58.5539 129.961C60.63 127.553 64.1399 123.477 66.4494 120.736C67.5834 119.397 68.4264 118.371 68.6854 118.011C69.0191 117.545 69.3408 117.077 69.6613 116.618C70.7376 115.022 71.7242 113.368 72.6168 111.663C70.7344 113.28 68.9874 115.048 67.3933 116.95" fill="#EF7000"/>
<path d="M59.5838 119.364C57.3007 121.394 54.9568 123.543 53.432 124.842C56.0664 123.049 60.5008 120.021 63.4506 117.975C64.8932 116.968 65.9689 116.198 66.3101 115.921C66.7598 115.555 67.1882 115.193 67.6166 114.825C69.0687 113.561 70.4506 112.219 71.7562 110.804C71.5054 110.902 71.2193 111.034 70.9045 111.193L60.8194 118.451H60.815V118.456L60.81 118.464H60.8019V118.468L60.7968 118.475H60.7912L60.7862 118.48L60.7774 118.484L60.773 118.489L60.7674 118.498L60.7592 118.502L60.7485 118.511L60.7435 118.519L60.7335 118.527L60.709 118.55L60.7028 118.556L60.6645 118.591L60.6601 118.596C60.3206 118.875 59.9624 119.129 59.5882 119.359" fill="#EF7000"/>
<path d="M85.4509 101.187C86.2908 100.537 89.5812 97.7012 89.9111 97.3989C92.5153 95.0494 95.4118 92.2777 97.1825 90.7109L96.0823 91.4874L93.9567 93.1959L79.2609 104.98C81.4187 103.877 83.4882 102.608 85.4509 101.187" fill="#EF7000"/>
<path d="M86.9306 104.19C87.9072 103.797 91.8467 101.969 92.2538 101.771C95.4074 100.223 98.9525 98.3573 101.083 97.3393C98.0806 98.3886 93.0083 100.167 89.637 101.386C87.9856 101.981 86.743 102.449 86.341 102.626C85.8148 102.862 85.3048 103.108 84.7993 103.349C83.0695 104.193 81.3875 105.132 79.7608 106.161C82.2013 105.704 84.5995 105.045 86.9306 104.19" fill="#EF7000"/>
<path d="M106.886 124.424L106.393 125.314H111.606C111.606 125.314 112.578 125.355 113.39 123.699L115.128 120.548H116.413L117.063 119.303H101.923L101.139 120.582H102.479L100.114 125.24C100.114 125.24 99.2912 127.088 101.494 127.088L107.272 127.083C107.272 127.083 107.851 126.978 107.573 127.81L107.385 128.268H112.236L112.767 126.984C112.767 126.984 113.347 126.1 111.604 126.1H105.629C105.629 126.1 104.896 126.038 105.27 125.214L107.7 120.548H109.842L107.936 123.968C107.936 123.968 107.801 124.46 106.888 124.427" fill="#D9000D"/>
<path d="M126.952 123.472C127.641 123.347 128.269 122.425 128.269 122.425L129.122 120.524C129.556 119.406 127.843 119.269 127.843 119.269H120.387C119.978 119.244 119.567 119.304 119.183 119.447C118.798 119.589 118.448 119.811 118.154 120.098L117.233 121.604H122.096L122.559 120.878C122.559 120.878 122.747 120.552 123.036 120.586H123.955C123.955 120.586 124.434 120.603 124.014 121.264L123.563 122.04C123.448 122.221 123.288 122.369 123.1 122.472C122.911 122.574 122.7 122.628 122.485 122.627L120.492 122.639L119.889 123.773H121.143C122.804 123.669 122.119 124.639 122.119 124.639L121.676 125.509C121.389 126.252 120.41 126.111 120.41 126.111C119.386 126.111 119.754 125.609 119.754 125.609L120.126 124.945L115.288 124.951L114.667 126.136C114.592 126.246 114.549 126.375 114.545 126.508C114.541 126.641 114.575 126.773 114.644 126.887C114.714 127.001 114.814 127.092 114.934 127.15C115.054 127.208 115.188 127.23 115.32 127.214H124.327C124.646 127.236 124.966 127.179 125.258 127.048C125.55 126.917 125.805 126.715 126.001 126.461L126.948 124.822C127.48 123.937 126.948 123.476 126.948 123.476L126.952 123.472Z" fill="#D9000D"/>
<path d="M138.3 119.315H131.076L130.449 120.496H131.472L130.374 122.475C130.223 122.592 130.035 122.65 129.845 122.638H128.585L127.986 123.772H128.9C129.522 123.772 129.559 123.874 129.48 124.073L127.661 127.413H132.561L136.278 120.496H137.568L138.3 119.315Z" fill="#D9000D"/>
<path d="M148.284 119.315H141.065L140.434 120.496H141.453L140.329 122.183C140.171 122.339 139.982 122.459 139.775 122.538C139.568 122.616 139.347 122.65 139.126 122.638H137.521L136.927 123.772H137.429C138.067 123.737 137.952 123.964 137.754 124.302L137.048 125.579C136.84 125.912 136.586 127.192 137.792 127.264L143.5 127.258L143.996 126.182C143.473 126.171 142.646 126.171 142.168 126.171C141.541 126.171 141.849 125.658 141.849 125.658L143.016 123.815C143.368 123.833 143.719 123.753 144.029 123.585C144.339 123.416 144.596 123.165 144.772 122.86L146.262 120.496H147.544L148.284 119.315Z" fill="#D9000D"/>
<path d="M164.849 117.371H160.419L159.642 118.572H164.072L164.849 117.371Z" fill="#D9000D"/>
<path d="M198.091 121.299L196.705 123.915C196.543 124.132 196.279 124.299 195.343 124.299H190.48C190.48 124.299 189.643 124.107 189.97 123.358C189.97 123.358 190.027 122.939 190.668 122.939L194.874 122.935C195.132 122.912 195.38 122.82 195.59 122.668C195.801 122.517 195.966 122.312 196.07 122.074L196.903 120.524H197.955C197.955 120.524 198.547 120.553 198.091 121.3V121.299ZM189.48 119.306L188.853 120.523H191.151C191.727 120.523 191.887 120.837 191.661 121.209L191.496 121.539C191.374 121.658 191.228 121.75 191.067 121.807C190.906 121.864 190.734 121.885 190.564 121.868L186.323 121.85C186.1 121.835 185.877 121.891 185.687 122.011C185.498 122.131 185.352 122.308 185.27 122.517L184.678 123.709C184.678 123.709 183.902 125.359 186.519 125.498H194.815C194.815 125.498 195.648 125.479 195.621 125.932L194.833 127.417H199.562L203.123 120.933C203.216 120.807 203.337 120.704 203.477 120.633C203.617 120.562 203.772 120.525 203.929 120.524H205.309C205.309 120.524 205.897 120.553 205.366 121.44L202.184 127.417H206.915L210.478 120.918C210.569 120.789 210.691 120.685 210.833 120.616C210.976 120.547 211.133 120.516 211.29 120.524H211.964L212.698 119.308L189.48 119.306Z" fill="#D9000D"/>
<path d="M163.894 120.615L164.654 119.286H152.829L152.033 120.654H157.694C157.694 120.654 158.413 120.587 158.19 120.949L157.98 121.28H152.395C152.202 121.285 152.013 121.333 151.841 121.42C151.669 121.507 151.518 121.63 151.4 121.782L150.446 123.449C150.242 123.881 150.383 124.396 151.969 124.396H155.093C155.093 124.396 156.144 124.302 155.783 125.055L155.319 125.875C155.319 125.875 155.09 126.369 154.658 126.335H153.818C153.818 126.335 153.293 126.43 153.558 125.844L153.926 125.122H149.525L148.736 126.502C148.736 126.502 148.137 127.138 148.872 127.347L148.621 127.815C148.621 127.815 148.316 128.474 148.842 128.515L151.602 128.51C151.778 128.462 151.941 128.375 152.078 128.254C152.215 128.133 152.322 127.983 152.392 127.814L152.59 127.416H158.486C158.833 127.426 159.173 127.323 159.456 127.121C159.739 126.92 159.949 126.632 160.054 126.301L160.914 124.723C160.914 124.723 161.73 123.314 159.241 123.151H155.986C155.986 123.151 155.196 123.281 155.556 122.687C155.665 122.56 155.802 122.46 155.957 122.398C156.112 122.335 156.28 122.311 156.446 122.327H161.371V122.32C161.554 122.329 161.736 122.291 161.9 122.208C162.063 122.126 162.202 122.003 162.304 121.851L163.013 120.616L163.894 120.615Z" fill="#D9000D"/>
<path d="M180.168 118.739L179.827 119.289L171.639 119.261C171.804 119.029 172.022 118.84 172.274 118.708C172.526 118.576 172.806 118.506 173.09 118.502H179.134C180.219 118.502 180.168 118.738 180.168 118.738V118.739ZM186.242 119.286L184.661 119.306L185.323 118.221C185.323 118.221 185.408 117.363 183.504 117.4H170.001C169.391 117.448 168.802 117.647 168.286 117.977C167.77 118.307 167.344 118.759 167.044 119.293L165.858 119.289L165.141 120.585H166.367L162.469 127.415H167.2L170.983 120.656H178.606C178.606 120.656 179.328 120.587 179.097 120.95L178.889 121.281H173.317C172.973 121.347 172.65 121.495 172.376 121.712C172.102 121.929 171.884 122.209 171.741 122.528L171.451 123.049C171.451 123.049 170.856 124.299 172.893 124.393H176.021C176.021 124.393 177.071 124.299 176.711 125.052L176.25 125.872C176.25 125.872 176.023 126.366 175.59 126.332H175.066C175.066 126.332 174.535 126.427 174.801 125.841L175.165 125.119H170.549L169.76 126.499C169.76 126.499 169.504 127.383 170.79 127.414H179.393C179.742 127.425 180.084 127.322 180.369 127.12C180.654 126.919 180.865 126.63 180.971 126.298L181.827 124.721C181.827 124.721 182.642 123.312 180.15 123.149H176.896C176.896 123.149 176.109 123.279 176.477 122.685C176.583 122.558 176.718 122.459 176.871 122.396C177.024 122.334 177.19 122.309 177.355 122.325H182.274L182.28 122.318C182.471 122.322 182.659 122.278 182.827 122.188C182.995 122.098 183.137 121.967 183.239 121.806L183.923 120.614H185.433L186.242 119.286Z" fill="#D9000D"/>
<path d="M197.968 138.194H196.163L199.185 134.905L197.968 138.194ZM194.63 133.451L187.731 141.346H193.25L194.317 140.18H197.218L196.79 141.364H202.664L204.994 133.451H194.63Z" fill="#D9000D"/>
<path d="M184.393 133.451L179.846 141.346H186.327L190.78 133.451H184.393Z" fill="#D9000D"/>
<path d="M142.005 133.46L137.483 141.345H143.967L148.378 133.451L142.005 133.46Z" fill="#D9000D"/>
<path d="M159.573 133.451L157.912 136.487L156.259 133.451H150.419L146.124 141.354H151.464L153.337 138.119L155.218 141.354H160.612L165.142 133.451H159.573Z" fill="#D9000D"/>
<path d="M173.868 136.662L173.237 138.105C172.63 139.684 171.659 139.599 171.659 139.599L170.699 139.594L172.538 135.831L173.595 135.856C174.216 136.003 173.868 136.665 173.868 136.665L173.868 136.662ZM179.28 133.462L167.396 133.451L162.915 141.346H175.954C175.954 141.346 177.972 141.518 179.028 139.158L181.125 135.215C181.125 135.215 182.528 133.458 179.284 133.458" fill="#D9000D"/>
<path d="M101.867 138.193H100.068L103.091 134.904L101.867 138.193ZM98.4582 133.442L91.6698 141.349H97.1981L98.2305 140.177H101.124L100.702 141.349H106.55L108.926 133.442H98.4582Z" fill="#D9000D"/>
<path d="M112.183 133.471L107.72 141.345H114.199L118.633 133.471H112.183Z" fill="#D9000D"/>
<path d="M127.333 136.547L126.973 137.112C126.973 137.112 126.648 137.671 124.904 137.433L125.698 135.828H127.009C127.089 135.835 127.166 135.863 127.231 135.909C127.297 135.956 127.349 136.019 127.382 136.092C127.416 136.165 127.429 136.246 127.42 136.326C127.412 136.406 127.382 136.483 127.335 136.547H127.333ZM133.069 133.464H120.805L116.333 141.35H122.776L124.248 138.574L126.061 141.35H132.501L130.551 139.123C130.956 139.132 131.356 139.034 131.71 138.837C132.064 138.641 132.36 138.353 132.566 138.004L133.967 135.41C134.72 133.702 133.067 133.466 133.067 133.466" fill="#D9000D"/>
</svg>
