<svg width="243" height="230" viewBox="0 0 243 230" fill="none" xmlns="http://www.w3.org/2000/svg">
<path d="M243 0H0V230H243V0Z" fill="white"/>
<g clip-path="url(#clip0_55_83)">
<path d="M50.55 105.81C49.0587 104.743 47.2521 104.207 45.42 104.29C42.42 104.29 39.19 105.44 35.74 107.71L35.65 107.78L35.3 108L35.03 108.18C34.334 108.658 33.6662 109.175 33.03 109.73C31.57 111.15 29.91 113.5 30.03 115.51C30.0376 115.905 30.1309 116.294 30.3036 116.65C30.4762 117.006 30.7241 117.32 31.03 117.57C31.6644 118.042 32.4398 118.285 33.23 118.26C35.0214 118.104 36.7429 117.491 38.23 116.48L38.48 116.32L39.17 115.86L39.4 115.7C41.2482 114.336 43.2649 113.217 45.4 112.37C45.8857 112.184 46.3999 112.082 46.92 112.07C47.1391 112.071 47.3573 112.098 47.57 112.15C47.8863 112.207 48.1841 112.34 48.4382 112.536C48.6923 112.733 48.8953 112.988 49.03 113.28C49.2728 113.958 49.3707 114.68 49.3173 115.398C49.2639 116.116 49.0604 116.815 48.72 117.45C47.562 119.772 45.9182 121.819 43.9 123.45C42.9256 124.308 41.8669 125.065 40.74 125.71H40.65C40.1828 125.988 39.6947 126.228 39.19 126.43H39.12C38.9832 126.489 38.8429 126.539 38.7 126.58C36.5 127.18 37.84 125.23 37.84 125.23C38.3433 124.695 38.8812 124.194 39.45 123.73C39.75 123.46 40.06 123.17 40.37 122.85L40.44 122.78C40.6984 122.582 40.9108 122.33 41.0627 122.041C41.2146 121.753 41.3024 121.435 41.32 121.11C41.2391 120.64 40.9931 120.215 40.6264 119.911C40.2598 119.606 39.7965 119.443 39.32 119.45H39.22C38.3462 119.52 37.5184 119.871 36.86 120.45C36.2413 120.962 35.705 121.565 35.27 122.24C34.65 123.17 33.45 125.55 34.65 127.44C34.9084 127.826 35.2653 128.136 35.6837 128.339C36.1021 128.541 36.5668 128.628 37.03 128.59C37.9668 128.549 38.8899 128.35 39.76 128C41.1254 127.477 42.4298 126.806 43.65 126L43.97 125.8C45.2931 124.969 46.5472 124.032 47.72 123C50.2094 120.995 52.0786 118.325 53.11 115.3C53.7494 113.493 53.8398 111.538 53.37 109.68C52.8969 108.107 51.9023 106.742 50.55 105.81V105.81Z" fill="#E20714"/>
<path d="M138.55 125.49C136.49 125.33 136.07 124.43 136.07 122.92V103.42L131.07 104.26V122.6C131.07 126.94 133.43 128.81 137.38 128.81C138.018 128.793 138.653 128.726 139.28 128.61V125.5C139.037 125.51 138.793 125.506 138.55 125.49V125.49Z" fill="#E20714"/>
<path d="M120.37 112.37C122.57 112.37 122.89 114.76 122.89 116.24H117.54C117.65 114.33 118.41 112.37 120.37 112.37ZM121.44 125.48C120.912 125.513 120.382 125.433 119.887 125.245C119.392 125.057 118.943 124.765 118.57 124.39C117.68 123.39 117.28 121.44 117.39 119.34H128.06V118.85C127.97 111.85 125.59 108.68 120.37 108.68C114.55 108.68 112.28 114.04 112.24 119.07C112.181 120.604 112.456 122.132 113.045 123.549C113.633 124.966 114.522 126.239 115.65 127.28C117.158 128.446 119.024 129.054 120.93 129C122.123 129.003 123.309 128.827 124.45 128.48C125.771 128.064 127.024 127.458 128.17 126.68L126.77 123.8C125.2 124.878 123.344 125.463 121.44 125.48V125.48Z" fill="#E20714"/>
<path d="M80.06 128.59H85.01V108.88L80.06 109.69V128.59Z" fill="#E20714"/>
<path d="M107.23 103.44L102.16 104.26V122.69C102.16 126.82 104.57 128.77 108.61 128.77C109.244 128.764 109.876 128.703 110.5 128.59V125.52C110.44 125.52 110.06 125.52 109.78 125.52C107.65 125.45 107.23 124.27 107.23 122.92V112.53H110.5V108.89H107.23V103.44Z" fill="#E20714"/>
<path d="M71.32 124.87C70.5409 125.323 69.6506 125.548 68.75 125.52C66.75 125.52 65.86 123.99 65.9 122.2C65.8947 121.761 65.9826 121.325 66.1578 120.922C66.3331 120.519 66.5917 120.158 66.9168 119.862C67.2418 119.566 67.6258 119.343 68.0435 119.206C68.4612 119.07 68.9031 119.023 69.34 119.07H71.34L71.32 124.87ZM69.32 108.53C66.9898 108.579 64.7043 109.179 62.65 110.28L62.1 110.57L63.42 113.57L64.17 113.21C65.6278 112.498 67.2277 112.126 68.85 112.12C70.64 112.19 71.38 113.02 71.38 114.73V115.73H68.39C63.67 115.73 60.74 118.23 60.66 122.11C60.6735 123.051 60.8767 123.98 61.2574 124.84C61.638 125.701 62.1883 126.476 62.8754 127.12C63.5625 127.763 64.3722 128.261 65.2561 128.584C66.1401 128.907 67.0801 129.048 68.02 129C69.5437 129.06 71.0641 128.818 72.4937 128.287C73.9233 127.757 75.2339 126.949 76.35 125.91V115.34C76.35 110.21 72.65 108.53 69.28 108.53H69.32Z" fill="#E20714"/>
<path d="M82.59 101C82.1737 100.997 81.761 101.077 81.3754 101.234C80.9898 101.391 80.6388 101.622 80.3426 101.914C80.0464 102.207 79.8107 102.555 79.649 102.938C79.4872 103.322 79.4026 103.734 79.4 104.15C79.3759 104.578 79.4393 105.006 79.5865 105.409C79.7336 105.811 79.9614 106.18 80.2558 106.491C80.5502 106.803 80.9051 107.051 81.2987 107.22C81.6923 107.39 82.1164 107.477 82.545 107.477C82.9736 107.477 83.3977 107.39 83.7914 107.22C84.185 107.051 84.5399 106.803 84.8343 106.491C85.1287 106.18 85.3564 105.811 85.5036 105.409C85.6507 105.006 85.7142 104.578 85.69 104.15C85.6963 103.753 85.6235 103.358 85.4758 102.989C85.3282 102.62 85.1087 102.284 84.83 102C84.5451 101.689 84.1992 101.439 83.8139 101.267C83.4285 101.095 83.012 101.004 82.59 101V101Z" fill="#E20714"/>
<path d="M88.97 112.41V128.61H93.97V113.36C94.9347 112.586 96.1238 112.144 97.36 112.1C98.0336 112.063 98.7087 112.134 99.36 112.31L100.75 109.18C99.6914 108.759 98.559 108.555 97.42 108.58C95.823 108.598 94.2471 108.947 92.7924 109.607C91.3377 110.266 90.036 111.221 88.97 112.41V112.41Z" fill="#E20714"/>
<path d="M204.1 104L202.1 104.22V112.42C202.071 112.733 202.113 113.048 202.224 113.343C202.334 113.637 202.511 113.902 202.739 114.118C202.967 114.333 203.242 114.495 203.542 114.588C203.842 114.682 204.159 114.707 204.47 114.66H204.71C205.103 114.666 205.496 114.626 205.88 114.54H205.94V112.94H205.86C205.527 112.971 205.193 112.971 204.86 112.94C204.12 112.89 204.02 112.46 204.02 112.04V108.45H205.9V106.66H204.02L204.1 104Z" fill="#E20714"/>
<path d="M148.54 105.3H150.4C151.1 105.3 152.28 105.51 152.28 106.95C152.28 108.06 151.56 108.65 150.2 108.65H148.54V105.3ZM148.54 110.59H150.31C152.9 110.59 154.38 109.28 154.38 106.98C154.38 104.68 152.98 103.36 150.54 103.36H146.54V114.58H148.54V110.59Z" fill="#E20714"/>
<path d="M163.72 117.38H165.81L170.09 106.76L170.13 106.65H168.04L166.1 111.53L164.04 106.69L164.02 106.65H161.9L165.1 113.93L163.72 117.38Z" fill="#E20714"/>
<path d="M180.11 106.56C179.629 106.554 179.151 106.649 178.709 106.839C178.266 107.028 177.868 107.308 177.54 107.66C177.276 107.293 176.922 106.999 176.513 106.807C176.103 106.614 175.651 106.529 175.2 106.56C174.469 106.574 173.764 106.835 173.2 107.3V106.65H171.2V114.58H173.2V110.64C173.2 109.31 173.88 108.42 174.9 108.42C175.55 108.42 176.22 108.65 176.22 110.31V114.58H178.17V110.64C178.17 109.34 178.84 108.42 179.8 108.42C180.42 108.42 181.09 108.57 181.09 110.32V114.58H183.09V110C183.01 107.72 182.03 106.56 180.11 106.56Z" fill="#E20714"/>
<path d="M197.7 106.56C196.889 106.555 196.1 106.822 195.46 107.32V106.65H193.46V114.58H195.46V110.58C195.46 109.22 196.18 108.38 197.33 108.38C198.01 108.38 198.7 108.6 198.7 110.24V114.55H200.7V110C200.65 107.8 199.58 106.56 197.7 106.56Z" fill="#E20714"/>
<path d="M210.9 109.77L210.56 109.64C209.83 109.36 209.44 109.16 209.44 108.87C209.44 108.58 209.81 108.41 210.15 108.41C210.766 108.415 211.358 108.651 211.81 109.07L212.14 109.35L213.14 107.76L212.87 107.54C212.119 106.887 211.155 106.531 210.16 106.54C209.827 106.507 209.491 106.541 209.171 106.64C208.851 106.739 208.555 106.901 208.298 107.116C208.042 107.331 207.832 107.595 207.679 107.893C207.526 108.191 207.435 108.516 207.41 108.85C207.41 110.44 208.65 111.01 209.82 111.42L209.99 111.48L210.22 111.56C210.539 111.636 210.841 111.771 211.11 111.96C211.183 112.014 211.235 112.09 211.259 112.177C211.282 112.264 211.276 112.357 211.24 112.44C211.203 112.535 211.137 112.616 211.05 112.67C210.891 112.769 210.707 112.821 210.52 112.82C210.118 112.847 209.715 112.785 209.34 112.64C208.977 112.504 208.639 112.308 208.34 112.06L208.01 111.75L206.95 113.31L207.21 113.53C208.05 114.28 209.144 114.684 210.27 114.66C212.46 114.66 213.27 113.35 213.27 112.22C213.31 110.69 212.25 110.28 210.9 109.77Z" fill="#E20714"/>
<path d="M156.79 112.13C156.78 112.02 156.794 111.909 156.832 111.805C156.87 111.701 156.931 111.607 157.01 111.53C157.29 111.299 157.647 111.181 158.01 111.2H159.38V112.93C159.052 113.009 158.717 113.053 158.38 113.06H158.26C157.866 113.057 157.481 112.943 157.15 112.73C157.049 112.663 156.965 112.574 156.903 112.47C156.841 112.367 156.802 112.25 156.79 112.13V112.13ZM155.65 113.92V113.97L155.73 114.03H155.79H155.85L155.95 114.09C156.139 114.199 156.341 114.286 156.55 114.35V114.35C156.98 114.479 157.422 114.56 157.87 114.59H158.32C159.192 114.558 160.056 114.414 160.89 114.16H161.03V109C161.035 108.963 161.035 108.926 161.03 108.89V108.77V108.53V108.42C161.036 108.394 161.036 108.366 161.03 108.34V108.28V108.22L161.05 108V107.94V108C160.918 107.73 160.734 107.489 160.51 107.29C160.238 107.049 159.922 106.863 159.58 106.74C159.326 106.657 159.065 106.596 158.8 106.56H158.75H158.25C157.338 106.566 156.444 106.814 155.66 107.28L155.56 107.35L156.37 108.61H156.47C156.957 108.36 157.493 108.22 158.04 108.2C158.87 108.2 159.32 108.63 159.38 108.93V108.99V109.6H157.81C155.99 109.6 154.91 110.6 154.91 112.21C154.905 112.502 154.959 112.792 155.067 113.063C155.175 113.334 155.336 113.581 155.54 113.79C155.573 113.836 155.61 113.88 155.65 113.92V113.92Z" fill="#E20714"/>
<path d="M186.51 109.69C186.583 109.331 186.77 109.004 187.044 108.761C187.319 108.517 187.664 108.37 188.03 108.34C188.473 108.263 188.929 108.36 189.302 108.612C189.675 108.864 189.936 109.25 190.03 109.69H186.51ZM188.29 106.56C187.894 106.568 187.5 106.628 187.12 106.74C186.54 106.911 186.012 107.222 185.581 107.646C185.15 108.07 184.831 108.593 184.65 109.17C184.428 109.821 184.361 110.515 184.457 111.196C184.552 111.877 184.807 112.526 185.2 113.09C185.56 113.595 186.04 114.002 186.597 114.274C187.154 114.546 187.771 114.676 188.39 114.65C188.725 114.648 189.059 114.621 189.39 114.57C190.274 114.433 191.078 113.978 191.65 113.29H191.7L190.45 112.13L190.4 112.18C190.16 112.426 189.875 112.623 189.559 112.758C189.243 112.894 188.904 112.966 188.56 112.97C188.075 113.007 187.593 112.866 187.205 112.573C186.817 112.28 186.548 111.856 186.45 111.38V111.28H191.95V111.21C192.071 110.472 192.02 109.715 191.8 109C191.536 108.283 191.057 107.664 190.429 107.227C189.801 106.791 189.055 106.558 188.29 106.56V106.56Z" fill="#E20714"/>
<path d="M150.28 121.88H148.54V119.33H150.03C151.96 119.33 151.96 120.26 151.96 120.57C151.96 121.79 150.65 121.88 150.28 121.88ZM148.54 123.79H150.38C151.16 123.79 152.45 123.99 152.45 125.28C152.45 126.57 151.12 126.67 150.33 126.67H148.54V123.79ZM152.93 122.65C153.29 122.38 153.58 122.028 153.775 121.622C153.97 121.216 154.064 120.77 154.05 120.32C154.05 118.43 152.71 117.39 150.29 117.39H146.49V128.61H150.65C153.07 128.61 154.53 127.41 154.53 125.4C154.555 124.836 154.418 124.277 154.134 123.79C153.85 123.302 153.432 122.907 152.93 122.65V122.65Z" fill="#E20714"/>
<path d="M167.97 120.59C167.156 120.583 166.363 120.851 165.72 121.35V120.68H163.72V128.61H165.72V124.61C165.72 123.25 166.44 122.41 167.59 122.41C168.27 122.41 168.96 122.63 168.96 124.27V128.58H170.96V124C170.92 121.83 169.84 120.59 167.97 120.59Z" fill="#E20714"/>
<path d="M160.23 125.19V126.92C159.902 126.999 159.567 127.043 159.23 127.05H159.11C158.716 127.052 158.329 126.937 158 126.72C157.906 126.652 157.829 126.563 157.773 126.461C157.718 126.359 157.686 126.246 157.68 126.13C157.669 126.019 157.684 125.907 157.724 125.803C157.764 125.699 157.828 125.605 157.91 125.53C158.188 125.294 158.546 125.176 158.91 125.2L160.23 125.19ZM162.1 122.85C162.106 122.824 162.106 122.796 162.1 122.77V122.52L162.02 122.22V122.17V122.09V122.01C161.886 121.739 161.703 121.495 161.48 121.29C161.21 121.049 160.893 120.865 160.55 120.75C160.295 120.656 160.03 120.596 159.76 120.57V120.57H159.26C158.347 120.569 157.451 120.818 156.67 121.29L156.57 121.36L157.32 122.53V122.63L157.43 122.58C157.917 122.332 158.453 122.195 159 122.18C159.83 122.18 160.28 122.6 160.34 122.91C160.335 122.926 160.335 122.944 160.34 122.96V123.12V123.6H158.65C156.83 123.6 155.75 124.6 155.75 126.21C155.744 126.5 155.796 126.788 155.903 127.057C156.009 127.327 156.168 127.572 156.37 127.78C156.414 127.836 156.464 127.886 156.52 127.93L156.65 128.03L156.75 128.1L156.86 128.16C157.049 128.271 157.25 128.358 157.46 128.42V128.42H157.54C157.969 128.549 158.412 128.626 158.86 128.65H159.31C160.182 128.618 161.045 128.473 161.88 128.22H162.01V122.85H162.1Z" fill="#E20714"/>
<path d="M182.4 119.2C182.32 119.157 182.231 119.133 182.14 119.13H176.14C175.999 119.13 175.865 119.186 175.765 119.285C175.666 119.385 175.61 119.519 175.61 119.66C175.61 119.729 175.624 119.798 175.65 119.861C175.677 119.925 175.716 119.983 175.766 120.031C175.815 120.08 175.874 120.118 175.938 120.143C176.002 120.169 176.071 120.181 176.14 120.18L177.65 120.1C177.766 120.352 177.837 120.623 177.86 120.9H176.19C176.127 120.9 176.065 120.912 176.008 120.937C175.95 120.961 175.898 120.996 175.854 121.041C175.81 121.086 175.776 121.139 175.753 121.197C175.73 121.255 175.719 121.317 175.72 121.38C175.715 121.427 175.715 121.473 175.72 121.52C175.75 121.616 175.81 121.7 175.891 121.759C175.972 121.818 176.07 121.85 176.17 121.85L177.75 121.76C177.46 122.85 175.67 122.76 175.67 122.76H174.48V117.38H172.53V128.61H174.48V124.68H175.18L176.82 127L177.91 128.61H180.36L177.95 125.13L177.48 124.45L177.61 124.4C178.066 124.253 178.485 124.011 178.84 123.69C179.405 123.167 179.761 122.456 179.84 121.69C179.84 121.69 179.84 121.62 179.84 121.59L181.47 121.48C181.528 121.481 181.586 121.467 181.636 121.439C181.687 121.411 181.73 121.37 181.76 121.32C181.788 121.243 181.788 121.158 181.76 121.08C181.734 121.013 181.687 120.956 181.625 120.918C181.564 120.88 181.492 120.863 181.42 120.87H179.85C179.86 120.727 179.86 120.583 179.85 120.44C179.85 120.28 179.8 120.11 179.77 119.95L181.25 119.86L182.16 119.81C182.275 119.799 182.382 119.745 182.46 119.66C182.499 119.601 182.52 119.531 182.52 119.46C182.518 119.411 182.507 119.363 182.486 119.318C182.466 119.273 182.436 119.233 182.4 119.2V119.2Z" fill="#E20714"/>
</g>
<defs>
<clipPath id="clip0_55_83">
<rect width="183.3" height="28" fill="white" transform="translate(30 101)"/>
</clipPath>
</defs>
</svg>
