<svg width="243" height="230" viewBox="0 0 243 230" fill="none" xmlns="http://www.w3.org/2000/svg">
<path d="M243 0H0V230H243V0Z" fill="white"/>
<path d="M175.692 95.24L169.846 94.74C169.846 94.74 163.231 94.7785 158.923 97.7015C158.923 97.7015 154.615 100.625 154.423 106.202C154.423 106.202 154.5 111.317 157.885 113.932C157.885 113.932 161.231 116.586 167.538 118.432C167.538 118.432 172.192 119.894 173.5 121.202C173.5 121.202 174.808 122.471 174.654 123.932C174.654 123.932 174.577 125.702 172.577 126.778C172.577 126.778 170.538 127.855 167.423 127.932C167.423 127.932 164.231 127.855 161.154 127.048C161.154 127.048 158.038 126.278 155.846 125.317L154.231 128.355L152.346 131.317C152.346 131.317 158.692 134.817 167.154 134.855C167.154 134.855 173.769 134.855 178.269 131.817C178.269 131.817 182.808 128.817 183 122.778C183 122.778 183 118.202 180.038 115.702C180.038 115.702 177.077 113.202 170.846 111.317C170.846 111.317 166.038 109.778 164.231 108.317C164.231 108.317 162.423 106.894 162.5 105.471C162.5 105.471 162.577 103.432 164.731 102.317C164.731 102.317 166.846 101.202 170.385 101.202L174.385 101.548L174.346 106.894L180.462 107.009L180.923 96.2785C180.923 96.2785 178.692 95.7015 175.692 95.24ZM69.5385 94.9708V99.8554H73.7308L63.3077 129.278H60V134.163H73.9615V129.278H70.6923L72.5769 123.932H87.6923L89.6154 129.278H86.5385V134.163H101.5V129.278H98.3846L86.1923 94.9708H69.5385ZM80.1154 102.548L85.5769 117.855H74.7308L80.1154 102.548Z" fill="#0066A1"/>
<path d="M102.346 94.9707V101.548H96.4615V107.663H102.346V123.817C102.346 123.817 102.538 129.971 105.923 132.432C105.923 132.432 109.346 134.932 113.731 134.855C113.731 134.855 117.269 134.778 120.038 133.432C120.038 133.432 122.769 132.048 124.385 130.086C124.385 130.086 129.231 134.701 136.346 134.855C136.346 134.855 143.615 134.701 148.5 129.855C148.5 129.855 153.385 124.971 153.615 117.625C153.615 117.625 153.538 112.163 150.654 107.971C150.654 107.971 147.808 103.74 143.038 101.701H143.077C143.077 101.701 139.923 100.394 136.346 100.355L134.538 100.432C134.538 100.432 131.308 104.817 131.192 110.586C131.192 110.586 131.269 116.086 134.154 120.278C134.154 120.278 137.038 124.471 141.769 126.509C141.769 126.509 139.385 128.201 136.346 128.24C136.346 128.24 132.115 128.125 129.308 125.125C129.308 125.125 126.462 122.125 126.385 117.625C126.385 117.625 126.462 113.74 128.615 110.932C128.615 110.932 128.615 108.74 129.269 105.855C129.269 105.855 129.923 102.932 131 101.201C131 101.201 125.692 102.971 122.423 107.432C122.423 107.432 119.154 111.817 119.077 117.625C119.077 117.625 119.115 122.163 121.192 125.894C121.192 125.894 118.577 128.548 115.231 128.625C115.231 128.625 113.077 128.586 111.731 127.086C111.731 127.086 110.385 125.586 110.346 123.048V107.663H119.231V101.548H110.346V94.9707H102.346ZM139 107.355C139 107.355 142.231 108.355 144.231 111.125C144.231 111.125 146.269 113.855 146.308 117.625C146.308 117.625 146.308 119.317 145.846 120.855C145.846 120.855 142.615 119.855 140.577 117.125C140.577 117.125 138.577 114.355 138.5 110.586C138.5 110.586 138.5 108.932 139 107.355Z" fill="#0066A1"/>
</svg>
