<svg width="243" height="230" viewBox="0 0 243 230" fill="none" xmlns="http://www.w3.org/2000/svg">
<path d="M243 0H0V230H243V0Z" fill="white"/>
<g clip-path="url(#clip0_61_1003)">
<path d="M53.711 121.785C56.2881 126.011 61.0146 128.846 66.2749 128.846C74.0472 128.846 78.3257 122.138 78.3257 122.138L78.8764 123.925C75.2781 128.605 68.8499 131.424 61.658 131.424C53.3778 131.424 46.2367 127.474 42.9508 121.778C41.7137 119.632 41.0231 117.236 41.0231 114.712C41.0231 105.482 50.2606 98 61.6577 98C69.7104 98 76.1938 101.449 79.5973 106.448L66.0856 114.539L73.7967 102.698C71.5906 101.311 68.884 100.012 66.0856 100.012C58.1749 100.012 51.6594 106.613 51.6594 114.523C51.6594 117.174 52.4121 119.664 53.711 121.785V121.785ZM89.8897 121.781C89.8492 122.05 89.8289 122.323 89.8291 122.596C89.8291 125.599 92.2636 128.034 95.2667 128.034C98.2697 128.034 100.704 125.599 100.704 122.596C100.704 122.322 100.684 122.048 100.643 121.778C100.25 119.165 97.9926 117.159 95.2664 117.159C92.5404 117.159 90.2829 119.165 89.8897 121.781V121.781ZM110.066 121.778L112.768 130.881H103.289L101.425 124.647C100.177 128.239 95.9644 130.881 90.9605 130.881C84.9734 130.881 80.1204 127.099 80.1204 122.434C80.1204 122.216 80.1311 121.999 80.1519 121.778C80.5778 117.423 85.2541 113.987 90.9605 113.987C94.1994 113.987 97.1065 115.094 99.0928 116.849L96.5106 108.216H85.6307C85.6307 108.216 87.4409 107.13 95.4683 104.209C103.496 101.289 106.04 108.216 106.04 108.216L110.066 121.778V121.778ZM140.375 121.778V130.881H130.621V110.88C130.621 110.174 130.34 109.496 129.84 108.996C129.34 108.496 128.663 108.216 127.956 108.216C127.419 108.216 126.895 108.378 126.452 108.68C126.009 108.983 125.667 109.413 125.472 109.913V130.881H115.899V108.216H110.316C110.316 108.216 118.083 103.51 120.776 103.51C123.329 103.51 125.218 105.471 125.454 107.969C129.21 105.943 132.935 103.51 135.498 103.51C138.146 103.51 140.301 105.621 140.375 108.251V121.778ZM155.401 121.778L156.759 126.264C156.785 128.187 158.365 129.726 160.305 129.726C162.288 129.726 163.895 128.119 163.895 126.136C163.895 125.996 163.887 125.857 163.871 125.721L162.717 121.778L158.664 107.928C158.465 106.133 156.944 104.738 155.096 104.738C153.267 104.738 151.523 106.447 151.3 108.215L155.401 121.778ZM170.924 121.779C169.077 127.381 163.801 131.424 157.581 131.424C151.36 131.424 146.084 127.381 144.236 121.778C143.768 120.357 143.531 118.872 143.532 117.376C143.532 109.618 149.822 103.329 157.581 103.329C165.339 103.329 171.629 109.618 171.629 117.376C171.629 118.914 171.381 120.395 170.924 121.779ZM187.075 121.778V130.881H177.501V108.216H172.148C172.148 108.216 179.685 103.51 182.378 103.51C184.931 103.51 186.82 105.471 187.057 107.969C190.813 105.943 194.537 103.51 197.1 103.51C199.749 103.51 201.904 105.621 201.977 108.251V130.881H192.223V110.88C192.223 110.174 191.942 109.496 191.442 108.996C190.943 108.496 190.265 108.216 189.558 108.216C189.021 108.216 188.497 108.378 188.054 108.68C187.611 108.983 187.269 109.413 187.075 109.913V121.778V121.778Z" fill="#CC2229"/>
</g>
<defs>
<clipPath id="clip0_61_1003">
<rect width="161" height="33.4236" fill="white" transform="translate(41 98)"/>
</clipPath>
</defs>
</svg>
