<svg width="243" height="230" viewBox="0 0 243 230" fill="none" xmlns="http://www.w3.org/2000/svg">
<path d="M243 0H0V230H243V0Z" fill="white"/>
<path d="M178.839 123.475C178.839 122.806 179.037 122.152 179.408 121.596C179.78 121.039 180.308 120.606 180.926 120.349C181.544 120.093 182.224 120.026 182.88 120.157C183.536 120.287 184.139 120.609 184.612 121.082C185.085 121.555 185.407 122.158 185.538 122.814C185.669 123.47 185.602 124.15 185.346 124.768C185.09 125.386 184.656 125.914 184.1 126.286C183.544 126.657 182.89 126.856 182.221 126.856C181.324 126.855 180.464 126.499 179.83 125.865C179.196 125.231 178.84 124.371 178.839 123.475Z" fill="#86BC24"/>
<path d="M70.98 114.519C71.109 112.836 70.6718 111.158 69.738 109.752C69.2744 109.216 68.6916 108.797 68.0366 108.527C67.3815 108.258 66.6723 108.146 65.966 108.2H64.17V121.3H65.544C66.3144 121.365 67.0894 121.248 67.8059 120.957C68.5224 120.667 69.1604 120.211 69.668 119.628C70.6547 118.115 71.1158 116.319 70.98 114.518V114.519ZM77.38 114.295C77.38 118.198 76.331 121.205 74.233 123.316C72.135 125.427 69.1863 126.483 65.387 126.484H58V103.1H65.9C69.5667 103.1 72.3967 104.06 74.39 105.979C76.3833 107.898 77.3813 110.672 77.384 114.3L77.38 114.295ZM97.848 126.484H103.726V103H97.848V126.484ZM111.984 117.725C111.923 118.896 112.123 120.065 112.57 121.149C112.741 121.521 113.021 121.832 113.372 122.042C113.723 122.253 114.129 122.352 114.538 122.327C114.942 122.352 115.344 122.253 115.69 122.042C116.036 121.831 116.308 121.52 116.471 121.149C116.902 120.061 117.094 118.894 117.034 117.725C117.096 116.573 116.901 115.421 116.463 114.354C116.269 114.009 115.987 113.721 115.645 113.521C115.303 113.32 114.915 113.214 114.519 113.213C114.123 113.212 113.733 113.316 113.391 113.515C113.048 113.714 112.765 114.001 112.569 114.345C112.119 115.413 111.919 116.569 111.983 117.726L111.984 117.725ZM123.017 117.726C123.164 120.158 122.358 122.552 120.77 124.4C119.951 125.221 118.966 125.86 117.882 126.272C116.797 126.685 115.637 126.863 114.479 126.794C113.336 126.848 112.193 126.658 111.129 126.236C110.065 125.814 109.103 125.169 108.308 124.346C106.71 122.523 105.887 120.148 106.014 117.727C105.865 115.309 106.672 112.929 108.262 111.1C109.089 110.287 110.078 109.656 111.165 109.249C112.251 108.842 113.411 108.668 114.569 108.737C116.116 108.705 117.644 109.081 119 109.826C120.28 110.551 121.314 111.642 121.969 112.959C122.694 114.441 123.052 116.075 123.013 117.724L123.017 117.726ZM125.347 126.483H131.23V109.041H125.352L125.347 126.483ZM125.347 106.93H131.23V103H125.351L125.347 106.93ZM143.138 122.03C144.113 121.993 145.074 121.79 145.981 121.43V125.819C145.255 126.146 144.496 126.396 143.718 126.565C142.888 126.725 142.044 126.8 141.199 126.789C140.423 126.862 139.64 126.766 138.904 126.509C138.168 126.252 137.495 125.84 136.933 125.3C135.962 123.986 135.498 122.366 135.627 120.737V113.547H133.567V109.042H135.626V104.588L141.55 103.557V109.042H145.3V113.551H141.55V120.341C141.55 121.47 142.081 122.035 143.142 122.035L143.138 122.03ZM156.749 122.035C157.724 121.998 158.685 121.795 159.591 121.435V125.824C158.865 126.151 158.106 126.401 157.328 126.57C156.498 126.73 155.654 126.805 154.809 126.794C154.032 126.868 153.249 126.773 152.512 126.517C151.776 126.26 151.103 125.848 150.54 125.308C149.567 123.995 149.102 122.374 149.232 120.745V113.552H147.172V109.042H149.232V104.52L155.156 103.557V109.042H158.909V113.551H155.156V120.341C155.156 121.47 155.687 122.035 156.749 122.035ZM167.009 115.6C167.017 114.824 167.308 114.077 167.828 113.5C168.059 113.279 168.331 113.107 168.629 112.992C168.927 112.877 169.245 112.822 169.564 112.831C169.901 112.815 170.238 112.875 170.549 113.005C170.861 113.136 171.139 113.334 171.364 113.586C171.835 114.151 172.083 114.867 172.064 115.602L167.009 115.6ZM175.3 110.789C174.495 110.069 173.555 109.517 172.534 109.164C171.513 108.811 170.433 108.664 169.355 108.733C168.209 108.661 167.06 108.834 165.987 109.243C164.913 109.651 163.939 110.284 163.131 111.1C161.677 112.675 160.95 114.936 160.951 117.882C160.873 119.084 161.042 120.29 161.446 121.425C161.851 122.56 162.484 123.6 163.305 124.482C164.196 125.29 165.24 125.911 166.375 126.309C167.51 126.707 168.713 126.874 169.913 126.8C171.091 126.815 172.269 126.722 173.43 126.522C174.42 126.334 175.377 126 176.269 125.531L175.369 121.6C174.753 121.857 174.118 122.064 173.469 122.219C172.534 122.427 171.579 122.528 170.621 122.519C169.656 122.573 168.704 122.278 167.938 121.688C167.609 121.403 167.345 121.051 167.164 120.655C166.984 120.259 166.891 119.828 166.893 119.393H177.4V116.709C177.472 115.631 177.323 114.55 176.962 113.532C176.601 112.514 176.035 111.58 175.3 110.789ZM85.186 115.6C85.1943 114.824 85.4855 114.077 86.005 113.5C86.2359 113.279 86.5083 113.106 86.8065 112.991C87.1046 112.877 87.4226 112.822 87.742 112.831C88.0794 112.816 88.4161 112.875 88.7274 113.006C89.0388 113.137 89.3171 113.336 89.542 113.588C90.0123 114.153 90.2611 114.869 90.242 115.604L85.186 115.6ZM93.478 110.79C92.6728 110.07 91.7324 109.518 90.7116 109.165C89.6907 108.812 88.6099 108.665 87.532 108.734C86.3859 108.661 85.2375 108.834 84.1641 109.243C83.0906 109.651 82.1171 110.284 81.309 111.1C79.857 112.675 79.1297 114.936 79.127 117.882C79.0491 119.084 79.2178 120.29 79.6228 121.425C80.0277 122.56 80.6604 123.6 81.482 124.482C82.3733 125.289 83.417 125.91 84.5519 126.308C85.6867 126.706 86.8897 126.873 88.09 126.799C89.2684 126.814 90.4456 126.721 91.607 126.521C92.5974 126.333 93.5545 125.999 94.447 125.53L93.547 121.599C92.9313 121.856 92.2959 122.063 91.647 122.219C90.7118 122.427 89.756 122.527 88.798 122.519C87.8329 122.573 86.8807 122.278 86.115 121.688C85.7855 121.403 85.5215 121.051 85.3411 120.655C85.1607 120.259 85.0682 119.828 85.07 119.393H95.574V116.709C95.6462 115.631 95.4971 114.55 95.136 113.532C94.7748 112.514 94.2093 111.58 93.474 110.789" fill="#0F0B0B"/>
</svg>
