<?xml version="1.0" encoding="UTF-8"?>
<svg version="1.1" xmlns="http://www.w3.org/2000/svg" width="500" height="500">
<path d="M0 0 C165 0 330 0 500 0 C500 165 500 330 500 500 C335 500 170 500 0 500 C0 335 0 170 0 0 Z " fill="#FEFEFE" transform="translate(0,0)"/>
<path d="M0 0 C28.74033149 0 28.74033149 0 38.015625 8.68359375 C42.44187965 13.85046187 44.29522231 20.30461199 45 27 C45.47050781 26.57847656 45.94101563 26.15695313 46.42578125 25.72265625 C47.04839844 25.17480469 47.67101562 24.62695312 48.3125 24.0625 C48.92738281 23.51722656 49.54226562 22.97195312 50.17578125 22.41015625 C54.88574272 18.76926527 61.35733196 19.44009608 67 20 C69.75229642 21.0504598 71.59513954 22.25101058 74 24 C74 23.01 74 22.02 74 21 C78.62 21 83.24 21 88 21 C89.17374173 23.43431639 90.33915763 25.87204182 91.5 28.3125 C91.83386719 29.00279297 92.16773438 29.69308594 92.51171875 30.40429688 C95 35.66015625 95 35.66015625 95 39 C95.66 39 96.32 39 97 39 C97.17015625 38.45472656 97.3403125 37.90945312 97.515625 37.34765625 C99.32875234 31.70574406 101.52205144 26.38312963 104 21 C107.96 21 111.92 21 116 21 C116 14.07 116 7.14 116 0 C119.96 0 123.92 0 128 0 C128 14.85 128 29.7 128 45 C134.27 45 140.54 45 147 45 C147 37.08 147 29.16 147 21 C150.96 21 154.92 21 159 21 C159.04898438 22.55332031 159.09796875 24.10664063 159.1484375 25.70703125 C159.22346697 27.74220567 159.29901472 29.77736104 159.375 31.8125 C159.42140625 33.34874023 159.42140625 33.34874023 159.46875 34.91601562 C159.50742187 35.89892578 159.54609375 36.88183594 159.5859375 37.89453125 C159.6173584 38.80050049 159.6487793 39.70646973 159.68115234 40.63989258 C159.86027919 43.26525392 159.86027919 43.26525392 162 46 C166.59916537 46.5849163 166.59916537 46.5849163 170.69067383 44.7956543 C172.42434417 42.41804002 172.42711883 40.82168864 172.51171875 37.89453125 C172.54716797 36.91162109 172.58261719 35.92871094 172.61914062 34.91601562 C172.65297852 33.37977539 172.65297852 33.37977539 172.6875 31.8125 C172.72166016 30.77673828 172.75582031 29.74097656 172.79101562 28.67382812 C172.87352642 26.1159934 172.94266572 23.55850277 173 21 C177.22845566 20.79642923 181.45565214 20.67227265 185.6875 20.5625 C187.48477539 20.47452148 187.48477539 20.47452148 189.31835938 20.38476562 C198.03767802 20.21475106 198.03767802 20.21475106 200.94775391 22.58935547 C202.33203125 24.52734375 202.33203125 24.52734375 204 28 C204.928125 26.824375 204.928125 26.824375 205.875 25.625 C208 23 208 23 210 21 C213.2578125 20.8046875 213.2578125 20.8046875 217.125 20.875 C219.04699219 20.90207031 219.04699219 20.90207031 221.0078125 20.9296875 C222.48894531 20.96449219 222.48894531 20.96449219 224 21 C220.89842047 26.83096952 217.14443819 31.86601899 213 37 C214.6281644 40.75730247 217.01401917 43.616823 219.625 46.75 C220.85089844 48.22726562 220.85089844 48.22726562 222.1015625 49.734375 C222.72804688 50.48203125 223.35453125 51.2296875 224 52 C224.12117187 50.8965625 224.24234375 49.793125 224.3671875 48.65625 C225 45 225 45 227.125 42.5 C230.93532871 40.51200241 232.91964404 40.79100564 237 42 C239.80618215 44.35357213 239.97918231 45.8542762 240.5 49.5 C240 53 240 53 237.875 55.4375 C234.5810823 57.22767266 232.69407253 57.4104525 229 57 C228.34 56.67 227.68 56.34 227 56 C224.60386375 56.16225348 222.20808007 56.32973172 219.8125 56.5 C215.70394479 56.66807504 212.81593525 56.64073443 209.453125 54 C207.74046866 51.73533046 206.28881009 49.52747192 205 47 C201.52669694 50.27723068 201.52669694 50.27723068 198.8125 54.15625 C197 56 197 56 193.42578125 56.390625 C192.05414252 56.3641199 190.68278062 56.3165309 189.3125 56.25 C188.61060547 56.23195313 187.90871094 56.21390625 187.18554688 56.1953125 C185.45644564 56.14826213 183.72804795 56.07651873 182 56 C186.51567309 49.87647362 191.22073438 43.9194965 196 38 C195.08638422 36.60216786 194.16894254 35.20683607 193.25 33.8125 C192.73953125 33.03519531 192.2290625 32.25789063 191.703125 31.45703125 C189.91141277 28.8721987 187.98941403 26.43486978 186 24 C185.98541748 24.59949463 185.97083496 25.19898926 185.95581055 25.81665039 C185.88076179 28.56587455 185.78429248 31.31395889 185.6875 34.0625 C185.65366211 35.47692383 185.65366211 35.47692383 185.61914062 36.91992188 C185.39942569 42.65248427 184.78851586 46.94872664 182 52 C174.90339171 57.86241554 166.85610459 57.63496599 158 57 C154.19030999 55.62062948 151.63396167 54.07295528 149 51 C148.67 52.65 148.34 54.3 148 56 C137.11 56 126.22 56 115 56 C114.505 43.625 114.505 43.625 114 31 C113.15695313 32.63710937 112.31390625 34.27421875 111.4453125 35.9609375 C110.33873985 38.09906092 109.23195819 40.23707617 108.125 42.375 C107.56941406 43.45523438 107.01382813 44.53546875 106.44140625 45.6484375 C105.63896484 47.1953125 105.63896484 47.1953125 104.8203125 48.7734375 C104.32805176 49.72653809 103.83579102 50.67963867 103.32861328 51.66162109 C102 54 102 54 100 56 C97.31160615 56.26991906 94.70858064 56.08737357 92 56 C90.56069536 53.45934066 89.12351161 50.91751978 87.6875 48.375 C87.28337891 47.66214844 86.87925781 46.94929688 86.46289062 46.21484375 C84.19420489 42.19392107 82.0236356 38.15205492 80 34 C79.67 35.98 79.34 37.96 79 40 C70.75 40 62.5 40 54 40 C55.33563616 44.94463635 55.33563616 44.94463635 58 46 C63.88165736 46.46588282 63.88165736 46.46588282 69 44 C72.38693192 44.34737763 75.03721286 45.35400715 78 47 C77.6740051 50.04261908 77.02104739 50.9801219 74.75 53.125 C68.47186453 57.40554691 62.4500138 57.94695376 55 57 C48.78811602 54.57144439 44.4566858 50.27754305 41.75 44.1875 C41.5025 43.465625 41.255 42.74375 41 42 C40.34 43.051875 39.68 44.10375 39 45.1875 C34.60357241 51.34000773 29.04577319 53.65140894 22 56 C14.74 56 7.48 56 0 56 C0 37.52 0 19.04 0 0 Z " fill="#050505" transform="translate(130,212)"/>
<path d="M0 0 C3.96 0 7.92 0 12 0 C12 14.85 12 29.7 12 45 C18.27 45 24.54 45 31 45 C31 37.08 31 29.16 31 21 C34.96 21 38.92 21 43 21 C43.04898438 22.55332031 43.09796875 24.10664063 43.1484375 25.70703125 C43.22346697 27.74220567 43.29901472 29.77736104 43.375 31.8125 C43.4059375 32.83666016 43.436875 33.86082031 43.46875 34.91601562 C43.52675781 36.39038086 43.52675781 36.39038086 43.5859375 37.89453125 C43.6173584 38.80050049 43.6487793 39.70646973 43.68115234 40.63989258 C43.86027919 43.26525392 43.86027919 43.26525392 46 46 C50.59916537 46.5849163 50.59916537 46.5849163 54.69067383 44.7956543 C56.42434417 42.41804002 56.42711883 40.82168864 56.51171875 37.89453125 C56.54716797 36.91162109 56.58261719 35.92871094 56.61914062 34.91601562 C56.64169922 33.89185547 56.66425781 32.86769531 56.6875 31.8125 C56.72166016 30.77673828 56.75582031 29.74097656 56.79101562 28.67382812 C56.87352642 26.1159934 56.94266572 23.55850277 57 21 C61.22845566 20.79642923 65.45565214 20.67227265 69.6875 20.5625 C71.48477539 20.47452148 71.48477539 20.47452148 73.31835938 20.38476562 C82.03767802 20.21475106 82.03767802 20.21475106 84.94775391 22.58935547 C86.33203125 24.52734375 86.33203125 24.52734375 88 28 C88.61875 27.21625 89.2375 26.4325 89.875 25.625 C92 23 92 23 94 21 C97.2578125 20.8046875 97.2578125 20.8046875 101.125 20.875 C103.04699219 20.90207031 103.04699219 20.90207031 105.0078125 20.9296875 C106.48894531 20.96449219 106.48894531 20.96449219 108 21 C104.89842047 26.83096952 101.14443819 31.86601899 97 37 C98.6281644 40.75730247 101.01401917 43.616823 103.625 46.75 C104.44226563 47.73484375 105.25953125 48.7196875 106.1015625 49.734375 C106.72804688 50.48203125 107.35453125 51.2296875 108 52 C108.18175781 50.34484375 108.18175781 50.34484375 108.3671875 48.65625 C109 45 109 45 111.125 42.5 C114.93532871 40.51200241 116.91964404 40.79100564 121 42 C123.80618215 44.35357213 123.97918231 45.8542762 124.5 49.5 C124 53 124 53 121.875 55.4375 C118.5810823 57.22767266 116.69407253 57.4104525 113 57 C112.34 56.67 111.68 56.34 111 56 C108.60386375 56.16225348 106.20808007 56.32973172 103.8125 56.5 C99.70394479 56.66807504 96.81593525 56.64073443 93.453125 54 C91.74046866 51.73533046 90.28881009 49.52747192 89 47 C85.52669694 50.27723068 85.52669694 50.27723068 82.8125 54.15625 C81 56 81 56 77.42578125 56.390625 C76.05414252 56.3641199 74.68278062 56.3165309 73.3125 56.25 C72.61060547 56.23195313 71.90871094 56.21390625 71.18554688 56.1953125 C69.45644564 56.14826213 67.72804795 56.07651873 66 56 C70.51567309 49.87647362 75.22073438 43.9194965 80 38 C79.08638422 36.60216786 78.16894254 35.20683607 77.25 33.8125 C76.73953125 33.03519531 76.2290625 32.25789063 75.703125 31.45703125 C73.91141277 28.8721987 71.98941403 26.43486978 70 24 C69.98541748 24.59949463 69.97083496 25.19898926 69.95581055 25.81665039 C69.88076179 28.56587455 69.78429248 31.31395889 69.6875 34.0625 C69.66494141 35.00544922 69.64238281 35.94839844 69.61914062 36.91992188 C69.39942569 42.65248427 68.78851586 46.94872664 66 52 C58.90339171 57.86241554 50.85610459 57.63496599 42 57 C38.19030999 55.62062948 35.63396167 54.07295528 33 51 C32.67 52.65 32.34 54.3 32 56 C21.44 56 10.88 56 0 56 C-1.38297872 18.31914894 -1.38297872 18.31914894 0 0 Z " fill="#010101" transform="translate(246,212)"/>
<path d="M0 0 C11.63856502 -1.0735426 11.63856502 -1.0735426 14.9765625 1.55859375 C16.3125 3.5 16.3125 3.5 18 7 C18.61875 6.21625 19.2375 5.4325 19.875 4.625 C22 2 22 2 24 0 C27.2578125 -0.1953125 27.2578125 -0.1953125 31.125 -0.125 C33.04699219 -0.09792969 33.04699219 -0.09792969 35.0078125 -0.0703125 C36.48894531 -0.03550781 36.48894531 -0.03550781 38 0 C34.89842047 5.83096952 31.14443819 10.86601899 27 16 C28.6281644 19.75730247 31.01401917 22.616823 33.625 25.75 C34.44226563 26.73484375 35.25953125 27.7196875 36.1015625 28.734375 C36.72804688 29.48203125 37.35453125 30.2296875 38 31 C38.18175781 29.34484375 38.18175781 29.34484375 38.3671875 27.65625 C39 24 39 24 41.125 21.5 C44.93532871 19.51200241 46.91964404 19.79100564 51 21 C53.80618215 23.35357213 53.97918231 24.8542762 54.5 28.5 C54 32 54 32 51.875 34.4375 C48.5810823 36.22767266 46.69407253 36.4104525 43 36 C42.01 35.505 42.01 35.505 41 35 C38.60386375 35.16225348 36.20808007 35.32973172 33.8125 35.5 C29.70394479 35.66807504 26.81593525 35.64073443 23.453125 33 C21.74046866 30.73533046 20.28881009 28.52747192 19 26 C15.52669694 29.27723068 15.52669694 29.27723068 12.8125 33.15625 C11 35 11 35 7.42578125 35.390625 C6.05414252 35.3641199 4.68278062 35.3165309 3.3125 35.25 C2.61060547 35.23195313 1.90871094 35.21390625 1.18554688 35.1953125 C-0.54355436 35.14826213 -2.27195205 35.07651873 -4 35 C0.51567309 28.87647362 5.22073438 22.9194965 10 17 C6.03260673 10.90324201 6.03260673 10.90324201 1.625 5.125 C0 3 0 3 0 0 Z " fill="#040404" transform="translate(316,233)"/>
<path d="M0 0 C4.62 0 9.24 0 14 0 C15.17374173 2.43431639 16.33915763 4.87204182 17.5 7.3125 C17.83386719 8.00279297 18.16773438 8.69308594 18.51171875 9.40429688 C21 14.66015625 21 14.66015625 21 18 C21.66 18 22.32 18 23 18 C23.17015625 17.45472656 23.3403125 16.90945312 23.515625 16.34765625 C25.32875234 10.70574406 27.52205144 5.38312963 30 0 C33.63 0 37.26 0 41 0 C41.84062776 4.36893737 42.11732956 8.4835198 42.09765625 12.9296875 C42.09443359 14.21875 42.09121094 15.5078125 42.08789062 16.8359375 C42.07953733 18.18229236 42.07107241 19.52864652 42.0625 20.875 C42.0574783 22.24479004 42.05291657 23.61458185 42.04882812 24.984375 C42.03707254 28.3229619 42.02063964 31.66145815 42 35 C41.67 35 41.34 35 41 35 C40.505 22.625 40.505 22.625 40 10 C39.15695313 11.63710937 38.31390625 13.27421875 37.4453125 14.9609375 C36.33873985 17.09906092 35.23195819 19.23707617 34.125 21.375 C33.56941406 22.45523438 33.01382813 23.53546875 32.44140625 24.6484375 C31.90644531 25.6796875 31.37148437 26.7109375 30.8203125 27.7734375 C30.32805176 28.72653809 29.83579102 29.67963867 29.32861328 30.66162109 C28 33 28 33 26 35 C23.31160615 35.26991906 20.70858064 35.08737357 18 35 C17.443125 34.00742187 16.88625 33.01484375 16.3125 31.9921875 C15.94705078 31.34161377 15.58160156 30.69104004 15.20507812 30.02075195 C14.3957184 28.57961285 13.58713566 27.13803714 12.77929688 25.69604492 C10.76731619 22.11171236 8.74011361 18.53919349 6.65625 14.99609375 C6.29273438 14.37428223 5.92921875 13.7524707 5.5546875 13.11181641 C4.55188851 11.40102275 3.54176537 9.69452843 2.53125 7.98828125 C1 5 1 5 0 0 Z " fill="#601DE5" transform="translate(204,233)"/>
<path d="M0 0 C10.36551724 1.15172414 10.36551724 1.15172414 14 5 C18.06926988 10.67321567 17.75619688 16.2537042 17 23 C14.76123261 27.90806696 11.79614358 30.55490719 7 33 C4.69 33 2.38 33 0 33 C0 22.11 0 11.22 0 0 Z " fill="#FCFCFC" transform="translate(143,223)"/>
<path d="M0 0 C2.80618215 2.35357213 2.97918231 3.8542762 3.5 7.5 C3 11 3 11 0.875 13.4375 C-2.46474919 15.25258108 -4.25287549 15.47835632 -8 15 C-9.34980749 14.3673532 -10.68701812 13.70590424 -12 13 C-12.77235138 4.00639725 -12.77235138 4.00639725 -9.9375 0.3125 C-6.09238485 -1.40553017 -4.01276815 -1.18896834 0 0 Z " fill="#6522EA" transform="translate(367,254)"/>
<path d="M0 0 C2.5 0.5 2.5 0.5 4.875 2.0625 C6.5 4.5 6.5 4.5 6.4375 8.125 C5.5 11.5 5.5 11.5 2.5 13.5 C-0.5 13.875 -0.5 13.875 -3.5 13.5 C-5.8151023 11.41640793 -6.40276165 10.05564772 -6.9375 7 C-6.20847934 2.83416768 -4.12966477 0.82593295 0 0 Z " fill="#202020" transform="translate(237.5,271.5)"/>
<path d="M0 0 C0.99 0 1.98 0 3 0 C5.1875 3 5.1875 3 7 6 C7.33 4.02 7.66 2.04 8 0 C8.99 0 9.98 0 11 0 C11 4.29 11 8.58 11 13 C9.68 13 8.36 13 7 13 C5.25 10.5 5.25 10.5 4 8 C3.67 9.65 3.34 11.3 3 13 C2.01 13 1.02 13 0 13 C0 8.71 0 4.42 0 0 Z " fill="#151515" transform="translate(191,272)"/>
<path d="M0 0 C0.99 0 1.98 0 3 0 C3 1.65 3 3.3 3 5 C4.32 5 5.64 5 7 5 C7 3.35 7 1.7 7 0 C7.99 0 8.98 0 10 0 C10 4.29 10 8.58 10 13 C9.01 13 8.02 13 7 13 C7 11.35 7 9.7 7 8 C5.68 8 4.36 8 3 8 C3 9.65 3 11.3 3 13 C2.01 13 1.02 13 0 13 C0 8.71 0 4.42 0 0 Z " fill="#1A1A1A" transform="translate(314,272)"/>
<path d="M0 0 C2.31 0 4.62 0 7 0 C7 0.99 7 1.98 7 3 C5.68 3 4.36 3 3 3 C3 3.66 3 4.32 3 5 C4.32 5 5.64 5 7 5 C7 5.99 7 6.98 7 8 C5.68 8 4.36 8 3 8 C3 8.99 3 9.98 3 11 C4.32 11 5.64 11 7 11 C7 11.66 7 12.32 7 13 C4.69 13 2.38 13 0 13 C0 8.71 0 4.42 0 0 Z " fill="#191919" transform="translate(274,272)"/>
<path d="M0 0 C0 0.99 0 1.98 0 3 C-1.98 3.66 -3.96 4.32 -6 5 C-5.96877057 6.96756452 -5.96877057 6.96756452 -5 9 C-2.00384054 10.3045656 -2.00384054 10.3045656 1 11 C0.67 11.66 0.34 12.32 0 13 C-3.57763189 13.32523926 -5.39542581 13.42956587 -8.375 11.3125 C-10 9 -10 9 -10.5625 6.5 C-10 4 -10 4 -7.8125 1.6875 C-4.82698671 -0.10380798 -3.4027576 -0.38888658 0 0 Z " fill="#6F30ED" transform="translate(302,272)"/>
<path d="M0 0 C2.64 0 5.28 0 8 0 C8 0.99 8 1.98 8 3 C6.35 3 4.7 3 3 3 C3 3.66 3 4.32 3 5 C4.32 5 5.64 5 7 5 C7 5.99 7 6.98 7 8 C5.68 8 4.36 8 3 8 C3 9.65 3 11.3 3 13 C2.01 13 1.02 13 0 13 C0 8.71 0 4.42 0 0 Z " fill="#7437ED" transform="translate(213,272)"/>
<path d="M0 0 C2.97 0 5.94 0 9 0 C9 0.99 9 1.98 9 3 C8.01 3 7.02 3 6 3 C6 6.3 6 9.6 6 13 C5.01 13 4.02 13 3 13 C3 9.7 3 6.4 3 3 C2.01 3 1.02 3 0 3 C0 2.01 0 1.02 0 0 Z " fill="#1E1E1E" transform="translate(254,272)"/>
<path d="M0 0 C3.625 0.1875 3.625 0.1875 6.625 2.1875 C6.625 3.1775 6.625 4.1675 6.625 5.1875 C2.665 5.1875 -1.295 5.1875 -5.375 5.1875 C-4.13556338 0.22975352 -4.13556338 0.22975352 0 0 Z " fill="#F7F7F7" transform="translate(190.375,239.8125)"/>
<path d="M0 0 C0.99 0 1.98 0 3 0 C3 4.29 3 8.58 3 13 C1.68 13 0.36 13 -1 13 C-1.5625 11.0625 -1.5625 11.0625 -2 9 C-1.67 8.67 -1.34 8.34 -1 8 C-0.76924918 6.65252916 -0.58846937 5.29622435 -0.4375 3.9375 C-0.293125 2.638125 -0.14875 1.33875 0 0 Z " fill="#252525" transform="translate(199,272)"/>
<path d="M0 0 C0.99 0 1.98 0 3 0 C3 4.29 3 8.58 3 13 C2.01 13 1.02 13 0 13 C0 8.71 0 4.42 0 0 Z " fill="#171717" transform="translate(176,272)"/>
<path d="M0 0 C2.125 0.375 2.125 0.375 4 1 C4 2.98 4 4.96 4 7 C2.35 7 0.7 7 -1 7 C-1.625 4.625 -1.625 4.625 -2 2 C-1.34 1.34 -0.68 0.68 0 0 Z " fill="#EFEFEF" transform="translate(236,275)"/>
</svg>
