<?xml version="1.0" encoding="UTF-8"?>
<svg version="1.1" xmlns="http://www.w3.org/2000/svg" width="792" height="612">
<path d="M0 0 C8.25 0 16.5 0 25 0 C25 53.79 25 107.58 25 163 C49.09 163 73.18 163 98 163 C96.68 158.38 95.36 153.76 94 149 C92.98082185 143.1298085 92.86136663 137.40039932 92.88647461 131.46289062 C92.88632858 130.54488678 92.88618256 129.62688293 92.8860321 128.68106079 C92.88672398 125.67276576 92.89448217 122.6645341 92.90234375 119.65625 C92.90421051 117.56018101 92.90563319 115.46411158 92.90663147 113.36804199 C92.91043633 107.87063375 92.92024917 102.37325223 92.93133545 96.87585449 C92.94159335 91.25838584 92.94613845 85.64091284 92.95117188 80.0234375 C92.96187336 69.01561141 92.9794536 58.00781212 93 47 C100.59 47 108.18 47 116 47 C116.0093457 49.77946045 116.01869141 52.5589209 116.02832031 55.42260742 C116.06221682 64.64676293 116.11783575 73.8706977 116.18390274 83.09467602 C116.22326825 88.68251337 116.25551017 94.2701957 116.27099609 99.8581543 C116.28623481 105.25947104 116.32080757 110.66036128 116.36830902 116.0614872 C116.38304872 118.11331774 116.39103672 120.1652092 116.39188385 122.21709251 C116.29176327 142.57253426 116.29176327 142.57253426 125.29296875 160.4140625 C131.41502458 166.10183062 139.02841363 167.38599892 147.1171875 167.27734375 C155.89689629 166.43268342 164.86525301 163.55493514 171 157 C178.60880857 146.64646139 181.11056619 136.07378847 181.20532227 123.40258789 C181.21522186 122.57251221 181.22512146 121.74243652 181.23532104 120.88720703 C181.26670342 118.16571831 181.29160067 115.44421218 181.31640625 112.72265625 C181.33699591 110.8269355 181.35799289 108.93121913 181.37937927 107.0355072 C181.43439224 102.06256678 181.48389256 97.08958637 181.53222656 92.11657715 C181.58259391 87.03536447 181.63820022 81.95420939 181.69335938 76.87304688 C181.80068661 66.9154121 181.9017028 56.95772801 182 47 C189.59 47 197.18 47 205 47 C205 92.54 205 138.08 205 185 C197.41 185 189.82 185 182 185 C181.67 179.06 181.34 173.12 181 167 C180.05125 168.340625 179.1025 169.68125 178.125 171.0625 C171.46428939 179.6032499 161.63463323 185.7180843 151 188 C147.46159819 188.24629247 143.9211319 188.23116265 140.375 188.25 C139.42753906 188.270625 138.48007812 188.29125 137.50390625 188.3125 C127.89790507 188.36506362 120.10538637 186.10991749 112 181 C111.67 181.99 111.34 182.98 111 184 C74.37 184 37.74 184 0 184 C0 123.28 0 62.56 0 0 Z " fill="#000000" transform="translate(392,190)"/>
<path d="M0 0 C12.8057078 10.89929416 20.73308544 26.14329347 22.28515625 42.9609375 C22.60944114 50.96787419 22.42022069 58.94711404 22.28515625 66.9609375 C14.03515625 66.9609375 5.78515625 66.9609375 -2.71484375 66.9609375 C1.57515625 78.8409375 5.86515625 90.7209375 10.28515625 102.9609375 C12.4537014 100.79239235 12.95053733 99.50865332 13.93896484 96.6496582 C14.25536423 95.74426804 14.57176361 94.83887787 14.89775085 93.90605164 C15.23957901 92.90967178 15.58140717 91.91329193 15.93359375 90.88671875 C16.29866531 89.83889725 16.66373688 88.79107574 17.03987122 87.71150208 C17.83435712 85.43048611 18.62641209 83.14862235 19.41635132 80.86602783 C21.52982969 74.7614838 23.66273915 68.66375395 25.796875 62.56640625 C26.01771318 61.93499725 26.23855137 61.30358826 26.46608162 60.65304565 C31.6799133 45.7530742 37.06241212 30.91552892 42.47265625 16.0859375 C42.9175238 14.86597076 43.36239136 13.64600403 43.82073975 12.3890686 C46.30495697 5.57824701 48.79433643 -1.23064668 51.28515625 -8.0390625 C59.20515625 -8.0390625 67.12515625 -8.0390625 75.28515625 -8.0390625 C73.93926377 -1.98254635 72.54431981 3.47819828 70.3984375 9.21484375 C70.10865524 10.00478729 69.81887299 10.79473083 69.52030945 11.60861206 C68.88600605 13.33623167 68.2491755 15.06292507 67.61010742 16.78878784 C65.81934719 21.62566491 64.04763474 26.46952848 62.2734375 31.3125 C61.69144089 32.89897591 61.69144089 32.89897591 61.09768677 34.51750183 C57.8249793 43.4516208 54.60111089 52.40276616 51.390625 61.359375 C51.13856104 62.06235403 50.88649708 62.76533306 50.62679482 63.48961449 C48.35127734 69.83610722 46.07714056 76.18309307 43.80703735 82.53152466 C38.13019658 98.4051455 32.37507052 114.23992852 26.28515625 129.9609375 C25.13067993 129.98281128 25.13067993 129.98281128 23.95288086 130.00512695 C7.26039962 130.01433823 7.26039962 130.01433823 -9.15234375 132.5234375 C-30.28386019 137.51591273 -54.07304741 135.25103951 -72.71484375 123.9609375 C-87.26207399 114.39152056 -95.52970235 99.84012991 -99.58984375 83.1484375 C-103.73488749 59.53649188 -101.27655647 33.72485636 -87.65234375 13.5234375 C-77.56431098 0.18120062 -64.10110536 -7.70781744 -47.65234375 -10.2890625 C-30.70245248 -12.32745679 -13.99985501 -10.51499902 0 0 Z M-51.94921875 11.74609375 C-63.31045915 17.51492234 -70.15846882 24.36575109 -74.52734375 36.5859375 C-75.89142576 40.76912233 -76.14351438 44.39030256 -76.71484375 48.9609375 C-62.52484375 48.9609375 -48.33484375 48.9609375 -33.71484375 48.9609375 C-38.69481805 33.78645003 -38.69481805 33.78645003 -43.96484375 18.7109375 C-44.31506592 17.70256836 -44.31506592 17.70256836 -44.67236328 16.67382812 C-45.39658542 14.62253087 -45.39658542 14.62253087 -46.71484375 11.9609375 C-49.59206696 10.66138712 -49.59206696 10.66138712 -51.94921875 11.74609375 Z M-22.71484375 11.9609375 C-20.49325953 19.74856804 -17.85529078 27.35149776 -15.08984375 34.9609375 C-14.6825 36.09144531 -14.27515625 37.22195313 -13.85546875 38.38671875 C-11.98895865 43.75941365 -11.98895865 43.75941365 -9.71484375 48.9609375 C-6.41484375 48.9609375 -3.11484375 48.9609375 0.28515625 48.9609375 C-0.75325782 36.85804244 -3.79921389 25.66429046 -12.71484375 16.9609375 C-17.30542068 13.36826009 -17.30542068 13.36826009 -22.71484375 11.9609375 Z M-76.71484375 66.9609375 C-76.71484375 73.42562681 -76.61709108 77.94051852 -74.71484375 83.8359375 C-74.38262817 84.86738892 -74.38262817 84.86738892 -74.04370117 85.91967773 C-70.34765631 96.60864448 -63.75521509 104.65985191 -53.71484375 109.9609375 C-41.45294037 115.80490847 -24.53333144 116.37501728 -11.71484375 111.9609375 C-12.93412205 105.8361318 -14.58890355 100.06066456 -16.75390625 94.20703125 C-17.00744873 93.50839966 -17.26099121 92.80976807 -17.5222168 92.08996582 C-18.45530962 89.52389079 -19.39811918 86.96135734 -20.33984375 84.3984375 C-23.49546875 75.766875 -23.49546875 75.766875 -26.71484375 66.9609375 C-43.21484375 66.9609375 -59.71484375 66.9609375 -76.71484375 66.9609375 Z " fill="#000000" transform="translate(315.71484375,244.0390625)"/>
<path d="M0 0 C75.65555087 0 75.65555087 0 90.625 4.125 C91.40077393 4.33455322 92.17654785 4.54410645 92.97583008 4.76000977 C104.12531272 7.96814242 115.30792413 13.22087739 124 21 C124.72316406 21.62003906 125.44632812 22.24007812 126.19140625 22.87890625 C136.80156313 32.6273245 142.32893202 45.2891173 146 59 C146.3196875 60.18851563 146.639375 61.37703125 146.96875 62.6015625 C152.94552592 89.77375672 151.3764041 124.67183939 136.6875 148.9375 C122.6280934 169.2558091 103.99382582 177.50648261 80.59790039 182.53857422 C54.14158645 187.2376094 26.87038294 184 0 184 C0 123.28 0 62.56 0 0 Z M25 21 C25 67.86 25 114.72 25 163 C68.29404107 165.02129915 68.29404107 165.02129915 106 147 C122.93778849 127.91965365 124.28429417 103.30831643 123 79 C121.35846208 62.05436455 115.95897036 46.64429221 103 35 C81.49824513 17.5661447 50.52706243 21 25 21 Z " fill="#000000" transform="translate(49,190)"/>
<path d="M0 0 C22.52122702 -2.83118466 22.52122702 -2.83118466 29.36132812 1.49267578 C33.38634505 5.54555821 36.01131142 10.44651045 38.63037109 15.48095703 C40.82844781 19.52369421 43.54177974 23.16356224 46.25 26.875 C47.2309815 28.26564865 48.21019369 29.65754734 49.1875 31.05078125 C53.0123567 36.45220595 56.98541755 41.7384639 61 47 C66.85686279 39.3491432 72.62380863 31.66040829 78.03295898 23.68408203 C79.13791451 22.05852403 80.25471351 20.44095507 81.38305664 18.83154297 C83.81442096 15.34851567 86.08911609 11.99137572 87.87109375 8.12890625 C89.96906135 4.1619252 91.11777244 2.32933653 95 0 C103.91118386 -1.43115083 113.04604405 -0.73001836 122 0 C119.82052212 4.56252638 116.98184139 8.59038603 114.125 12.75 C113.25488281 14.02037109 113.25488281 14.02037109 112.3671875 15.31640625 C108.23805437 21.30364928 103.94464606 27.13858747 99.53515625 32.92089844 C94.98901357 38.92144693 90.7429971 45.11169396 86.5390625 51.35546875 C85.78109375 52.47888672 85.78109375 52.47888672 85.0078125 53.625 C84.51829102 54.35332031 84.02876953 55.08164062 83.52441406 55.83203125 C81.48903253 58.72668019 79.2665081 61.45965623 76.99951172 64.17578125 C75.80776745 65.94791903 75.80776745 65.94791903 76.18286133 67.99731445 C77.07206301 70.17661575 78.11833465 71.83920687 79.51953125 73.73046875 C80.0400708 74.44340088 80.56061035 75.15633301 81.09692383 75.89086914 C82.26300387 77.45189305 83.43358554 79.00956223 84.6081543 80.56420898 C87.60898433 84.57265791 90.35324316 88.49353525 92.6875 92.9296875 C96.39077406 99.76646021 96.39077406 99.76646021 102 105 C109.97593571 107.29320039 117.74224048 106.41288798 126 106 C126 116.56 126 127.12 126 138 C100.54341888 140.33546616 100.54341888 140.33546616 94.46191406 136.32714844 C90.12404358 131.77827996 87.31260677 126.32672238 84.48291016 120.75830078 C82.13183594 116.38516339 79.17147638 112.51823326 76.1875 108.5625 C75.11858545 107.10043441 74.05337318 105.63565368 72.9921875 104.16796875 C72.48913086 103.4723584 71.98607422 102.77674805 71.46777344 102.06005859 C70.03781416 100.05307317 68.64101152 98.02771677 67.2578125 95.98828125 C66.84120361 95.37460693 66.42459473 94.76093262 65.99536133 94.12866211 C64.89266243 92.49384556 63.79946638 90.85263037 62.70703125 89.2109375 C62.14371094 88.48132813 61.58039063 87.75171875 61 87 C60.34 87 59.68 87 59 87 C57.14456387 89.4228009 55.40459805 91.85616968 53.6875 94.375 C52.59999847 95.94473153 51.51142127 97.51371828 50.421875 99.08203125 C49.85791016 99.89623535 49.29394531 100.71043945 48.71289062 101.54931641 C47.06466103 103.90748753 45.39185444 106.24491941 43.703125 108.57421875 C43.16518311 109.31704102 42.62724121 110.05986328 42.07299805 110.82519531 C40.97804508 112.32305305 39.87259918 113.81329365 38.75708008 115.29589844 C36.01690605 118.98064033 33.6505214 122.53496161 31.68359375 126.69140625 C27.28427581 135.4475412 27.28427581 135.4475412 23 138 C14.16003673 139.92685416 4.91971687 138.98299306 -4 138 C-2.3242861 133.53458715 0.0071361 130.02727205 2.875 126.25 C3.87637736 124.90857919 4.87632631 123.56609113 5.875 122.22265625 C6.39191406 121.5280127 6.90882813 120.83336914 7.44140625 120.11767578 C9.97265248 116.67844805 12.4237093 113.18394926 14.875 109.6875 C18.51703438 104.4999288 22.18951582 99.33751893 25.91430664 94.20898438 C28.08149864 91.22223362 30.23424978 88.2251857 32.38769531 85.22851562 C34.02226081 82.96923127 35.67874246 80.7270928 37.3359375 78.484375 C38.37070194 77.05274083 39.40459438 75.62047587 40.4375 74.1875 C40.92871338 73.53579834 41.41992676 72.88409668 41.92602539 72.21264648 C44.48148088 68.70514487 44.48148088 68.70514487 44.6171875 64.53125 C42.39532934 61.05355897 40.10471517 57.65775314 37.6875 54.3125 C37.15769531 53.57064453 36.62789062 52.82878906 36.08203125 52.06445312 C34.39423256 49.70510073 32.69839409 47.3517346 31 45 C30.45811035 44.24895996 29.9162207 43.49791992 29.35791016 42.72412109 C27.19869699 39.73298919 25.03826369 36.74275864 22.87353516 33.75561523 C18.57431997 27.8175903 14.33607577 21.83833368 10.1328125 15.83203125 C7.2283486 11.69337588 4.23101826 7.65253187 1.11694336 3.66845703 C0 2 0 2 0 0 Z " fill="#000000" transform="translate(617,236)"/>
<path d="M0 0 C7.92 0 15.84 0 24 0 C22.65410752 6.05651615 21.25916356 11.51726078 19.11328125 17.25390625 C18.82349899 18.04384979 18.53371674 18.83379333 18.2351532 19.64767456 C17.6008498 21.37529417 16.96401925 23.10198757 16.32495117 24.82785034 C14.53419094 29.66472741 12.76247849 34.50859098 10.98828125 39.3515625 C10.60028351 40.4092131 10.21228577 41.46686371 9.81253052 42.55656433 C6.53982305 51.4906833 3.31595464 60.44182866 0.10546875 69.3984375 C-0.14659521 70.10141653 -0.39865917 70.80439556 -0.65836143 71.52867699 C-2.93387891 77.87516972 -5.20801569 84.22215557 -7.4781189 90.57058716 C-13.15532671 106.44523433 -18.93355598 122.26873773 -25 138 C-34.9 138 -44.8 138 -55 138 C-56.65 134.04 -58.3 130.08 -60 126 C-60.79277344 124.14246094 -61.58554687 122.28492188 -62.40234375 120.37109375 C-65.41177358 113.14446369 -68.06472096 105.79316937 -70.71166992 98.42797852 C-71.56045774 96.06817789 -72.41565903 93.71077176 -73.27148438 91.35351562 C-76.08692467 83.56369005 -78.72554655 75.76742066 -81.10766602 67.83178711 C-82.40811587 63.70486021 -84.01821623 59.73883178 -85.6875 55.75 C-101.20356291 17.77862256 -101.20356291 17.77862256 -104 1 C-96.41 1 -88.82 1 -81 1 C-78.3125 8.75 -78.3125 8.75 -77.5012207 11.10839844 C-75.99769999 15.40357299 -74.34881221 19.60831289 -72.578125 23.80078125 C-69.99064924 29.94304988 -67.67849484 36.16164639 -65.4375 42.4375 C-65.04111328 43.54150146 -64.64472656 44.64550293 -64.23632812 45.78295898 C-62.37177751 51.01212674 -60.55877966 56.23247922 -59 61.5625 C-56.25602657 70.87196237 -52.59253895 79.88635261 -49.15039062 88.95410156 C-47.38581741 93.62617615 -45.65919594 98.31198697 -43.9375 103 C-43.4892688 104.21937256 -43.4892688 104.21937256 -43.03198242 105.46337891 C-42.35401946 107.30868592 -41.67690065 109.15430304 -41 111 C-38.83145485 108.83145485 -38.33461892 107.54771582 -37.34619141 104.6887207 C-37.02979202 103.78333054 -36.71339264 102.87794037 -36.3874054 101.94511414 C-36.04557724 100.94873428 -35.70374908 99.95235443 -35.3515625 98.92578125 C-34.98649094 97.87795975 -34.62141937 96.83013824 -34.24528503 95.75056458 C-33.45079913 93.46954861 -32.65874416 91.18768485 -31.86880493 88.90509033 C-29.75532656 82.8005463 -27.6224171 76.70281645 -25.48828125 70.60546875 C-25.26744307 69.97405975 -25.04660488 69.34265076 -24.81907463 68.69210815 C-19.60524295 53.7921367 -14.22274413 38.95459142 -8.8125 24.125 C-8.36763245 22.90503326 -7.92276489 21.68506653 -7.4644165 20.4281311 C-4.98019928 13.61730951 -2.49081982 6.80841582 0 0 Z " fill="#1C5B2D" transform="translate(367,236)"/>
<path d="M0 0 C1.00023193 0.00523682 2.00046387 0.01047363 3.03100586 0.01586914 C4.00303955 0.0183667 4.97507324 0.02086426 5.9765625 0.0234375 C7.84235962 0.03709351 7.84235962 0.03709351 9.74584961 0.05102539 C13.68522461 0.07165039 17.62459961 0.09227539 21.68334961 0.11352539 C21.68334961 10.67352539 21.68334961 21.23352539 21.68334961 32.11352539 C13.43334961 32.11352539 5.18334961 32.11352539 -3.31665039 32.11352539 C-3.33956277 27.71689506 -3.35948873 23.32047052 -3.37158203 18.92382812 C-3.3766216 17.42707621 -3.38345326 15.93032923 -3.39208984 14.43359375 C-3.40417198 12.28652732 -3.4098823 10.13952577 -3.41430664 7.99243164 C-3.41954346 6.69893799 -3.42478027 5.40544434 -3.43017578 4.07275391 C-3.28009846 0.16073831 -3.28009846 0.16073831 0 0 Z " fill="#1C592C" transform="translate(721.316650390625,341.886474609375)"/>
</svg>
