<svg width="243" height="230" viewBox="0 0 243 230" fill="none" xmlns="http://www.w3.org/2000/svg">
<path d="M243 0H0V230H243V0Z" fill="white"/>
<g clip-path="url(#clip0_61_969)">
<path d="M63.3016 97.7344C52.2278 97.7344 43 102.432 43 116.606C43 127.835 49.2051 134.905 63.587 134.905C80.5156 134.905 81.6006 123.754 81.6006 123.754H73.3982C73.3982 123.754 71.6397 129.759 63.0869 129.759C56.1209 129.759 51.1108 125.053 51.1108 118.458H82.459V114.318C82.459 107.793 78.3166 97.7344 63.3016 97.7344V97.7344ZM63.0151 103.024C69.646 103.024 74.1664 107.086 74.1664 113.175H51.292C51.292 106.711 57.1928 103.024 63.0151 103.024V103.024Z" fill="#E53238"/>
<path d="M82.4532 84.0093V127.788C82.4532 130.272 82.2756 133.762 82.2756 133.762H90.0989C90.0989 133.762 90.3801 131.256 90.3801 128.965C90.3801 128.965 94.2454 135.013 104.756 135.013C115.823 135.013 123.341 127.328 123.341 116.32C123.341 106.078 116.436 97.8413 104.774 97.8413C93.8527 97.8413 90.4592 103.738 90.4592 103.738V84.0093H82.4532ZM102.754 103.256C110.27 103.256 115.05 108.834 115.05 116.32C115.05 124.347 109.53 129.598 102.808 129.598C94.7864 129.598 90.4592 123.334 90.4592 116.391C90.4592 109.922 94.3418 103.256 102.754 103.256V103.256Z" fill="#0064D2"/>
<path d="M142.785 97.7344C126.126 97.7344 125.057 106.856 125.057 108.314H133.349C133.349 108.314 133.784 102.988 142.213 102.988C147.69 102.988 151.935 105.496 151.935 110.315V112.031H142.213C129.307 112.031 122.484 115.807 122.484 123.469C122.484 131.009 128.788 135.111 137.308 135.111C148.919 135.111 152.659 128.696 152.659 128.696C152.659 131.247 152.855 133.762 152.855 133.762H160.227C160.227 133.762 159.941 130.645 159.941 128.651V111.415C159.941 100.112 150.825 97.7344 142.785 97.7344V97.7344ZM151.935 117.178V119.465C151.935 122.449 150.094 129.866 139.255 129.866C133.321 129.866 130.776 126.904 130.776 123.468C130.776 117.218 139.345 117.178 151.935 117.178Z" fill="#F5AF02"/>
<path d="M155.476 99.165H164.804L178.192 125.987L191.549 99.165H200L175.67 146.917H166.806L173.826 133.605L155.476 99.165V99.165Z" fill="#86B817"/>
</g>
<defs>
<clipPath id="clip0_61_969">
<rect width="157" height="62.9256" fill="white" transform="translate(43 84)"/>
</clipPath>
</defs>
</svg>
