<svg width="243" height="230" viewBox="0 0 243 230" fill="none" xmlns="http://www.w3.org/2000/svg">
<path d="M243 0H0V230H243V0Z" fill="white"/>
<g clip-path="url(#clip0_56_404)">
<path d="M192 133.925H50V96.999H192V133.925Z" fill="white"/>
<path d="M74.2894 131.731H52.1934V99.1923H74.2894V131.731Z" fill="#062769"/>
<path d="M189.807 131.731H76.4837V99.1942H189.807V131.731Z" fill="#062769"/>
<path d="M83.563 109.29H90.8391V111.233H86.0353V114.271H90.4327V116.213H86.0353V119.674H90.8739V121.618H83.563V109.29Z" fill="white"/>
<path d="M92.0932 112.522H94.3011V113.794H94.3358C95.0782 112.681 96.1556 112.31 97.038 112.31C98.3094 112.31 99.2101 112.787 99.7227 113.917C100.27 112.823 101.453 112.31 102.566 112.31C104.808 112.31 105.445 113.847 105.445 115.877V121.617H103.078V116.196C103.078 115.348 103.078 114.147 101.718 114.147C100.147 114.147 99.9525 116.019 99.9525 117.202V121.617H97.5853V116.196C97.5853 115.348 97.5853 114.147 96.2261 114.147C94.6544 114.147 94.4594 116.019 94.4594 117.202V121.617H92.0932V112.522Z" fill="white"/>
<path d="M106.822 112.522H109.189V121.617H106.822V112.522ZM106.822 108.602H109.189V110.862H106.822V108.602Z" fill="white"/>
<path d="M110.496 112.522H112.597V114.588H112.633C112.739 113.741 113.71 112.31 115.123 112.31C115.352 112.31 115.6 112.31 115.847 112.381V114.765C115.635 114.641 115.212 114.571 114.788 114.571C112.863 114.571 112.863 116.973 112.863 118.279V121.617H110.496V112.522Z" fill="white"/>
<path d="M119.512 120.098C120.236 120.098 120.801 119.78 121.172 119.286C121.561 118.774 121.666 118.121 121.666 117.414H120.643C119.583 117.414 118.011 117.591 118.011 118.986C118.011 119.763 118.665 120.098 119.512 120.098ZM116.74 112.999C117.658 112.576 118.895 112.31 119.9 112.31C122.673 112.31 123.821 113.458 123.821 116.143V117.308C123.821 118.226 123.838 118.915 123.857 119.586C123.874 120.275 123.91 120.911 123.962 121.617H121.879C121.79 121.141 121.79 120.54 121.772 120.257H121.738C121.19 121.264 120.007 121.83 118.929 121.83C117.322 121.83 115.75 120.858 115.75 119.127C115.75 117.767 116.404 116.973 117.305 116.531C118.205 116.09 119.37 116.002 120.36 116.002H121.666C121.666 114.535 121.014 114.041 119.619 114.041C118.612 114.041 117.605 114.429 116.81 115.03L116.74 112.999Z" fill="white"/>
<path d="M125.693 114.252H123.944V112.522H125.693V110.703L128.06 109.944V112.522H130.162V114.252H128.06V118.491C128.06 119.268 128.272 119.993 129.172 119.993C129.596 119.993 130.002 119.904 130.249 119.745L130.32 121.617C129.826 121.758 129.278 121.83 128.572 121.83C126.718 121.83 125.693 120.681 125.693 118.879V114.252Z" fill="white"/>
<path d="M136.608 116.177C136.536 115.03 136.007 114.041 134.683 114.041C133.358 114.041 132.686 114.959 132.581 116.177H136.608ZM138.197 121.105C137.331 121.582 136.342 121.83 135.071 121.83C132.068 121.83 130.32 120.098 130.32 117.114C130.32 114.482 131.716 112.31 134.541 112.31C137.915 112.31 138.868 114.624 138.868 117.802H132.581C132.686 119.269 133.711 120.098 135.177 120.098C136.325 120.098 137.314 119.674 138.197 119.18V121.105Z" fill="white"/>
<path d="M145.244 114.429C144.519 114.182 143.99 114.041 143.125 114.041C142.489 114.041 141.729 114.271 141.729 115.048C141.729 116.496 145.844 115.577 145.844 118.862C145.844 120.981 143.954 121.83 142.029 121.83C141.129 121.83 140.21 121.671 139.345 121.441L139.486 119.498C140.229 119.869 141.005 120.098 141.818 120.098C142.417 120.098 143.372 119.869 143.372 118.986C143.372 117.202 139.257 118.421 139.257 115.136C139.257 113.176 140.97 112.31 142.825 112.31C143.937 112.31 144.661 112.487 145.402 112.646L145.244 114.429Z" fill="white"/>
<path d="M150.656 109.29H153.694L158.392 118.509H158.427V109.29H160.794V121.618H157.773L153.059 112.399H153.023V121.618H150.656V109.29Z" fill="white"/>
<path d="M165.2 119.674H166.365C167.513 119.674 168.909 119.392 168.909 117.962C168.909 116.354 167.602 116.107 166.365 116.107H165.2V119.674ZM165.2 114.271H166.206C167.248 114.271 168.537 114.041 168.537 112.77C168.537 111.339 167.284 111.233 166.153 111.233H165.2V114.271ZM162.727 109.29H167.037C168.625 109.29 171.01 109.75 171.01 112.452C171.01 113.918 170.021 114.942 168.554 115.206V115.242C170.232 115.401 171.381 116.531 171.381 118.05C171.381 121.158 168.59 121.618 167.037 121.618H162.727V109.29Z" fill="white"/>
<path d="M175.204 119.674H176.583C178.649 119.674 180.644 118.138 180.644 115.453C180.644 112.77 178.649 111.233 176.583 111.233H175.204V119.674ZM172.732 109.29H176.106C179.885 109.29 183.223 110.562 183.223 115.453C183.223 120.346 179.885 121.618 176.106 121.618H172.732V109.29Z" fill="white"/>
<path d="M61.2951 118.993C61.5886 110.911 65.9078 103.821 72.4773 99.1923H68.1301C62.8069 103.789 59.3991 110.197 59.1375 117.39C58.9482 122.603 60.4388 127.524 63.1661 131.73H64.4085C62.2682 127.898 61.1291 123.558 61.2951 118.993Z" fill="white"/>
<path d="M61.2951 118.994C61.5886 110.911 65.9078 103.821 72.4773 99.1923H68.1301C62.8069 103.789 59.3991 110.197 59.1375 117.39C58.9482 122.603 60.4388 127.524 63.1661 131.73H64.4085C62.2682 127.898 61.1291 123.558 61.2951 118.994Z" stroke="white" stroke-width="0.0247141"/>
<path d="M66.6193 99.1923H63.2105C59.4763 102.698 56.8707 107.79 56.277 113.645C55.553 120.781 57.9858 127.401 62.3049 131.732H63.4576C59.7206 127.462 57.6768 121.314 58.3458 114.722C59.0071 108.201 62.1794 102.637 66.6193 99.1923Z" fill="#FCAF17"/>
<path d="M66.6193 99.1923H63.2105C59.4763 102.698 56.8707 107.79 56.277 113.645C55.553 120.781 57.9858 127.401 62.3049 131.732H63.4576C59.7206 127.462 57.6768 121.314 58.3458 114.722C59.0071 108.201 62.1794 102.637 66.6193 99.1923Z" stroke="#FCAF17" stroke-width="0.0123571"/>
<path d="M70.2878 113.221C70.2878 110.414 69.4383 107.805 67.9834 105.63C68.552 107.455 68.7953 109.401 68.8629 111.422C69.0482 116.994 66.4841 121.69 62.8765 125.384C67.3491 123.389 70.2878 118.507 70.2878 113.221Z" fill="white"/>
<path d="M67.6098 116.512C67.5152 114.525 66.8375 112.705 65.7543 111.215C66.2109 112.488 66.4455 113.859 66.5604 115.287C66.8771 119.228 65.2552 122.643 62.8765 125.384C65.9136 123.817 67.7884 120.257 67.6098 116.512Z" fill="#FCAF17"/>
<path d="M67.6098 116.512C67.5152 114.525 66.8375 112.705 65.7543 111.215C66.2109 112.488 66.4455 113.859 66.5604 115.287C66.8771 119.228 65.2552 122.643 62.8765 125.384C65.9136 123.817 67.7884 120.257 67.6098 116.512Z" stroke="#FCAF17" stroke-width="0.0123571"/>
</g>
<defs>
<clipPath id="clip0_56_404">
<rect width="142" height="36.9254" fill="white" transform="translate(50 97)"/>
</clipPath>
</defs>
</svg>
