<?xml version="1.0" encoding="utf-8"?>
<!-- Generator: Adobe Illustrator 26.0.1, SVG Export Plug-In . SVG Version: 6.00 Build 0)  -->
<svg version="1.1" id="Layer_1" xmlns="http://www.w3.org/2000/svg" xmlns:xlink="http://www.w3.org/1999/xlink" x="0px" y="0px"
	 viewBox="0 0 243 230" style="enable-background:new 0 0 243 230;" xml:space="preserve">
<style type="text/css">
	.st0{fill:#FFFFFF;}
	.st1{clip-path:url(#SVGID_00000153675497451820761650000014288352210241674117_);}
	.st2{fill:#FFE500;}
	.st3{fill:#58595B;}
</style>
<path class="st0" d="M243,0H0v230h243V0z"/>
<g>
	<defs>
		<rect id="SVGID_1_" x="49.2" y="74.9" width="146.9" height="70.1"/>
	</defs>
	<clipPath id="SVGID_00000155839991038647567080000017245897847323472012_">
		<use xlink:href="#SVGID_1_"  style="overflow:visible;"/>
	</clipPath>
	<g style="clip-path:url(#SVGID_00000155839991038647567080000017245897847323472012_);">
		<path class="st2" d="M115.2,74.9L49.2,99l66-11.7V74.9z"/>
		<path class="st3" d="M113.7,128.2c0-1.2-0.8-1.8-1.3-2c0.6-0.3,1-1,1-1.8c0-1.5-1-2.3-2.7-2.3h-3.7v8.9h3.7
			C112.5,131.1,113.7,130,113.7,128.2L113.7,128.2z M110.6,129.6h-2.1v-2.5h2.1c0.9,0,1.4,0.4,1.4,1.3
			C112,129.1,111.4,129.6,110.6,129.6z M110.6,125.6h-2.1v-1.9h2c0.8,0,1.2,0.3,1.2,1C111.7,125.1,111.5,125.6,110.6,125.6
			L110.6,125.6z M114.8,128.3v-3.7h1.6v3.6c0,1.1,0.4,1.6,1.2,1.6c0.8,0,1.2-0.5,1.2-1.6v-3.6h1.6v6.5h-1.6v-0.5
			c-0.4,0.4-0.9,0.7-1.6,0.7C115.1,131.2,114.8,129.4,114.8,128.3L114.8,128.3z M139.2,131.1h-1.6v-6.5h1.6v0.6
			c0.4-0.4,1-0.7,1.6-0.7c1.5,0,2.4,1,2.4,2.9v3.7h-1.6v-3.6c0-1.1-0.4-1.6-1.2-1.6c-0.8,0-1.2,0.6-1.2,1.6L139.2,131.1L139.2,131.1
			z M123.5,127.8v3.3h-1.6v-6.5h1.6V127.8z M124.9,122.7l1.6-0.8v9.2h-1.6V122.7z M131.6,125.1c-0.4-0.4-0.9-0.6-1.4-0.6
			c-1.6,0-2.5,1.3-2.5,3.3c0,2.1,1,3.5,2.5,3.5c0.6,0,1-0.2,1.5-0.6v0.5h1.6v-9.2l-1.6,0.8V125.1L131.6,125.1z M130.5,129.7
			c-0.6,0-1.2-0.4-1.2-2c0-1.5,0.6-1.8,1.2-1.8c0.6,0,1,0.4,1.2,0.6v2.5C131.3,129.4,131,129.7,130.5,129.7L130.5,129.7z
			 M166.4,124.5c-0.5,0-1,0.2-1.4,0.6v-3l-1.6,0.8v8.2h1.6v-0.5c0.4,0.4,0.9,0.6,1.5,0.6c1.6,0,2.5-1.3,2.5-3.5
			C169,125.7,168,124.5,166.4,124.5L166.4,124.5z M166.2,125.9c0.6,0,1.2,0.5,1.2,1.8c0,1.4-0.4,2-1.2,2c-0.6,0-1-0.4-1.2-0.6v-2.5
			C165.3,126.2,165.7,125.9,166.2,125.9L166.2,125.9z M148.3,125.1c-0.4-0.4-0.9-0.6-1.4-0.6c-1.5,0-2.5,1.3-2.5,3.3
			c0,2.1,1,3.5,2.5,3.5c0.6,0,1.1-0.2,1.5-0.6v0.2c0,0.7,0,1.7-2.1,1.7h-0.1l0.6,1.3h0c2.1,0,3.1-1.1,3.1-3.2v-5.9h-1.6V125.1
			L148.3,125.1z M148.3,126.6v2.5c-0.2,0.3-0.6,0.6-1.2,0.6c-0.6,0-1.2-0.4-1.2-2c0-1.5,0.6-1.8,1.2-1.8
			C147.7,125.9,148.1,126.3,148.3,126.6z M154.8,126.2c0.5-0.3,1-0.4,1.7-0.4c0.8,0,1.2,0.3,1.2,0.9v0.4c-0.4-0.2-0.9-0.3-1.4-0.3
			c-1.2,0-2.6,0.6-2.6,2.1c0,1.7,1.3,2.3,2.4,2.3c0.4,0,1.1-0.2,1.6-0.7v0.5h1.6v-4.4c0-1.4-1-2.3-2.6-2.3c-0.9,0-1.7,0.2-2.4,0.6
			L154.8,126.2L154.8,126.2z M155.3,128.9c0-0.6,0.4-0.9,1.1-0.9c0.5,0,0.9,0.1,1.3,0.3v0.9c-0.2,0.4-0.7,0.7-1.3,0.7
			C155.7,129.9,155.3,129.5,155.3,128.9L155.3,128.9z M174.2,129.2c-0.3,0.3-0.7,0.6-1.3,0.6c-0.3,0-1.4-0.1-1.4-1.4h4v-0.5
			c0-2.1-1.1-3.4-2.7-3.4c-1.7,0-2.9,1.4-2.9,3.4c0,2,1.2,3.4,3.1,3.4c0.8,0,1.7-0.3,2.3-1L174.2,129.2L174.2,129.2z M171.4,127.2
			c0-0.8,0.5-1.4,1.2-1.4c0.8,0,1.2,0.7,1.2,1.4H171.4L171.4,127.2z M189.6,129.2c-0.3,0.3-0.7,0.6-1.3,0.6c-0.3,0-1.4-0.1-1.4-1.4
			h4v-0.5c0-2.1-1.1-3.4-2.7-3.4c-1.7,0-2.9,1.4-2.9,3.4c0,2,1.2,3.4,3.1,3.4c0.8,0,1.7-0.3,2.3-1L189.6,129.2L189.6,129.2z
			 M186.9,127.2c0-0.8,0.5-1.4,1.2-1.4c0.8,0,1.2,0.7,1.2,1.4H186.9z M183,128.8c0,0.6,0.2,0.9,0.7,0.9c0.3,0,0.7-0.1,1-0.3
			l-0.2,1.5c-0.4,0.2-0.8,0.3-1.4,0.3c-1.3,0-1.7-1.1-1.7-2v-3.1h-1v-1.5h1v-1.7l1.6-0.8v2.5h1.5v1.5H183V128.8z M179.9,130.9
			c-0.4,0.2-0.8,0.3-1.4,0.3c-1.3,0-1.7-1.1-1.7-2v-3.1h-1v-1.5h1v-1.7l1.6-0.8v2.5h1.4v1.5h-1.4v2.7c0,0.6,0.2,0.9,0.7,0.9
			c0.3,0,0.7-0.1,1-0.3L179.9,130.9z M195.7,126.4c-0.3-0.2-0.7-0.4-1.1-0.4c-0.8,0-1.2,0.5-1.2,1.5v3.5h-1.6v-6.5h1.6v0.6
			c0.4-0.5,0.9-0.7,1.4-0.7c0.4,0,0.9,0.2,1.2,0.4L195.7,126.4L195.7,126.4z M123.5,122.9v0.8h-1.6v-1.6h1.6V122.9z M134.6,124.6
			h1.6v6.5h-1.6V124.6z M136.2,122.9v0.8h-1.6v-1.6h1.6V122.9z M180.1,136.4c-0.4-0.4-0.9-0.6-1.4-0.6c-1.5,0-2.5,1.3-2.5,3.3
			c0,2.1,1,3.5,2.5,3.5c0.6,0,1-0.2,1.5-0.6v0.5h1.6v-9.2l-1.6,0.8V136.4L180.1,136.4z M179,141.1c-0.6,0-1.2-0.4-1.2-2
			c0-1.5,0.6-1.8,1.2-1.8c0.6,0,1,0.4,1.2,0.6v2.5C179.9,140.7,179.6,141.1,179,141.1L179,141.1z M125.8,137.7
			c-0.3-0.2-0.7-0.4-1.1-0.4c-0.8,0-1.2,0.5-1.2,1.5v3.5H122v-6.5h1.6v0.6c0.4-0.5,0.9-0.7,1.4-0.7c0.4,0,0.9,0.2,1.2,0.4
			L125.8,137.7L125.8,137.7z M113.2,135.9h1.6l-1.8,6.5h-1.4l-0.7-2.7c-0.1-0.5-0.3-1-0.4-1.4c-0.1,0.3-0.2,1.1-0.4,1.5l-0.7,2.6
			h-1.4l-1.8-6.5h1.6l0.6,2.4c0.1,0.4,0.2,1.1,0.3,1.6c0.1-0.5,0.3-1.2,0.4-1.6l0.7-2.4h1.4l0.7,2.4c0.1,0.4,0.3,1.1,0.4,1.6
			c0.1-0.4,0.2-1,0.4-1.6L113.2,135.9L113.2,135.9z M118,135.8c-1.7,0-2.9,1.4-2.9,3.4c0,1.9,1.2,3.4,2.9,3.4c1.7,0,2.9-1.4,2.9-3.4
			C121,137.2,119.8,135.8,118,135.8L118,135.8z M118,141c-0.8,0-1.3-0.8-1.3-1.9c0-1.2,0.5-1.9,1.3-1.9c0.8,0,1.3,0.8,1.3,1.9
			C119.4,140.3,118.8,141,118,141z M172.2,137.7c-0.3-0.2-0.7-0.4-1.1-0.4c-0.8,0-1.2,0.5-1.2,1.5v3.5h-1.6v-6.5h1.6v0.6
			c0.4-0.5,0.9-0.7,1.4-0.7c0.4,0,0.9,0.2,1.2,0.4L172.2,137.7z M159.7,135.9h1.6l-1.8,6.5H158l-0.7-2.7c-0.1-0.5-0.3-1-0.4-1.4
			c-0.1,0.3-0.2,1.1-0.4,1.5l-0.7,2.6h-1.4v0l-1.8-6.4h1.6l0.6,2.4c0.1,0.4,0.2,1.1,0.3,1.6c0.1-0.5,0.3-1.2,0.4-1.6l0.7-2.4h1.4
			l0.7,2.4c0.1,0.4,0.3,1.1,0.4,1.6c0.1-0.4,0.2-1,0.4-1.6L159.7,135.9L159.7,135.9z M164.5,135.8c-1.7,0-2.9,1.4-2.9,3.4
			c0,1.9,1.2,3.4,2.9,3.4c1.7,0,2.9-1.4,2.9-3.4C167.4,137.2,166.2,135.8,164.5,135.8z M164.5,141c-0.8,0-1.3-0.7-1.3-1.9
			c0-1.2,0.5-1.9,1.3-1.9c0.8,0,1.3,0.8,1.3,1.9C165.8,140.3,165.3,141,164.5,141z M130.6,138.1l2,4.3h-1.8l-1.4-3l-0.8,1.1v1.9H127
			V134l1.6-0.8v5.2c0.2-0.3,0.4-0.5,0.6-0.8l1.3-1.7h1.8L130.6,138.1L130.6,138.1z M138.2,142.4h-1.6v-6.5h1.6v0.6
			c0.4-0.4,1-0.7,1.6-0.7c1.6,0,2.4,1,2.4,2.9v3.7h-1.6v-3.6c0-1.1-0.4-1.6-1.2-1.6c-0.8,0-1.2,0.6-1.2,1.6L138.2,142.4L138.2,142.4
			L138.2,142.4z M147.2,136.4c-0.4-0.4-0.9-0.6-1.4-0.6c-1.6,0-2.5,1.3-2.5,3.3c0,2.1,1,3.5,2.5,3.5c0.6,0,1.1-0.2,1.5-0.6v0.2
			c0,0.7,0,1.7-2.1,1.7H145l0.6,1.3h0c2.1,0,3.1-1.1,3.1-3.2v-5.9h-1.6V136.4L147.2,136.4z M147.2,137.9v2.5
			c-0.2,0.3-0.6,0.6-1.2,0.6c-0.6,0-1.2-0.4-1.2-2c0-1.5,0.6-1.8,1.2-1.8C146.6,137.3,147,137.6,147.2,137.9L147.2,137.9z
			 M133.5,135.9h1.6v6.5h-1.6V135.9z M135.1,134.2v0.8h-1.6v-1.6h1.6V134.2z M173.4,134l1.6-0.8v9.1h-1.6V134L173.4,134z
			 M59.8,129.2h12v-7h-12v-5.5h13.4l-4.4-7.7H49.8v33.4h26.7v-7.7H59.8V129.2L59.8,129.2z M94.3,109l-5.6,10.9L83,109H71.9
			l11.7,20.2v13.2h10v-13.2l11.7-20.2H94.3L94.3,109z"/>
	</g>
</g>
</svg>
