<svg width="243" height="230" viewBox="0 0 243 230" fill="none" xmlns="http://www.w3.org/2000/svg">
<path d="M243 0H0V230H243V0Z" fill="white"/>
<path fill-rule="evenodd" clip-rule="evenodd" d="M166.617 101.473H173.581V112.011H187.689V101.473H194.656V127.794H187.689V116.183H173.581V127.794H166.617V101.473ZM36 101.473H42.9676V112.011H57.0735V101.473H64.084V127.794H57.0735V116.183H42.9676V127.794H36V101.473V101.473ZM69.8464 101.473H76.901V127.794H69.8464V101.473ZM200.29 101.473H207.344V127.794H200.29V101.473ZM79.4809 101.473H106.877V105.86H96.6415V127.794H89.7169V105.86H79.4809V101.473ZM112.898 117.73L117.758 105.989L122.575 117.73H112.898ZM124.338 121.902L126.747 127.794H134.619L122.189 101.516H113.371L100.856 127.794H108.683L111.135 121.902H124.338ZM155.82 110.419H162.961C162.873 105.645 158.745 101.086 149.153 101C142.015 100.958 133.37 103.882 133.326 114.591C133.283 125.213 142.1 128.525 149.153 128.353C155.647 128.138 162.873 126.333 163.175 118.333L155.992 118.376C155.777 123.366 151.778 124.354 149.154 124.397C146.444 124.397 140.896 123.839 140.812 114.721C140.726 106.12 145.8 104.915 149.154 104.915C152.466 104.957 155.777 106.506 155.82 110.419V110.419Z" fill="#CF4044"/>
</svg>
