<svg width="243" height="230" viewBox="0 0 243 230" fill="none" xmlns="http://www.w3.org/2000/svg">
<path d="M243 0H0V230H243V0Z" fill="white"/>
<g clip-path="url(#clip0_55_18)">
<path fill-rule="evenodd" clip-rule="evenodd" d="M49.3157 99.737C52.1029 99.2326 52.0909 101.911 51.0217 103.58C50.2288 104.841 48.7751 106.27 46.901 106.679C44.4742 107.207 43.6332 105.225 45.0869 102.787C45.8317 101.514 47.3935 100.085 49.3157 99.737ZM40.0411 100.842C39.7768 101.166 38.8518 101.839 38.4914 102.151C37.7105 102.823 36.3409 104.313 35.6561 105.069C31.7277 109.381 27.3547 117.859 29.9737 123.732C31.3793 126.879 34.1664 127.755 37.4582 127.887C38.4073 126.05 39.5486 121.438 39.8369 119.289C39.9691 118.424 40.0291 117.547 40.0051 116.682C39.957 115.794 39.7048 115.253 38.8518 115.097C37.0377 114.797 35.3438 116.646 34.4788 115.962C34.1664 115.289 34.9954 114.533 35.2957 114.209C36.7614 112.659 41.5308 109.321 43.4891 108.576C44.9908 107.988 47.1292 108.24 47.6218 109.501C48.0062 110.486 46.925 112.671 46.5886 113.632C45.4954 116.706 43.0446 123.648 43.0806 126.494L43.1287 126.626C46.5405 125.101 49.7963 123.036 52.3311 120.417C52.6916 120.045 53.076 119.709 53.4244 119.313C53.7488 118.916 54.1332 118.58 54.4576 118.16C54.7819 117.751 55.0943 117.367 55.4307 116.959C56.7402 115.289 57.8574 113.476 58.7585 111.566C58.9867 111.098 59.9358 108.528 60.0199 108.42C60.6687 103.652 59.4553 98.8723 54.5777 97.3231C53.989 97.143 53.1361 97.131 52.6195 96.8788H50.6372C50.409 96.9508 49.3518 97.0229 48.9913 97.0829C46.2162 97.5393 41.9033 99.3167 40.0411 100.842Z" fill="#CC262D"/>
<path fill-rule="evenodd" clip-rule="evenodd" d="M87.315 126.867C86.6783 127.995 86.3179 128.56 85.2967 129.196C84.3476 129.797 83.0021 130.049 81.6446 129.929C78.7132 129.653 78.0284 127.479 78.8694 124.669C79.5782 122.315 80.8036 120.646 82.7018 119.781C83.8911 119.241 85.2246 119.072 86.5221 119.289C88.4563 119.673 88.2281 120.898 88.3722 121.726L94.9557 121.714C95.3642 120.309 95.0519 118.808 94.319 117.907C92.1205 115.181 85.7653 115.349 82.5456 115.962C77.2115 116.983 73.7516 120.081 72.3099 124.705C71.3368 127.851 71.9135 130.133 73.8357 131.73C77.1995 134.529 88.3843 134.397 92.2166 129.797C92.6852 129.22 93.7664 127.803 93.9226 126.867H87.315V126.867Z" fill="#2E4693"/>
<path fill-rule="evenodd" clip-rule="evenodd" d="M127.825 126.879L121.242 126.867C120.977 127.155 120.701 127.803 120.425 128.128C119.271 129.497 117.674 130.085 115.643 129.941C112.676 129.725 111.931 127.635 112.736 124.777C113.757 121.126 116.616 118.688 120.305 119.265C121.686 119.481 122.299 120.237 122.215 121.714H128.834C129.303 120.441 128.87 118.76 128.246 117.943C127.609 117.115 126.6 116.514 125.254 116.13C122.779 115.421 119.043 115.445 116.448 115.938C111.15 116.947 107.606 120.081 106.201 124.681C105.263 127.743 105.744 130.085 107.642 131.67C110.97 134.457 119.608 133.88 123.368 131.923C124.401 131.394 125.314 130.686 126.071 129.833C126.6 129.256 127.669 127.827 127.825 126.879Z" fill="#2E4693"/>
<path fill-rule="evenodd" clip-rule="evenodd" d="M151.372 125.425C153.222 125.449 155.397 125.317 157.163 125.497C159.145 125.69 160.226 126.362 159.457 128.44C158.929 129.845 157.679 130.445 155.841 130.59C154.027 130.746 151.805 130.638 149.93 130.626L151.372 125.425ZM153.33 118.316C155.108 118.328 156.97 118.256 158.724 118.364C160.454 118.472 161.884 118.916 161.007 120.874C160.454 122.099 159.205 122.519 157.487 122.639C155.781 122.759 153.907 122.687 152.153 122.687L153.33 118.316ZM160.791 123.936C162.653 123.456 164.263 122.795 165.212 121.09C166.305 119.12 166.089 117.031 164.251 116.13C162.581 115.325 159.541 115.542 157.499 115.542C155.132 115.542 152.477 115.434 150.159 115.554C149.894 115.926 149.065 119.301 148.861 120.033C148.429 121.558 148.02 123.048 147.6 124.549C147.071 126.434 145.401 132.067 145.113 133.532H153.294C155.937 133.532 158.22 133.64 160.406 132.595C163.698 131.034 165.236 127.071 163.494 125.221C162.509 124.188 161.692 124.261 160.791 123.936Z" fill="#2E4693"/>
<path fill-rule="evenodd" clip-rule="evenodd" d="M218 121.03V120.982C216.57 120.97 215.141 120.994 213.699 120.97C213.231 120.97 213.158 120.958 212.858 121.162C211.14 122.375 207.392 125.089 206.01 125.918L208.894 115.53H205.109L200.124 133.508L203.908 133.496L205.758 126.831C206.118 127.167 208.005 129.761 208.317 130.181L210.78 133.508L215.97 133.52L213.146 129.917C212.642 129.304 212.197 128.728 211.717 128.128L210.359 126.362C210.6 126.074 211.861 125.293 212.245 125.017L218 121.03Z" fill="#2E4693"/>
<path fill-rule="evenodd" clip-rule="evenodd" d="M25 122.891V125.521C25.1201 125.81 25.1562 126.578 25.2403 126.939C25.853 129.725 27.4628 132.043 30.4422 133.051C32.7969 133.844 33.9862 133.568 35.1996 132.067C36.1727 130.794 36.9296 129.377 37.4582 127.863C34.1664 127.743 31.3793 126.855 29.9737 123.708C27.3547 117.847 31.7277 109.369 35.6561 105.069C36.3409 104.313 37.7105 102.823 38.4914 102.151C38.8518 101.839 39.7889 101.166 40.0411 100.842C39.4405 101.07 37.7706 102.403 37.266 102.811C32.893 106.342 29.397 110.786 27.0664 115.806C26.2975 117.475 25.7328 119.216 25.3604 120.994C25.2403 121.546 25.2283 122.495 25 122.891Z" fill="#EB5B2A"/>
<path fill-rule="evenodd" clip-rule="evenodd" d="M175.94 127.767C175.556 131.01 170.906 132.535 169.188 131.25C168.371 130.638 168.684 128.62 170.69 128.043C171.915 127.695 174.546 127.671 175.94 127.767ZM168.323 133.856H169.897C170.246 133.724 170.93 133.712 171.351 133.616C171.795 133.52 172.228 133.376 172.648 133.208C173.633 132.799 174.078 132.415 174.835 131.923L174.486 133.532L178.355 133.52C178.655 131.358 179.364 129.196 179.929 127.167C180.565 124.945 181.178 122.615 179.1 121.462C177.346 120.477 174.078 120.55 171.976 121.03C170.161 121.438 167.927 122.639 167.494 124.465H171.171C171.964 123.072 172.853 122.663 174.739 122.735C176.841 122.819 176.925 123.828 176.565 125.606C172.889 125.594 168.888 125.473 166.425 127.371C165.572 128.031 164.395 129.785 164.791 131.514C165.308 133.64 167.855 133.64 168.323 133.856Z" fill="#2E4693"/>
<path fill-rule="evenodd" clip-rule="evenodd" d="M128.366 133.496L128.762 133.52H134.373L134.997 133.508L140.175 115.578L139.659 115.566H133.544L128.366 133.496Z" fill="#2E4693"/>
<path fill-rule="evenodd" clip-rule="evenodd" d="M72.346 115.566H65.8586C65.6423 115.614 65.5222 116.298 65.4261 116.658C64.8254 118.808 60.6687 132.931 60.5966 133.52L67.2041 133.532L72.346 115.566Z" fill="#2E4693"/>
<path fill-rule="evenodd" clip-rule="evenodd" d="M106.261 115.566L99.6411 115.578L94.5113 133.52L101.083 133.508L106.261 115.566Z" fill="#2E4693"/>
<path fill-rule="evenodd" clip-rule="evenodd" d="M188.687 120.994H184.902C184.602 121.919 184.434 123.252 184.193 124.272C183.557 126.999 182.175 131.022 181.635 133.544H185.515C186.116 131.49 186.632 129.377 187.245 127.287C188.578 122.759 193.516 122.531 194.597 123.96C195.258 124.837 194.982 126.23 194.681 127.287L192.963 133.532L196.784 133.508C197.228 131.682 197.793 129.809 198.31 127.983C198.802 126.278 199.703 123.972 198.598 122.339C197.637 120.91 195.39 120.501 193.06 120.778C192.098 120.886 191.173 121.174 190.32 121.63C189.371 122.135 188.987 122.579 188.302 123.096L188.687 120.994Z" fill="#2E4693"/>
<path fill-rule="evenodd" clip-rule="evenodd" d="M43.0926 126.506C42.8524 126.915 43.0326 128.392 43.1767 128.836C43.9456 131.238 46.6006 128.668 47.9341 127.647C49.8924 126.134 51.6103 124.297 53.1961 122.459C55.8392 119.397 59.3592 113.692 60.0199 108.444C59.9358 108.552 58.9747 111.122 58.7585 111.59C57.8575 113.5 56.7402 115.301 55.4307 116.983C55.1063 117.403 54.782 117.775 54.4576 118.184C54.1332 118.604 53.7488 118.928 53.4244 119.337C53.088 119.745 52.7036 120.069 52.3312 120.441C49.7963 123.06 46.5526 125.125 43.1287 126.65L43.0926 126.506Z" fill="#EB5B2A"/>
<path fill-rule="evenodd" clip-rule="evenodd" d="M49.3157 99.737C47.4055 100.085 45.8317 101.514 45.0869 102.787C43.6453 105.237 44.4862 107.207 46.901 106.679C48.7751 106.27 50.2288 104.841 51.0337 103.592C52.0909 101.911 52.1029 99.2446 49.3157 99.737Z" fill="white"/>
</g>
<defs>
<clipPath id="clip0_55_18">
<rect width="193" height="36.9774" fill="white" transform="translate(25 96.8788)"/>
</clipPath>
</defs>
</svg>
