<svg width="243" height="230" viewBox="0 0 243 230" fill="none" xmlns="http://www.w3.org/2000/svg">
<path d="M243 0H0V230H243V0Z" fill="white"/>
<g clip-path="url(#clip0_55_65)">
<path d="M161.583 86.0028V114.998L161.214 115.303L160.845 115.609L160.49 115.93L160.151 116.251L159.827 116.571L159.504 116.908L159.196 117.244L158.887 117.58V86.0028H126.471V112.401H123.789V86.0028H91.374V112.447H88.6921V86.0028H56.2783V116.144L48.0011 143.473H55.2762L58.9293 131.374H59.9781L66.0195 143.473H74.8053L68.9482 131.374H82.2348L78.5507 143.473H86.4887L90.1263 131.405H91.8834V131.374H109.578L106.064 143.443H114.079L117.485 131.374H121.092L121.184 143.443H127.904L135.627 131.374H140.682L138.062 143.443H145.954L148.528 131.374H153.09L153.059 132.062L153.075 132.763L153.106 133.436L153.168 134.108L153.214 134.429L153.26 134.749L153.322 135.07L153.384 135.391L153.461 135.712L153.538 136.017L153.63 136.323L153.722 136.628L153.831 136.934L153.939 137.224L154.062 137.514L154.185 137.789L154.324 138.079L154.463 138.354L154.617 138.614L154.771 138.889L154.941 139.149L155.125 139.393L155.31 139.653L155.51 139.882L155.711 140.127L155.911 140.356L156.142 140.585L156.374 140.799L156.667 141.043L156.96 141.288L157.268 141.517L157.591 141.731L157.915 141.945L158.239 142.143L158.578 142.311L158.932 142.494L159.272 142.647L159.626 142.8L159.98 142.937L160.35 143.075L160.719 143.197L161.089 143.304L161.458 143.411L161.827 143.503L162.567 143.671L163.323 143.794L164.063 143.901L164.802 143.993L165.527 144.054L166.236 144.085L166.93 144.115H167.592L168.486 144.101L169.38 144.087L170.29 144.041L171.199 143.995L172.109 143.918L173.018 143.842L173.928 143.75L174.837 143.643L175.762 143.52L176.687 143.383L177.611 143.23L178.536 143.077L179.461 142.909L180.386 142.726L181.311 142.543L182.251 142.329L184.995 131.376H193.999V86.0045H161.583V86.0028ZM59.2838 130.244L59.3299 130.076L59.438 130.244H59.2838ZM87.5214 113.99L87.0597 115.533L82.7433 129.741L82.5738 130.245H68.3931L67.2988 127.923L82.5738 112.447H72.7553L60.8092 125.203L64.678 112.447H57.4341V87.148H87.5214V113.99V113.99ZM95.8911 125.997L95.6598 126.012L95.4441 126.026L95.2128 126.041H94.365L94.103 126.055H93.8564L91.9297 126.041L92.8237 122.771L93.2398 121.152L94.2572 117.348H94.9199L95.2435 117.334H97.0469L97.9564 117.348L98.7887 117.379L99.1581 117.393L99.5125 117.424L99.8517 117.47L100.16 117.516L100.437 117.561L100.699 117.638L100.946 117.714L101.161 117.807L101.346 117.899L101.516 118.021L101.67 118.144L101.793 118.296L101.87 118.419L101.932 118.541L101.993 118.679L102.04 118.831L102.071 118.999L102.087 119.167V119.549L102.071 119.763L102.056 119.977L102.01 120.221L101.964 120.466L101.825 120.985L101.655 121.565L101.486 122.054L101.301 122.528L101.101 122.971L100.885 123.384L100.777 123.567L100.669 123.75L100.546 123.934L100.407 124.101L100.268 124.269L100.129 124.422L99.9752 124.575L99.821 124.712L99.6514 124.835L99.4819 124.972L99.2972 125.079L99.0968 125.202L98.8964 125.308L98.6806 125.401L98.4649 125.493L98.2337 125.57L97.9871 125.662L97.725 125.723L97.4479 125.784L97.1709 125.845L96.8626 125.891L96.5543 125.937L96.2307 125.968L95.8916 125.998L95.8911 125.997ZM117.809 130.244L120.968 119.092L121.092 130.244H117.809ZM122.618 112.402H115.096L109.917 130.244H101.933L102.302 130.091L102.672 129.938L103.026 129.786L103.381 129.618L103.72 129.45L104.044 129.251L104.367 129.068L104.676 128.87L104.984 128.656L105.277 128.442L105.554 128.228L105.831 127.984L106.093 127.754L106.339 127.495L106.586 127.25L106.817 126.975L107.048 126.716L107.264 126.425L107.465 126.15L107.665 125.845L107.85 125.539L108.019 125.234L108.189 124.913L108.343 124.577L108.497 124.241L108.636 123.904L108.759 123.553L108.883 123.187L108.975 122.82L109.083 122.454L109.16 122.056L109.237 121.674L109.345 121.063L109.437 120.483L109.499 119.933L109.545 119.414L109.562 118.894L109.545 118.421L109.531 117.947L109.469 117.504L109.407 117.091L109.299 116.679L109.191 116.297L109.037 115.93L108.868 115.579L108.683 115.228L108.467 114.908L108.221 114.602L108.02 114.388L107.82 114.174L107.604 113.991L107.373 113.823L107.126 113.655L106.88 113.502L106.618 113.365L106.357 113.241L106.08 113.119L105.803 113.027L105.51 112.934L105.217 112.842L104.909 112.766L104.601 112.705L104.292 112.643L103.969 112.598L103.306 112.505L102.643 112.459L101.965 112.414L101.271 112.399H92.5317V87.1497H122.619V112.402L122.618 112.402ZM140.898 130.244H136.383L143.226 119.55L140.898 130.244ZM157.714 112.905L157.698 119.093L157.313 119.627L156.958 120.177L156.604 120.727L156.28 121.277L155.972 121.827L155.664 122.392L155.402 122.942L155.14 123.492L154.893 124.027L154.677 124.577L154.462 125.112L154.277 125.631L154.107 126.15L153.953 126.654L153.814 127.143L153.691 127.632L153.614 127.953L153.537 128.289L153.46 128.61L153.398 128.946L153.337 129.267L153.29 129.588L153.244 129.909L153.213 130.245H148.79L152.566 112.448L139.834 112.433L128.444 130.246H127.611V87.1497H157.714V112.906L157.714 112.905ZM175.071 137.531L174.439 137.638L173.792 137.73L173.145 137.823L172.513 137.899L171.881 137.96L171.249 138.006L170.632 138.037H169.615L169.214 138.022L168.829 137.992L168.444 137.946L168.074 137.885L167.72 137.823L167.365 137.747L167.026 137.655L166.703 137.548L166.379 137.441L166.071 137.303L165.776 137.166L165.483 136.998L165.206 136.83L164.944 136.647L164.698 136.463L164.451 136.249L164.235 136.02L164.02 135.791L163.819 135.531L163.634 135.272L163.465 134.981L163.311 134.691L163.156 134.386L163.033 134.065L162.925 133.714L162.833 133.363L162.74 132.996L162.679 132.614L162.633 132.217L162.602 131.805L162.585 131.377H176.612L175.071 137.533V137.531ZM192.857 130.244H185.274L186.523 125.264H171.325L170.076 130.244H162.724V129.22L162.817 128.793L162.894 128.365L162.986 127.907L163.078 127.448L163.217 126.944L163.356 126.44L163.51 125.936L163.679 125.447L163.864 124.958L164.065 124.469L164.28 123.996L164.496 123.523L164.742 123.049L164.989 122.606L165.251 122.148L165.544 121.72L165.837 121.292L166.13 120.88L166.454 120.483L166.793 120.101L167.147 119.734L167.502 119.398L167.887 119.062L168.272 118.741L168.673 118.451L169.105 118.176L169.536 117.931L169.983 117.702L170.445 117.488L170.923 117.305L171.416 117.152L171.925 117.03L172.449 116.923L172.988 116.846L173.542 116.801L174.113 116.786L174.56 116.801L175.007 116.831L175.454 116.892L175.885 116.985L176.101 117.046L176.302 117.107L176.502 117.168L176.687 117.261L176.871 117.337L177.056 117.444L177.226 117.551L177.395 117.658L177.549 117.795L177.704 117.933L177.842 118.071L177.981 118.239L178.104 118.391L178.213 118.575L178.305 118.773L178.397 118.972L178.474 119.186L178.536 119.415L178.582 119.644L178.628 119.904L178.645 120.163V120.729L178.614 121.034H187.677L187.816 120.408L187.939 119.69L188 119.308L188.031 118.895L188.062 118.483V118.055L188.048 117.612L188.001 117.154L187.955 116.94L187.924 116.711L187.867 116.479L187.805 116.25L187.728 116.005L187.651 115.776L187.559 115.547L187.451 115.318L187.343 115.088L187.204 114.859L187.065 114.63L186.911 114.401L186.726 114.156L186.526 113.927L186.325 113.698L186.11 113.484L185.878 113.27L185.632 113.072L185.385 112.888L185.123 112.705L184.846 112.522L184.569 112.369L184.276 112.216L183.968 112.064L183.66 111.926L183.336 111.788L182.997 111.666L182.658 111.544L182.318 111.437L181.949 111.345L181.595 111.252L181.209 111.16L180.824 111.083L180.439 111.007L180.038 110.946L179.622 110.9L178.774 110.808L177.911 110.731L177.001 110.7L176.077 110.686L175.383 110.7L174.659 110.715L173.903 110.761L173.117 110.822L172.3 110.914L171.468 111.021L170.62 111.159L169.757 111.342L169.325 111.434L168.879 111.541L168.447 111.664L168 111.786L167.553 111.923L167.106 112.076L166.659 112.229L166.227 112.397L165.78 112.58L165.333 112.779L164.902 112.977L164.455 113.191L164.023 113.42L163.591 113.665L163.16 113.909L162.728 114.184V87.148H192.86V130.243L192.857 130.244Z" fill="#003087"/>
</g>
<defs>
<clipPath id="clip0_55_65">
<rect width="146" height="58.1157" fill="white" transform="translate(48 86)"/>
</clipPath>
</defs>
</svg>
