<svg width="243" height="230" viewBox="0 0 243 230" fill="none" xmlns="http://www.w3.org/2000/svg">
<path d="M243 0H0V230H243V0Z" fill="white"/>
<g clip-path="url(#clip0_55_137)">
<path d="M175.779 156.944V157.168H175.988C176.027 157.168 176.066 157.159 176.1 157.139C176.128 157.12 176.144 157.087 176.142 157.053C176.144 157.02 176.128 156.988 176.1 156.97C176.067 156.95 176.027 156.94 175.988 156.941H175.779V156.944ZM175.99 156.785C176.08 156.78 176.168 156.805 176.241 156.858C176.301 156.906 176.333 156.98 176.329 157.056C176.332 157.122 176.306 157.185 176.259 157.23C176.203 157.279 176.132 157.308 176.058 157.314L176.338 157.633H176.123L175.865 157.316H175.782V157.633H175.601V156.786H175.99V156.785ZM175.934 157.925C176.029 157.926 176.123 157.907 176.209 157.869C176.293 157.833 176.369 157.781 176.433 157.717C176.498 157.653 176.549 157.577 176.585 157.493C176.658 157.315 176.658 157.116 176.585 156.939C176.549 156.855 176.497 156.779 176.433 156.715C176.369 156.65 176.293 156.599 176.209 156.563C176.122 156.527 176.029 156.509 175.934 156.51C175.839 156.509 175.744 156.527 175.654 156.563C175.569 156.598 175.492 156.65 175.425 156.715C175.223 156.922 175.164 157.231 175.276 157.499C175.31 157.583 175.361 157.659 175.425 157.723C175.492 157.788 175.569 157.839 175.654 157.874C175.743 157.912 175.838 157.931 175.934 157.93M175.934 156.306C176.18 156.306 176.417 156.403 176.592 156.575C176.677 156.658 176.744 156.757 176.791 156.866C176.887 157.092 176.887 157.348 176.791 157.574C176.744 157.683 176.676 157.781 176.592 157.865C176.507 157.947 176.406 158.014 176.297 158.061C176.182 158.109 176.059 158.134 175.934 158.134C175.808 158.135 175.684 158.109 175.567 158.061C175.457 158.015 175.356 157.948 175.27 157.865C175.186 157.778 175.12 157.676 175.074 157.565C174.978 157.338 174.978 157.083 175.074 156.856C175.121 156.747 175.188 156.649 175.273 156.566C175.357 156.481 175.459 156.414 175.57 156.37C175.686 156.321 175.811 156.296 175.937 156.297" fill="#231F20"/>
<path d="M90.1979 153.035C90.1979 151.42 91.2562 150.093 92.9858 150.093C94.7155 150.093 95.7541 151.363 95.7541 153.035C95.7541 154.708 94.6387 155.978 92.9858 155.978C91.3329 155.978 90.1979 154.651 90.1979 153.035M97.6383 153.035V148.438H95.6399V149.558C95.0061 148.731 94.0447 148.212 92.7372 148.212C90.1615 148.212 88.1402 150.232 88.1402 153.038C88.1402 155.843 90.1604 157.864 92.7372 157.864C94.0441 157.864 95.0061 157.344 95.6399 156.517V157.633H97.6361V153.035H97.6383V153.035Z" fill="#231F20"/>
<path d="M165.161 153.035C165.161 151.42 166.22 150.093 167.95 150.093C169.68 150.093 170.718 151.363 170.718 153.035C170.718 154.708 169.604 155.978 167.95 155.978C166.295 155.978 165.161 154.651 165.161 153.035ZM172.604 153.035V144.748H170.604V149.558C169.97 148.731 169.009 148.212 167.701 148.212C165.126 148.212 163.104 150.232 163.104 153.038C163.104 155.843 165.124 157.864 167.701 157.864C169.009 157.864 169.97 157.344 170.604 156.517V157.633H172.604V153.035V153.035Z" fill="#231F20"/>
<path d="M122.441 149.998C123.729 149.998 124.556 150.806 124.767 152.227H119.999C120.212 150.9 121.018 149.998 122.442 149.998M122.481 148.207C119.788 148.207 117.904 150.166 117.904 153.033C117.904 155.899 119.864 157.859 122.615 157.859C123.999 157.859 125.267 157.513 126.382 156.571L125.403 155.09C124.633 155.706 123.652 156.051 122.729 156.051C121.441 156.051 120.269 155.455 119.981 153.8H126.805C126.824 153.552 126.844 153.301 126.844 153.032C126.824 150.167 125.052 148.206 122.48 148.206" fill="#231F20"/>
<path d="M146.607 153.032C146.607 151.417 147.666 150.09 149.395 150.09C151.125 150.09 152.164 151.36 152.164 153.032C152.164 154.705 151.048 155.974 149.395 155.974C147.742 155.974 146.607 154.647 146.607 153.032M154.047 153.032V148.438H152.05V149.558C151.414 148.731 150.455 148.212 149.147 148.212C146.572 148.212 144.55 150.232 144.55 153.038C144.55 155.843 146.571 157.864 149.147 157.864C150.455 157.864 151.414 157.344 152.05 156.517V157.633H154.048V153.032H154.047Z" fill="#231F20"/>
<path d="M135.322 153.032C135.322 155.82 137.263 157.858 140.225 157.858C141.609 157.858 142.531 157.55 143.529 156.762L142.569 155.147C141.818 155.686 141.031 155.974 140.161 155.974C138.566 155.955 137.393 154.801 137.393 153.032C137.393 151.263 138.566 150.11 140.161 150.09C141.028 150.09 141.816 150.378 142.569 150.917L143.529 149.302C142.53 148.514 141.607 148.206 140.225 148.206C137.263 148.206 135.322 150.244 135.322 153.032" fill="#231F20"/>
<path d="M161.085 148.206C159.932 148.206 159.181 148.745 158.662 149.553V148.438H156.681V157.628H158.682V152.477C158.682 150.956 159.335 150.111 160.642 150.111C161.069 150.105 161.494 150.183 161.891 150.342L162.507 148.459C162.065 148.284 161.488 148.208 161.083 148.208" fill="#231F20"/>
<path d="M107.518 149.169C106.557 148.535 105.232 148.208 103.771 148.208C101.442 148.208 99.9435 149.324 99.9435 151.15C99.9435 152.648 101.059 153.572 103.114 153.861L104.058 153.995C105.154 154.149 105.672 154.437 105.672 154.956C105.672 155.667 104.944 156.072 103.577 156.072C102.21 156.072 101.194 155.63 100.52 155.111L99.5813 156.669C100.677 157.477 102.061 157.862 103.56 157.862C106.214 157.862 107.752 156.612 107.752 154.862C107.752 153.247 106.542 152.402 104.542 152.114L103.6 151.977C102.735 151.865 102.042 151.691 102.042 151.075C102.042 150.403 102.695 149.999 103.791 149.999C104.964 149.999 106.1 150.441 106.657 150.787L107.522 149.171L107.518 149.169V149.169Z" fill="#231F20"/>
<path d="M133.304 148.209C132.151 148.209 131.4 148.749 130.883 149.556V148.438H128.903V157.628H130.901V152.477C130.901 150.956 131.554 150.111 132.861 150.111C133.288 150.105 133.713 150.183 134.11 150.342L134.726 148.458C134.284 148.284 133.707 148.208 133.302 148.208" fill="#231F20"/>
<path d="M116.25 148.438H112.983V145.65H110.962V148.438H109.098V150.265H110.962V154.457C110.962 156.589 111.79 157.859 114.154 157.859C115.021 157.859 116.02 157.59 116.654 157.149L116.077 155.437C115.481 155.783 114.827 155.957 114.307 155.957C113.309 155.957 112.983 155.341 112.983 154.419V150.267H116.25V148.438V148.438Z" fill="#231F20"/>
<path d="M86.3731 157.63V151.863C86.3731 149.691 84.9889 148.23 82.7576 148.21C81.5846 148.19 80.3745 148.555 79.5274 149.845C78.8935 148.826 77.8946 148.21 76.4903 148.21C75.5088 148.21 74.5496 148.498 73.7987 149.574V148.438H71.7987V157.628H73.8144V152.533C73.8144 150.937 74.6991 150.09 76.0653 150.09C77.4316 150.09 78.0637 150.955 78.0637 152.512V157.627H80.0839V152.531C80.0839 150.936 81.0061 150.088 82.3326 150.088C83.6591 150.088 84.3484 150.954 84.3484 152.511V157.626L86.3731 157.63V157.63Z" fill="#231F20"/>
<path d="M176.919 127.061V125.717H176.569L176.164 126.64L175.761 125.717H175.41V127.061H175.659V126.049L176.037 126.922H176.295L176.674 126.047V127.061H176.919ZM174.699 127.061V125.948H175.147V125.721H174.002V125.948H174.45V127.061H174.699Z" fill="#F79410"/>
<path d="M137.143 132.825H106.859V78.3995H137.144V132.825H137.143Z" fill="#FF5F00"/>
<path d="M108.779 105.613C108.779 94.5727 113.948 84.7381 121.997 78.4003C115.904 73.5961 108.368 70.9885 100.609 70.9997C81.4944 70.9997 66 86.4963 66 105.613C66 124.729 81.4944 140.226 100.609 140.226C108.368 140.238 115.905 137.63 121.998 132.825C113.949 126.489 108.779 116.654 108.779 105.613" fill="#EB001B"/>
<path d="M178 105.613C178 124.73 162.506 140.226 143.391 140.226C135.631 140.238 128.093 137.63 121.999 132.826C130.051 126.488 135.22 116.654 135.22 105.613C135.22 94.5725 130.051 84.7385 121.999 78.4006C128.093 73.5964 135.631 70.9888 143.391 71C162.505 71 177.999 86.4967 177.999 105.613" fill="#F79E1B"/>
</g>
<defs>
<clipPath id="clip0_55_137">
<rect width="112" height="87.1341" fill="white" transform="translate(66 71)"/>
</clipPath>
</defs>
</svg>
