<svg width="243" height="230" viewBox="0 0 243 230" fill="none" xmlns="http://www.w3.org/2000/svg">
<path d="M243 0H0V230H243V0Z" fill="white"/>
<path fill-rule="evenodd" clip-rule="evenodd" d="M121.665 98.8313L122.537 98.332L133.449 105.814L121.665 98.8313V98.8313ZM121.038 98.4323L120.227 97.9654L121.131 83.6858L121.038 98.4323V98.4323ZM120.061 98.3837L116.445 101.376L120.778 98.8201L120.061 98.3837Z" fill="black"/>
<path fill-rule="evenodd" clip-rule="evenodd" d="M121.259 79.4529C110.497 79.4529 101.772 88.177 101.772 98.9396C101.772 109.702 110.497 118.426 121.259 118.426C132.021 118.426 140.747 109.702 140.747 98.9396C140.747 88.177 132.021 79.4529 121.259 79.4529ZM121.261 117.387C116.808 117.387 112.641 115.903 109.536 113.178C106.515 110.525 104.169 106.309 103.59 101.828C104.963 110.349 112.352 116.859 121.261 116.859C131.146 116.859 139.161 108.845 139.161 98.9589C139.161 94.8576 137.629 90.8413 135.308 87.8236C137.659 89.6373 139.689 94.8029 139.689 98.9589C139.689 109.136 131.438 117.387 121.261 117.387ZM119.569 97.5513L121.144 81.3942L121.259 81.3932H121.299L121.454 98.3958L124.166 96.7746L121.438 81.3952C131.046 81.4914 138.807 89.3082 138.807 98.9396C138.807 102.034 138.005 104.941 136.6 107.464L124.42 97.2738L123.267 97.928L136.517 107.61L136.415 107.784L121.515 99.2121V102.236L136.313 107.955C133.246 113.065 127.652 116.486 121.258 116.486C114.871 116.486 109.281 113.072 106.213 107.971L121.002 102.204V99.1817L106.084 107.754L105.986 107.584L119.189 97.928L118.035 97.2738L105.89 107.411C104.457 104.817 103.708 101.902 103.712 98.9396C103.712 89.3841 111.351 81.6129 120.855 81.3972L118.478 96.8971L119.569 97.5513ZM121.259 80.5C111.08 80.5 102.83 88.7512 102.83 98.9285C102.83 103.062 104.33 106.972 106.618 110.349C107.393 111.801 108.233 112.699 109.353 113.885C104.964 110.379 102.124 104.982 102.124 98.9275C102.124 88.3603 110.691 79.7931 121.259 79.7931C131.827 79.7931 140.556 88.733 140.242 98.9275C139.977 88.9811 131.269 80.5 121.259 80.5Z" fill="black"/>
<path d="M51.2886 134.279L51.3372 133.509H55.7585L60.2791 145.339L64.7996 133.509H69.1764V134.279H68.263C67.7819 134.279 67.3009 134.759 67.3009 135.192L67.5419 148.08C67.5419 148.754 68.1678 149.042 68.6964 149.042H69.4174V149.812H63.31V149.042H64.3196C64.993 149.042 65.4265 148.465 65.4265 148.033L65.1855 135.385L59.9439 148.994H59.4153L54.2213 135.529L53.9813 148.033C53.9813 148.85 54.4137 149.042 55.0395 149.042H55.8568V149.812H51L51.0486 149.042H51.7696C52.7317 149.042 52.9727 148.514 52.9727 148.033L53.2127 135C53.2127 134.326 52.5382 134.279 52.0096 134.279H51.2886Z" fill="black"/>
<path d="M85.1664 149.197V149.822V149.823H79.539V149.198H80.2124C80.6459 149.198 81.4155 149.054 81.4155 148.188V140.301C81.4155 139.82 81.6069 138.81 79.5876 138.907V138.426C80.5518 138.369 81.5051 138.191 82.4251 137.897C82.9061 137.753 83.0985 138.186 83.1461 138.618C83.1937 139.05 83.5401 139.202 83.8196 138.81C84.0596 138.473 84.9254 137.8 85.9836 137.8C87.3305 137.8 88.0981 138.426 88.1953 139.771C88.2925 141.117 87.6191 141.214 87.0895 141.262C86.5598 141.31 85.935 140.829 86.0312 140.108C86.1284 139.387 85.8874 139.194 85.5026 139.194C84.493 139.194 83.4834 139.915 83.4834 141.887V148.187C83.4834 149.053 84.253 149.197 84.6854 149.197H85.1664Z" fill="black"/>
<path d="M93.1948 137.718C94.2794 137.718 95.1705 138.014 95.8794 138.532L96.5133 137.559H97.042V141.598H96.4171C96.4171 140.011 95.2141 138.616 93.2434 138.616C90.9356 138.616 90.7908 142.849 90.7908 143.907C90.7432 145.589 90.9356 149.114 93.6758 149.053C95.8399 149.004 96.1761 146.791 96.2723 145.83L97.3994 145.835C96.8982 148.428 96.1761 150.111 93.1948 150.096C89.8277 150.079 88.3654 147.325 88.3654 143.907C88.3654 140.488 90.1173 137.718 93.1948 137.718Z" fill="black"/>
<path d="M146.926 141.832V142.938H140.58V141.832H146.926Z" fill="black"/>
<path d="M131.835 149.821V145.735H132.317C132.751 148.187 134.576 149.005 135.731 149.005C136.885 149.005 137.605 148.234 137.991 147.562C138.375 146.888 138.039 145.734 137.462 145.445C136.885 145.157 135.922 144.627 133.855 143.762C131.787 142.896 131.547 140.781 132.411 139.434C133.277 138.087 134.817 137.606 135.73 137.606C136.643 137.606 137.077 137.703 138.085 138.376L138.615 137.463H139.096V141.309H138.568C138.374 139.818 137.605 138.52 136.066 138.567C134.528 138.616 133.855 139.433 133.711 140.203C133.66 140.532 133.716 140.869 133.872 141.164C134.028 141.458 134.275 141.695 134.575 141.838C135.543 142.322 136.798 143.028 138.23 143.618C139.866 144.291 140.202 146.504 139.482 147.85C138.76 149.196 136.932 149.917 135.633 149.917C134.335 149.917 133.325 149.196 132.844 148.763L132.363 149.821H131.835Z" fill="black"/>
<path d="M178.685 148.187V141.07C178.685 140.156 178.348 138.858 176.374 139.002C174.403 139.147 174.017 140.831 174.017 141.888V148.188C174.017 149.054 174.786 149.198 175.22 149.198H175.701V149.823H170.076V149.198H170.748C171.181 149.198 171.951 149.054 171.951 148.188V140.301C171.951 139.82 172.142 138.81 170.123 138.907V138.426C171.087 138.369 172.04 138.191 172.96 137.897C173.443 137.753 173.634 138.186 173.682 138.618C173.729 139.05 174.076 139.202 174.356 138.81C174.595 138.473 175.751 137.8 176.809 137.8C177.818 137.8 180.704 137.896 180.751 141.118V148.187C180.751 149.053 181.521 149.197 181.954 149.197H182.435V149.822H177.194V149.197H177.482C177.916 149.197 178.685 149.053 178.685 148.187Z" fill="black"/>
<path d="M184.416 138.041L183.55 141.311H184.031C185.234 138.714 186.098 138.714 186.868 138.714H189.995L183.02 149.822H191.389L192.159 146.6H191.773C190.86 148.813 190.186 149.15 189.32 149.15H185.57L192.592 138.041H184.416Z" fill="black"/>
<path fill-rule="evenodd" clip-rule="evenodd" d="M118.696 147.311V133.893C118.696 133.34 118.409 132.882 117.926 133.027C117.007 133.321 116.054 133.499 115.09 133.556V134.037C116.484 133.94 116.629 134.374 116.629 134.855V138.991C116.004 138.413 115.282 137.836 113.985 137.836C112.349 137.836 109.32 139.134 109.32 143.703C109.32 149.715 112.83 150.099 113.889 150.099C114.947 150.099 116.341 149.234 116.63 148.776C116.653 148.68 116.798 148.559 116.846 148.776C116.895 149.209 117.207 149.858 117.688 149.714C118.608 149.42 119.561 149.242 120.525 149.185V148.704C118.656 148.794 118.68 147.936 118.694 147.427C118.695 147.386 118.696 147.347 118.696 147.311ZM114.033 149.33C115.187 149.33 116.581 148.512 116.629 145.868H116.63V143.222C116.63 141.731 116.438 139.231 114.08 138.942C111.725 138.653 111.627 141.971 111.627 143.655C111.627 143.756 111.627 143.866 111.626 143.983C111.614 145.8 111.592 149.285 114.033 149.33Z" fill="black"/>
<path fill-rule="evenodd" clip-rule="evenodd" d="M108.223 143.956C108.223 140.538 106.712 137.767 103.394 137.767C100.315 137.767 98.564 140.538 98.564 143.956C98.564 147.374 100.027 150.144 103.394 150.144C106.664 150.144 107.625 148.524 108.128 145.932L107.001 145.928C106.905 146.889 106.279 149.055 103.875 149.102C101.134 149.158 100.943 145.64 100.989 143.957H108.223V143.956ZM101.037 142.884C101.034 141.736 101.025 138.811 103.49 138.811C105.509 138.811 105.797 141.409 105.797 142.995H101.037C101.037 142.96 101.037 142.923 101.037 142.884Z" fill="black"/>
<path fill-rule="evenodd" clip-rule="evenodd" d="M74.8757 149.101C72.1354 149.157 71.943 145.639 71.9906 143.956H79.2241C79.2241 140.538 77.7132 137.767 74.3957 137.767C71.3172 137.767 69.5663 140.538 69.5663 143.956C69.5663 147.374 71.0285 150.144 74.3957 150.144C77.6656 150.144 78.6276 148.524 79.1289 145.932L78.0018 145.928C77.9056 146.889 77.2808 149.055 74.8757 149.101ZM76.7987 142.994C76.7987 141.408 76.5111 138.81 74.4909 138.81C72.0267 138.81 72.0348 141.735 72.038 142.883C72.0381 142.922 72.0382 142.959 72.0382 142.994H76.7987Z" fill="black"/>
<path fill-rule="evenodd" clip-rule="evenodd" d="M158.275 137.26C158.275 138.654 157.121 140.722 155.965 141.011C158.275 141.492 159.045 143.367 159.045 144.955C158.947 149.667 154.859 149.812 153.081 149.812H147.165V149.139C149.089 149.139 149.137 148.033 149.137 147.359V135.481C149.137 134.279 147.887 134.134 147.165 134.134V133.509H154.378C157.745 133.509 158.275 135.866 158.275 137.26ZM153.657 149.042H151.204V141.684H153.946C155.534 141.684 156.928 142.79 156.928 145.194C156.928 147.599 155.484 149.042 153.657 149.042ZM153.61 134.279H151.204V140.915H153.61C155.485 140.915 156.11 139.328 156.11 137.26C156.11 135.576 155.39 134.279 153.61 134.279Z" fill="black"/>
<path fill-rule="evenodd" clip-rule="evenodd" d="M165.451 149.101C162.709 149.157 162.518 145.639 162.565 143.956H169.798C169.798 140.538 168.289 137.767 164.97 137.767C161.892 137.767 160.141 140.538 160.141 143.956C160.141 147.374 161.603 150.144 164.97 150.144C168.24 150.144 169.203 148.524 169.703 145.932L168.578 145.927C168.481 146.889 167.856 149.055 165.451 149.101ZM167.375 142.994C167.375 141.408 167.086 138.81 165.067 138.81C162.602 138.81 162.611 141.733 162.614 142.882C162.614 142.921 162.614 142.959 162.614 142.994H167.375Z" fill="black"/>
<path fill-rule="evenodd" clip-rule="evenodd" d="M125.915 149.101C123.174 149.157 122.982 145.639 123.029 143.956H130.263C130.263 140.538 128.752 137.767 125.434 137.767C122.357 137.767 120.604 140.538 120.604 143.956C120.604 147.374 122.067 150.144 125.434 150.144C128.704 150.144 129.665 148.524 130.167 145.932L129.04 145.927C128.945 146.889 128.32 149.055 125.915 149.101ZM127.837 142.994C127.837 141.408 127.551 138.81 125.529 138.81C123.065 138.81 123.073 141.736 123.076 142.884C123.077 142.923 123.077 142.959 123.077 142.994H127.837Z" fill="black"/>
</svg>
