<svg width="243" height="230" viewBox="0 0 243 230" fill="none" xmlns="http://www.w3.org/2000/svg">
<path d="M243 0H0V230H243V0Z" fill="white"/>
<g clip-path="url(#clip0_55_276)">
<path d="M208.628 125.526C207.279 127.006 205.49 128.014 203.525 128.402C202.222 128.686 200.881 128.759 199.555 128.617C197.773 128.447 196.077 127.774 194.664 126.675C193.501 125.809 192.534 124.706 191.83 123.438C191.275 122.456 190.891 121.386 190.696 120.274C190.41 118.718 190.483 117.117 190.909 115.594C191.332 113.855 192.244 112.273 193.538 111.037C194.832 109.801 196.453 108.961 198.209 108.617C200.202 108.198 202.264 108.247 204.234 108.761C205.655 109.091 206.956 109.812 207.991 110.842C208.671 111.447 209.224 112.18 209.62 113C210.115 113.978 210.336 115.071 210.258 116.164H203.738C203.601 115.309 203.145 114.537 202.462 114.006C202.039 113.652 201.513 113.447 200.962 113.421C200.412 113.395 199.868 113.55 199.414 113.862C198.776 114.264 198.299 114.877 198.067 115.595C197.512 117.322 197.487 119.176 197.996 120.918C198.188 121.657 198.58 122.329 199.13 122.859C199.436 123.158 199.805 123.384 200.209 123.521C200.614 123.657 201.045 123.702 201.469 123.65C201.988 123.574 202.464 123.32 202.816 122.93C203.191 122.505 203.437 121.981 203.525 121.42C203.607 121.042 203.655 120.656 203.667 120.269H210.542C210.611 121.229 210.477 122.193 210.148 123.097C209.82 124.002 209.304 124.827 208.635 125.519" fill="#0056A8"/>
<path d="M189.489 101H182.402V106.107H189.489V101Z" fill="#0056A8"/>
<path d="M189.489 108.695H182.402V128.043H189.489V108.695Z" fill="#0056A8"/>
<path d="M167.59 110.781C168.461 109.964 169.468 109.307 170.567 108.839C172.309 107.983 174.314 107.829 176.166 108.408C177.177 108.697 178.097 109.238 178.841 109.98C179.585 110.722 180.128 111.642 180.419 112.652C180.699 113.609 180.842 114.601 180.844 115.599V128.041H173.256V116.823C173.243 116.46 173.196 116.098 173.113 115.744C173.027 115.44 172.872 115.16 172.662 114.923C172.452 114.687 172.192 114.5 171.9 114.378C171.253 114.1 170.526 114.07 169.858 114.296C169.191 114.522 168.63 114.986 168.285 115.601C168.005 116.106 167.858 116.676 167.861 117.254V128.043H160.56V108.696H167.436L167.59 110.781Z" fill="#0056A8"/>
<path d="M83.3863 110.781C84.2569 109.964 85.2645 109.307 86.363 108.839C88.1052 107.983 90.1097 107.829 91.9626 108.408C92.9731 108.697 93.8936 109.238 94.6375 109.98C95.3814 110.722 95.9243 111.642 96.2152 112.652C96.4948 113.609 96.6378 114.601 96.6399 115.599V128.041H89.1264V116.823C89.1139 116.46 89.0663 116.098 88.9842 115.744C88.8974 115.44 88.7432 115.16 88.5331 114.923C88.3231 114.687 88.0625 114.5 87.7707 114.378C87.1236 114.1 86.3963 114.07 85.7289 114.296C85.0614 114.522 84.5012 114.986 84.1561 115.601C83.8752 116.106 83.729 116.676 83.7313 117.254V128.043H76.3704V108.696H83.2459L83.3863 110.781Z" fill="#0056A8"/>
<path d="M128.324 120.923C128.851 121.008 129.372 121.128 129.884 121.282C130.089 121.359 130.273 121.485 130.421 121.647C130.569 121.809 130.677 122.004 130.735 122.216C130.788 122.444 130.784 122.681 130.724 122.907C130.663 123.133 130.548 123.34 130.388 123.511C130.047 123.863 129.598 124.091 129.112 124.158C128.47 124.3 127.8 124.224 127.205 123.943C126.92 123.818 126.657 123.648 126.425 123.44C126.088 123.202 125.858 122.84 125.787 122.433C125.705 122.103 125.658 121.765 125.645 121.425H118.698V121.857C118.676 122.499 118.794 123.137 119.045 123.728C119.386 124.623 119.918 125.433 120.605 126.101C121.502 126.958 122.598 127.576 123.795 127.899C126.259 128.606 128.845 128.778 131.38 128.402C132.576 128.236 133.73 127.846 134.781 127.25C135.256 127.004 135.707 126.714 136.128 126.384C137.043 125.625 137.708 124.609 138.037 123.468C138.365 122.326 138.343 121.112 137.971 119.983C137.707 119.126 137.217 118.356 136.553 117.754C135.643 116.93 134.55 116.335 133.363 116.02C133.079 115.949 132.867 115.876 132.583 115.805C131.168 115.384 129.722 115.071 128.259 114.871C127.835 114.8 127.479 114.727 127.126 114.656C126.958 114.617 126.792 114.569 126.63 114.512C126.526 114.464 126.433 114.397 126.356 114.313C126.278 114.229 126.218 114.131 126.179 114.024C126.139 113.917 126.121 113.804 126.126 113.69C126.13 113.576 126.157 113.464 126.205 113.361V113.295C126.295 113.093 126.432 112.916 126.604 112.778C126.777 112.641 126.98 112.547 127.197 112.504C127.964 112.276 128.784 112.301 129.535 112.575C129.898 112.695 130.212 112.928 130.43 113.24C130.649 113.553 130.761 113.928 130.749 114.309H137.482C137.486 113.522 137.342 112.741 137.058 112.007C136.805 111.243 136.337 110.569 135.711 110.065C135.179 109.635 134.58 109.295 133.939 109.058C133.301 108.791 132.635 108.598 131.954 108.482C130.387 108.208 128.794 108.111 127.205 108.194C126.293 108.227 125.388 108.372 124.511 108.626C123.297 108.901 122.159 109.441 121.179 110.209C120.349 110.88 119.733 111.78 119.408 112.797C119.279 113.27 119.184 113.75 119.123 114.236C119.05 115.051 119.197 115.871 119.548 116.609C119.79 117.282 120.176 117.893 120.677 118.402C121.179 118.911 121.785 119.305 122.454 119.557C123.117 119.837 123.805 120.054 124.51 120.203C125.572 120.418 126.848 120.706 128.337 120.923" fill="#0056A8"/>
<path d="M44.971 119.701H40.0804V113.371H43.2703C43.8381 113.385 44.4063 113.361 44.971 113.3C45.371 113.278 45.7617 113.171 46.1164 112.985C46.4712 112.799 46.7818 112.538 47.027 112.222C47.2921 111.889 47.4633 111.492 47.5229 111.071C47.5937 110.715 47.5937 110.348 47.5229 109.992C47.47 109.318 47.1617 108.689 46.661 108.235C46.1603 107.78 45.505 107.534 44.8288 107.546H40.0804V128.116H32V101H45.2553C45.7527 100.988 46.2504 101.011 46.7445 101.071C48.4284 101.15 50.057 101.696 51.4476 102.649C52.8382 103.602 53.9356 104.924 54.6169 106.466C55.3892 108.05 55.6849 109.824 55.4681 111.573C55.2896 113.428 54.5281 115.179 53.2929 116.574C52.0576 117.97 50.4121 118.938 48.5925 119.34C47.406 119.602 46.1927 119.722 44.9779 119.699" fill="#0056A8"/>
<path d="M151.147 108.337C150.444 108.219 149.732 108.171 149.02 108.193C148.308 108.202 147.598 108.251 146.892 108.337C144.789 108.631 142.843 109.618 141.364 111.142C139.703 112.735 138.693 114.888 138.529 117.183C138.398 118.583 138.515 119.995 138.876 121.354C139.397 123.449 140.621 125.302 142.343 126.604C143.44 127.484 144.726 128.1 146.1 128.402C147.079 128.608 148.077 128.704 149.077 128.689C150.076 128.701 151.074 128.604 152.053 128.402C153.438 128.131 154.731 127.512 155.81 126.604L151.7 122.072C151.548 122.414 151.33 122.722 151.059 122.979C150.788 123.237 150.469 123.438 150.12 123.572C149.771 123.705 149.399 123.769 149.026 123.758C148.652 123.748 148.284 123.664 147.943 123.511C147.307 123.226 146.801 122.712 146.525 122.072C146.262 121.474 146.071 120.846 145.958 120.202C145.769 118.912 145.793 117.6 146.029 116.318C146.139 115.642 146.406 115.002 146.809 114.448C147.058 114.063 147.399 113.748 147.802 113.529C148.204 113.31 148.654 113.196 149.112 113.196C149.57 113.196 150.021 113.31 150.423 113.529C150.825 113.748 151.166 114.063 151.415 114.448C151.789 115.017 152.054 115.652 152.196 116.318C152.467 117.596 152.491 118.915 152.267 120.202C152.176 120.851 151.985 121.482 151.7 122.072L155.81 126.604C157.532 125.302 158.756 123.449 159.277 121.354C159.676 120.002 159.794 118.583 159.624 117.183C159.46 114.888 158.45 112.735 156.79 111.142C155.237 109.64 153.255 108.659 151.119 108.337" fill="#0056A8"/>
<path d="M117.691 126.531C117.549 124.948 117.549 123.584 117.478 121.999C117.407 119.919 117.407 118.116 117.407 116.03C117.41 114.961 117.267 113.897 116.982 112.867C116.822 112.182 116.517 111.54 116.09 110.982C115.662 110.424 115.121 109.963 114.501 109.63C113.779 109.205 112.987 108.912 112.163 108.763C109.554 108.176 106.853 108.128 104.225 108.619C103.494 108.758 102.781 108.975 102.097 109.266C101.289 109.598 100.564 110.106 99.9761 110.753C99.3879 111.4 98.9507 112.169 98.696 113.005C98.4816 113.654 98.4089 114.341 98.4827 115.02C98.4827 115.164 98.5538 115.235 98.5538 115.379L104.934 115.523C104.941 115.135 104.989 114.749 105.076 114.371C105.177 114.092 105.338 113.837 105.547 113.626C105.757 113.415 106.01 113.252 106.289 113.149C107.108 112.839 108.007 112.814 108.841 113.078C109.122 113.162 109.375 113.32 109.574 113.535C109.774 113.75 109.912 114.014 109.975 114.3C110.041 114.466 110.063 114.646 110.038 114.823C110.013 115 109.942 115.167 109.833 115.308C109.65 115.557 109.406 115.755 109.124 115.883C108.91 115.954 108.777 116.027 108.557 116.098C107.636 116.313 106.927 116.53 106.005 116.674C105.296 116.818 104.658 116.889 103.949 117.033C102.957 117.248 102.177 117.464 101.255 117.752C100.428 117.997 99.6734 118.442 99.0583 119.047C98.2154 119.821 97.6644 120.862 97.498 121.994C97.3799 122.735 97.404 123.492 97.5691 124.224C97.7619 125.185 98.2138 126.075 98.876 126.797C99.5382 127.52 100.385 128.048 101.326 128.324C103.4 128.95 105.626 128.848 107.635 128.036C108.6 127.629 109.449 126.99 110.107 126.176L109.687 122.863C109.388 123.349 108.941 123.727 108.411 123.941C107.936 124.151 107.435 124.296 106.922 124.373C106.491 124.436 106.052 124.386 105.646 124.229C105.288 124.135 104.967 123.934 104.726 123.653C104.517 123.432 104.37 123.159 104.301 122.863C104.261 122.629 104.279 122.388 104.353 122.163C104.427 121.937 104.555 121.733 104.726 121.568C104.969 121.375 105.23 121.207 105.506 121.065C106.199 120.782 106.91 120.542 107.633 120.345C108.499 120.077 109.35 119.766 110.185 119.411C110.256 120.081 110.256 120.756 110.185 121.426C110.127 121.913 109.957 122.381 109.689 122.792L110.114 126.099C110.256 126.602 110.398 126.966 110.538 127.394C110.611 127.63 110.728 127.85 110.885 128.041H117.974C117.903 127.538 117.761 127.107 117.69 126.531" fill="#0056A8"/>
<path d="M74.9522 126.531C74.8101 124.948 74.8101 123.584 74.739 121.999C74.6679 119.919 74.6679 118.116 74.6679 116.03C74.6709 114.961 74.528 113.897 74.2432 112.867C74.0826 112.182 73.7784 111.54 73.3507 110.982C72.923 110.424 72.3816 109.963 71.7624 109.63C71.0402 109.205 70.2484 108.912 69.4237 108.763C66.8149 108.176 64.1139 108.128 61.4855 108.619C60.7554 108.758 60.0423 108.975 59.3583 109.266C58.5498 109.598 57.8253 110.106 57.2371 110.753C56.6489 111.4 56.2116 112.169 55.9569 113.005C55.7426 113.654 55.6699 114.341 55.7437 115.02C55.7437 115.164 55.8148 115.235 55.8148 115.379L62.1945 115.523C62.2024 115.135 62.25 114.749 62.3367 114.371C62.4376 114.092 62.5985 113.837 62.8082 113.626C63.0178 113.415 63.2711 113.252 63.5502 113.149C64.3685 112.839 65.2677 112.814 66.1021 113.078C66.3828 113.162 66.6359 113.32 66.8353 113.535C67.0346 113.75 67.1729 114.014 67.2359 114.3C67.3021 114.466 67.3238 114.646 67.2989 114.823C67.274 115 67.2032 115.167 67.0937 115.308C66.9106 115.557 66.6665 115.755 66.3847 115.883C66.1714 115.954 66.038 116.027 65.8178 116.098C64.8955 116.313 64.1882 116.53 63.2659 116.674C62.5568 116.818 61.9189 116.889 61.2098 117.033C60.2182 117.248 59.4381 117.464 58.5158 117.752C57.6886 117.997 56.9344 118.442 56.3193 119.047C55.4714 119.808 54.94 120.86 54.8301 121.994C54.712 122.735 54.7361 123.492 54.9012 124.224C55.0939 125.185 55.5459 126.075 56.208 126.797C56.8702 127.52 57.7174 128.048 58.6579 128.324C60.7321 128.95 62.958 128.848 64.9666 128.036C65.9316 127.629 66.7809 126.99 67.4387 126.176L67.014 122.868C66.7148 123.354 66.2676 123.732 65.738 123.946C65.2631 124.156 64.7623 124.301 64.2489 124.378C63.8183 124.441 63.3786 124.392 62.9729 124.234C62.6141 124.14 62.2923 123.94 62.0506 123.658C61.8416 123.437 61.6951 123.164 61.6259 122.868C61.5863 122.634 61.6043 122.394 61.6783 122.168C61.7523 121.942 61.8801 121.738 62.0506 121.573C62.2937 121.38 62.555 121.212 62.8308 121.07C63.5246 120.787 64.2349 120.547 64.9579 120.351C65.8238 120.083 66.6755 119.771 67.5098 119.416C67.5807 120.086 67.5807 120.761 67.5098 121.431C67.4522 121.918 67.2825 122.386 67.014 122.797L67.4387 126.105C67.5809 126.607 67.723 126.971 67.8635 127.4C67.9358 127.636 68.0535 127.855 68.2102 128.046H75.2972C75.1403 127.553 75.0244 127.048 74.9505 126.536" fill="#0056A8"/>
<path d="M101.319 128.33C100.378 128.055 99.5312 127.527 98.869 126.804C98.2069 126.081 97.7549 125.191 97.5622 124.23C97.3968 123.499 97.3727 122.742 97.4911 122.001C97.6578 120.869 98.2086 119.828 99.0514 119.054C99.6662 118.449 100.421 118.004 101.248 117.759C102.168 117.471 102.949 117.254 103.942 117.039C104.651 116.895 105.289 116.823 105.998 116.681C106.919 116.537 107.628 116.322 108.548 116.105C108.761 116.034 108.895 115.961 109.115 115.89C109.397 115.762 109.641 115.564 109.824 115.314C109.933 115.173 110.004 115.006 110.029 114.83C110.054 114.653 110.032 114.473 109.966 114.307C109.903 114.021 109.765 113.757 109.565 113.542C109.366 113.327 109.113 113.169 108.832 113.085C107.998 112.821 107.099 112.846 106.281 113.156C106.001 113.259 105.748 113.422 105.538 113.634C105.329 113.845 105.168 114.1 105.067 114.38C104.981 114.758 104.934 115.144 104.927 115.531L98.5538 115.389C98.5538 115.245 98.4827 115.174 98.4827 115.03C98.4089 114.352 98.4816 113.665 98.696 113.017C98.9501 112.181 99.3871 111.411 99.9754 110.765C100.564 110.118 101.289 109.61 102.097 109.278C102.781 108.986 103.494 108.768 104.224 108.628C106.853 108.136 109.554 108.185 112.163 108.772C112.987 108.92 113.779 109.214 114.501 109.639C115.12 109.97 115.661 110.43 116.088 110.986C116.516 111.543 116.821 112.184 116.982 112.867C117.267 113.897 117.41 114.961 117.407 116.03C117.407 118.111 117.407 119.914 117.478 121.999C117.549 123.582 117.549 124.946 117.691 126.531C117.762 127.107 117.903 127.538 117.974 128.041H110.88C110.723 127.85 110.605 127.63 110.533 127.394C110.393 126.963 110.251 126.604 110.108 126.099L109.684 122.792C109.952 122.381 110.122 121.913 110.179 121.425C110.25 120.756 110.25 120.082 110.179 119.413C109.345 119.767 108.494 120.079 107.628 120.347C106.905 120.544 106.196 120.784 105.502 121.067C105.226 121.209 104.965 121.378 104.722 121.571C104.551 121.736 104.424 121.94 104.35 122.166C104.276 122.392 104.258 122.632 104.297 122.866C104.367 123.162 104.513 123.435 104.722 123.657C104.963 123.937 105.284 124.138 105.643 124.232C106.048 124.39 106.488 124.439 106.919 124.376C107.432 124.3 107.933 124.154 108.408 123.944C108.938 123.731 109.385 123.353 109.684 122.866L110.108 126.174C109.449 126.994 108.596 127.637 107.626 128.044C106.48 128.491 105.263 128.725 104.034 128.738C103.114 128.734 102.199 128.597 101.319 128.33V128.33ZM58.651 128.33C57.7105 128.055 56.8633 127.527 56.2011 126.804C55.5389 126.081 55.087 125.191 54.8942 124.23C54.7289 123.499 54.7047 122.742 54.8232 122.001C54.9332 120.867 55.4646 119.815 56.3123 119.054C56.9277 118.448 57.6826 118.003 58.5106 117.759C59.4311 117.471 60.2113 117.254 61.2029 117.039C61.9119 116.895 62.5499 116.823 63.259 116.681C64.1795 116.537 64.8886 116.322 65.8109 116.105C66.0224 116.034 66.1576 115.961 66.3778 115.89C66.6595 115.762 66.9037 115.564 67.0868 115.314C67.1965 115.174 67.2673 115.007 67.2922 114.83C67.3172 114.653 67.2954 114.473 67.229 114.307C67.1658 114.021 67.0274 113.757 66.8281 113.542C66.6288 113.327 66.3758 113.169 66.0952 113.085C65.2608 112.821 64.3616 112.846 63.5433 113.156C63.2656 113.26 63.0139 113.424 62.8058 113.635C62.5977 113.846 62.4382 114.101 62.3384 114.38C62.2517 114.758 62.204 115.144 62.1963 115.531L55.8148 115.389C55.8148 115.245 55.7437 115.174 55.7437 115.03C55.6699 114.352 55.7426 113.665 55.9569 113.017C56.2111 112.181 56.6481 111.411 57.2364 110.765C57.8247 110.118 58.5495 109.61 59.3583 109.278C60.0422 108.986 60.7553 108.768 61.4855 108.628C64.1138 108.136 66.8149 108.185 69.4237 108.772C70.249 108.92 71.0414 109.213 71.7641 109.639C72.3832 109.972 72.9245 110.432 73.3522 110.99C73.7798 111.548 74.0841 112.191 74.2449 112.875C74.5297 113.906 74.6726 114.97 74.6697 116.039C74.6697 118.119 74.6697 119.922 74.739 122.008C74.8101 123.591 74.8101 124.955 74.9523 126.54C75.0263 127.052 75.1423 127.557 75.299 128.05H68.2189C68.062 127.859 67.9441 127.639 67.8721 127.403C67.73 126.971 67.5878 126.612 67.4457 126.108L67.0192 122.792C67.2879 122.381 67.4576 121.913 67.515 121.425C67.5859 120.756 67.5859 120.082 67.515 119.413C66.6809 119.768 65.8291 120.079 64.9631 120.347C64.2409 120.544 63.5311 120.784 62.8377 121.067C62.5619 121.209 62.3006 121.378 62.0576 121.571C61.887 121.736 61.7592 121.94 61.6852 122.166C61.6112 122.392 61.5932 122.632 61.6328 122.866C61.7021 123.162 61.8486 123.435 62.0576 123.657C62.2993 123.938 62.621 124.139 62.9799 124.232C63.3856 124.39 63.8252 124.439 64.2558 124.376C64.7693 124.3 65.2701 124.154 65.745 123.944C66.2748 123.731 66.7221 123.353 67.0209 122.866L67.4457 126.174C66.7848 126.994 65.9298 127.637 64.9579 128.044C63.8122 128.491 62.5952 128.725 61.3658 128.738C60.4454 128.734 59.5304 128.597 58.6493 128.33H58.651ZM199.556 128.618C197.775 128.449 196.079 127.775 194.666 126.677C193.502 125.811 192.536 124.708 191.831 123.44C191.276 122.457 190.893 121.386 190.698 120.274C190.411 118.718 190.483 117.117 190.909 115.594C191.334 113.857 192.247 112.277 193.54 111.043C194.834 109.809 196.454 108.97 198.209 108.628C200.202 108.208 202.264 108.257 204.234 108.772C205.655 109.102 206.957 109.822 207.991 110.852C208.671 111.457 209.226 112.191 209.622 113.01C210.116 113.988 210.337 115.081 210.26 116.174H203.738C203.601 115.32 203.145 114.549 202.462 114.018C202.039 113.664 201.513 113.459 200.962 113.433C200.412 113.407 199.868 113.562 199.414 113.874C198.776 114.276 198.299 114.889 198.067 115.607C197.513 117.335 197.489 119.188 197.998 120.93C198.189 121.669 198.582 122.341 199.132 122.871C199.437 123.17 199.806 123.396 200.211 123.533C200.616 123.67 201.046 123.714 201.47 123.662C201.989 123.586 202.466 123.332 202.817 122.942C203.193 122.517 203.439 121.993 203.526 121.432C203.609 121.054 203.656 120.668 203.669 120.281H210.544C210.613 121.241 210.479 122.205 210.15 123.109C209.822 124.014 209.306 124.839 208.637 125.531C207.288 127.011 205.499 128.02 203.533 128.408C202.66 128.595 201.769 128.691 200.876 128.696C200.434 128.694 199.993 128.668 199.555 128.618H199.556ZM146.116 128.402C144.742 128.1 143.456 127.484 142.359 126.604C140.637 125.302 139.413 123.449 138.892 121.354C138.531 119.995 138.413 118.583 138.545 117.183C138.709 114.888 139.719 112.735 141.38 111.142C142.859 109.618 144.805 108.631 146.908 108.337C147.609 108.25 148.314 108.202 149.02 108.191C149.731 108.17 150.443 108.218 151.145 108.335C153.283 108.656 155.267 109.637 156.821 111.14C158.481 112.733 159.491 114.886 159.655 117.182C159.825 118.581 159.707 120 159.309 121.353C158.788 123.448 157.564 125.3 155.841 126.602C154.762 127.51 153.469 128.129 152.085 128.4C151.106 128.603 150.108 128.699 149.108 128.688C148.102 128.704 147.098 128.608 146.114 128.402H146.116ZM146.825 114.449C146.422 115.003 146.154 115.644 146.045 116.32C145.808 117.602 145.784 118.914 145.974 120.203C146.087 120.847 146.277 121.475 146.541 122.074C146.817 122.714 147.323 123.227 147.959 123.513C148.3 123.666 148.668 123.75 149.041 123.76C149.415 123.77 149.787 123.707 150.136 123.573C150.485 123.44 150.804 123.238 151.075 122.981C151.346 122.724 151.564 122.415 151.715 122.074C152.001 121.484 152.192 120.853 152.282 120.203C152.507 118.916 152.483 117.598 152.211 116.32C152.07 115.653 151.805 115.019 151.431 114.449C151.184 114.062 150.843 113.744 150.441 113.523C150.038 113.303 149.586 113.187 149.127 113.187C148.668 113.187 148.216 113.303 147.814 113.523C147.411 113.744 147.07 114.062 146.823 114.449H146.825ZM123.787 127.899C122.59 127.576 121.493 126.958 120.597 126.101C119.91 125.433 119.377 124.623 119.037 123.728C118.786 123.137 118.667 122.498 118.69 121.857V121.425H125.635C125.647 121.765 125.695 122.103 125.777 122.433C125.848 122.84 126.077 123.202 126.415 123.44C126.646 123.648 126.91 123.818 127.195 123.943C127.789 124.224 128.46 124.301 129.102 124.159C129.588 124.093 130.037 123.865 130.378 123.513C130.538 123.342 130.653 123.134 130.713 122.909C130.774 122.683 130.778 122.445 130.725 122.218C130.667 122.006 130.56 121.811 130.412 121.648C130.265 121.486 130.081 121.361 129.875 121.283C129.363 121.13 128.842 121.01 128.315 120.924C126.826 120.708 125.552 120.422 124.487 120.205C123.783 120.056 123.094 119.839 122.431 119.558C121.763 119.304 121.158 118.909 120.658 118.398C120.158 117.888 119.775 117.275 119.534 116.603C119.183 115.864 119.036 115.044 119.109 114.229C119.17 113.744 119.264 113.263 119.392 112.79C119.718 111.774 120.335 110.876 121.165 110.205C122.145 109.44 123.283 108.901 124.496 108.628C125.372 108.374 126.276 108.229 127.188 108.196C128.777 108.113 130.371 108.209 131.938 108.484C132.62 108.6 133.286 108.793 133.923 109.06C134.565 109.297 135.163 109.637 135.695 110.067C136.322 110.57 136.79 111.245 137.042 112.008C137.326 112.742 137.47 113.522 137.467 114.309H130.733C130.746 113.929 130.635 113.555 130.418 113.242C130.201 112.93 129.889 112.696 129.528 112.575C128.776 112.3 127.956 112.275 127.188 112.504C126.971 112.547 126.768 112.641 126.596 112.778C126.423 112.916 126.286 113.093 126.196 113.295V113.366C126.149 113.469 126.122 113.581 126.117 113.695C126.113 113.809 126.131 113.923 126.17 114.029C126.21 114.136 126.27 114.234 126.347 114.318C126.424 114.402 126.518 114.469 126.621 114.517C126.784 114.574 126.949 114.622 127.117 114.661C127.464 114.734 127.826 114.805 128.251 114.878C129.714 115.078 131.159 115.39 132.574 115.812C132.859 115.885 133.07 115.956 133.355 116.029C134.541 116.344 135.635 116.938 136.544 117.762C137.209 118.364 137.699 119.134 137.963 119.992C138.334 121.12 138.357 122.334 138.028 123.476C137.699 124.618 137.034 125.634 136.12 126.392C135.698 126.722 135.248 127.012 134.773 127.259C133.722 127.854 132.568 128.245 131.371 128.41C130.473 128.533 129.567 128.597 128.66 128.599C127.011 128.595 125.37 128.359 123.787 127.899V127.899ZM32 128.114V101H45.2536C45.7487 100.988 46.2441 101.012 46.7358 101.071C48.4186 101.151 50.0459 101.698 51.4354 102.65C52.8249 103.603 53.9217 104.923 54.603 106.464C55.3743 108.049 55.6694 109.823 55.4525 111.572C55.2741 113.427 54.5127 115.178 53.2774 116.573C52.0422 117.969 50.3967 118.937 48.5769 119.34C47.3904 119.602 46.1771 119.722 44.9623 119.699H40.0804V128.114H32ZM40.0804 113.378H43.2686C43.8364 113.392 44.4045 113.368 44.9692 113.307C45.3693 113.285 45.7599 113.178 46.1147 112.992C46.4695 112.806 46.7801 112.545 47.0253 112.229C47.2905 111.896 47.4617 111.499 47.5211 111.077C47.592 110.722 47.592 110.355 47.5211 109.999C47.4704 109.324 47.1632 108.693 46.6627 108.237C46.1622 107.78 45.5061 107.533 44.8288 107.544H40.0804V113.378ZM182.411 128.05V108.695H189.5V128.044L182.411 128.05ZM173.268 128.05V116.823C173.253 116.456 173.203 116.092 173.117 115.736C173.031 115.432 172.879 115.152 172.67 114.915C172.462 114.679 172.202 114.492 171.912 114.37C171.265 114.09 170.538 114.061 169.87 114.287C169.203 114.512 168.642 114.977 168.297 115.592C168.017 116.098 167.871 116.667 167.873 117.246V128.044H160.572V108.695H167.448L167.59 110.776C168.461 109.959 169.468 109.302 170.567 108.834C172.309 107.977 174.314 107.823 176.166 108.402C177.177 108.691 178.097 109.232 178.841 109.975C179.585 110.717 180.128 111.636 180.419 112.646C180.698 113.604 180.841 114.596 180.844 115.594V128.044L173.268 128.05ZM89.135 128.05V116.823C89.1226 116.459 89.075 116.098 88.9929 115.744C88.9073 115.441 88.7546 115.161 88.546 114.924C88.3375 114.688 88.0784 114.501 87.788 114.378C87.141 114.099 86.4135 114.07 85.746 114.295C85.0785 114.521 84.5182 114.986 84.1734 115.6C83.8927 116.106 83.7465 116.676 83.7487 117.254V128.044H76.3686V108.695H83.2442L83.3863 110.776C84.2568 109.959 85.2644 109.302 86.363 108.834C88.105 107.977 90.1098 107.823 91.9626 108.402C92.9731 108.691 93.8936 109.232 94.6375 109.975C95.3814 110.717 95.9243 111.636 96.2151 112.646C96.4946 113.604 96.6376 114.596 96.6399 115.594V128.044L89.135 128.05ZM182.404 106.114V101H189.493V106.105L182.404 106.114Z" fill="#0056A8"/>
</g>
<defs>
<clipPath id="clip0_55_276">
<rect width="178.561" height="27.738" fill="white" transform="translate(32 101)"/>
</clipPath>
</defs>
</svg>
