<svg width="243" height="230" viewBox="0 0 243 230" fill="none" xmlns="http://www.w3.org/2000/svg">
<path d="M243 0H0V230H243V0Z" fill="white"/>
<g clip-path="url(#clip0_57_718)">
<path d="M184.984 107.705H138.437V95.7913H184.984V107.705Z" fill="#E669A2"/>
<path d="M178.938 107.705H138.437V77.9075H178.938V107.705Z" fill="#F3BE26"/>
<path d="M162.205 107.705H138.437V66H162.205V107.705Z" fill="#EE9C34"/>
<path d="M166.881 107.705H138.437V70.6536H166.881V107.705Z" fill="#F3BC87"/>
<path d="M138.431 70.6606V107.701H162.203V70.6606H138.431Z" fill="#E3721C"/>
<path d="M114.604 107.705H138.437V113.662H114.604V107.705Z" fill="#AD1B02"/>
<path d="M138.431 77.9009V107.701H166.895V77.9009H138.431Z" fill="#E88D14"/>
<path d="M138.431 77.9009V107.701H162.203V77.9009H138.431Z" fill="#D85604"/>
<path d="M153.301 107.705H138.437V89.8201H153.301V107.705Z" fill="#C14303"/>
<path d="M138.431 95.7998V107.701H178.952V95.7998H138.431V95.7998Z" fill="#DB4E18"/>
<path d="M138.431 95.7998V107.701H166.895V95.7998H138.431V95.7998Z" fill="#D1390D"/>
<path d="M138.431 95.7998V107.701H162.203V95.7998H138.431V95.7998Z" fill="#C22303"/>
<path d="M138.431 95.7998V107.701H153.315V95.7998H138.431V95.7998Z" fill="#AD1B02"/>
<path d="M143.619 130.144C139.564 130.864 137.402 133.928 137.402 139.245C137.402 144.652 140.285 148.257 144.521 148.257C146.593 148.257 148.396 147.536 152.181 145.644V150.06C147.585 152.222 144.881 152.763 141.277 152.763C137.221 152.763 134.337 151.772 132.084 149.339C129.741 146.995 128.48 143.931 128.48 140.417C128.48 132.757 134.247 127.44 142.628 127.44C148.125 127.44 152 130.053 152 133.748C152 136.181 150.198 137.894 147.585 137.894C146.233 137.894 145.151 137.443 143.619 136.632L143.619 130.144ZM123.343 140.417C127.038 135.821 128.39 133.928 128.39 131.675C128.39 129.422 126.587 127.44 124.064 127.44C122.622 127.44 121.271 128.251 120.64 128.972V138.434L114.602 146.545V128.161H108.834L99.2815 143.932V128.161H96.0372L87.2957 130.144V132.397L92.072 132.847V152.403H98.1099L107.302 137.263V152.403H114.061L123.343 140.417ZM69.002 149.339H70.3537C75.22 149.339 77.9235 146.365 77.9235 140.417C77.9235 135.46 75.7609 132.757 71.7053 132.757C71.1647 132.757 70.3536 132.847 69.0019 133.117V149.338H69.002V149.339ZM69.002 159.972L72.9671 160.874V163.126H57.3768V160.874L60.9814 159.972V132.757H57.0164V130.504L66.4786 127.62H69.0022V130.864C73.4178 128.161 74.9498 127.71 77.2928 127.71C82.5197 127.71 86.4848 132.577 86.4848 139.336C86.4848 147.086 81.1679 152.403 73.0572 152.403C72.156 152.403 70.624 152.313 69.002 152.222" fill="black"/>
</g>
<defs>
<clipPath id="clip0_57_718">
<rect width="128" height="97.1264" fill="white" transform="translate(57 66)"/>
</clipPath>
</defs>
</svg>
