<svg width="243" height="230" viewBox="0 0 243 230" fill="none" xmlns="http://www.w3.org/2000/svg">
<path d="M243 0H0V230H243V0Z" fill="white"/>
<path d="M63.6501 101.708V123.043C63.6501 124.588 63.7269 125.539 63.8779 125.899C64.1554 126.765 65.0405 127.2 66.5345 127.2H67.5307V128.646H55.8115V127.2H56.8093C57.8876 127.2 58.6367 126.985 59.0593 126.55C59.4814 126.116 59.6932 124.946 59.6932 123.043V101.708H58.8219C57.4527 101.708 56.2197 102.106 55.128 102.899C53.4814 104.106 52.5258 106.524 52.2639 110.154H51.0185L51.2469 100.262H72.2346L72.401 110.154H71.1333C70.6056 105.989 69.3592 103.393 67.3914 102.366C66.5447 101.928 65.5127 101.708 64.2936 101.708L63.6501 101.708Z" fill="#E20073"/>
<path d="M51.017 112.741V118.675H56.9523V112.741H51.017Z" fill="#E20073"/>
<path d="M66.4641 112.741V118.675H72.4006V112.741H66.4641Z" fill="#E20073"/>
<path d="M97.8597 128.646H96.5504L89.0608 102.827V121.391C89.0608 123.288 89.1365 124.484 89.2897 124.98C89.7331 126.46 90.7116 127.2 92.2259 127.2H92.7888V128.646H83.962V127.2H84.6535C85.7153 127.2 86.4698 126.76 86.9169 125.875C87.2803 125.156 87.4617 123.665 87.4617 121.398V105.008C87.4617 104.029 87.419 103.38 87.3358 103.061C87.1687 102.399 86.7985 101.978 86.2243 101.797C85.8909 101.688 85.4005 101.631 84.7571 101.631H83.962V100.262H92.1987L98.2343 121.067L104.422 100.262H112.801V101.631H112.234C111.13 101.631 110.364 101.849 109.938 102.284C109.514 102.72 109.3 103.891 109.3 105.797V123.035C109.3 124.569 109.377 125.521 109.531 125.894C109.798 126.764 110.697 127.199 112.234 127.199H112.801V128.645H102.073V127.2H102.447C103.543 127.2 104.316 126.958 104.76 126.475C105.149 126.044 105.343 124.898 105.343 123.028V102.823L97.8597 128.646ZM127.227 112.394C127.885 113.856 128.216 116 128.216 118.829C128.216 124.815 126.709 127.808 123.698 127.808C120.672 127.808 119.16 124.789 119.16 118.748C119.16 115.986 119.489 113.871 120.147 112.394C120.904 110.699 122.059 109.85 123.614 109.85C125.266 109.85 126.471 110.699 127.227 112.394ZM117.176 111.594C115.758 113.514 115.051 115.938 115.051 118.871C115.051 121.846 115.773 124.26 117.218 126.107C118.857 128.207 121.015 129.256 123.699 129.256C126.365 129.256 128.519 128.206 130.157 126.107C131.603 124.26 132.325 121.834 132.325 118.83C132.325 115.816 131.602 113.389 130.157 111.552C128.505 109.454 126.388 108.403 123.802 108.403C120.953 108.403 118.746 109.468 117.176 111.594ZM148.705 118.67C148.705 124.609 147.306 127.579 144.51 127.579C142.897 127.579 141.704 126.749 140.933 125.088C140.23 123.579 139.878 121.475 139.878 118.772C139.878 116.047 140.29 113.947 141.119 112.479C141.987 110.929 143.152 110.153 144.612 110.153C147.34 110.154 148.705 112.994 148.705 118.67ZM140.183 99.8813L134.096 100.185V101.554H134.413C135.213 101.554 135.769 101.721 136.079 102.054C136.43 102.428 136.606 103.394 136.606 104.945V124.443C136.606 126.358 136.539 127.514 136.403 127.916C136.327 128.14 136.245 128.382 136.154 128.646H137.567C138.397 127.3 138.972 126.627 139.291 126.627C139.497 126.627 139.74 126.736 140.017 126.951C140.751 127.534 141.222 127.894 141.429 128.029C142.482 128.694 143.637 129.025 144.896 129.025C147.487 129.025 149.51 127.869 150.964 125.552C152.197 123.584 152.813 121.233 152.813 118.506C152.813 115.311 151.961 112.765 150.261 110.878C148.948 109.433 147.261 108.709 145.201 108.709C142.781 108.709 141.108 109.743 140.182 111.812L140.183 99.8813ZM161.402 108.709V123.887C161.402 125.458 161.572 126.44 161.914 126.83C162.215 127.178 162.756 127.352 163.54 127.352H164.218V128.646H155.009V127.352H155.686C156.469 127.352 157.02 127.169 157.342 126.8C157.664 126.432 157.824 125.459 157.824 123.885V113.732C157.824 112.159 157.65 111.184 157.3 110.808C156.994 110.474 156.441 110.307 155.644 110.307H155.163V108.998L161.402 108.709ZM159.352 100.034C159.97 100.034 160.506 100.266 160.957 100.728C161.406 101.192 161.631 101.734 161.631 102.355C161.631 103.003 161.406 103.553 160.957 104.002C160.506 104.452 159.959 104.675 159.308 104.675C158.674 104.675 158.127 104.448 157.673 103.992C157.217 103.536 156.988 102.99 156.988 102.355C156.988 101.706 157.22 101.157 157.684 100.707C158.145 100.258 158.702 100.034 159.352 100.034ZM172.123 99.8813V123.887C172.123 125.461 172.293 126.44 172.636 126.83C172.937 127.178 173.477 127.352 174.26 127.352H174.938V128.646H165.73V127.352H166.408C167.19 127.352 167.741 127.169 168.064 126.8C168.384 126.432 168.546 125.459 168.546 123.888V104.883C168.546 103.338 168.372 102.37 168.023 101.98C167.714 101.647 167.162 101.48 166.367 101.48H165.884V100.171L172.123 99.8813ZM180.995 117.229C181.009 115.807 181.154 114.588 181.433 113.572C182.119 111.09 183.285 109.849 184.936 109.849C186.388 109.849 187.437 110.773 188.081 112.62C188.514 113.875 188.73 115.411 188.73 117.229H180.995ZM191.352 112.821C189.883 109.878 187.683 108.403 184.756 108.403C182.787 108.403 181.101 109.19 179.7 110.761C177.923 112.749 177.037 115.397 177.037 118.704C177.037 122.305 177.923 125.057 179.7 126.961C181.13 128.489 182.96 129.256 185.194 129.256C188.231 129.256 190.645 127.457 192.435 123.861L191.163 123.196C190.621 124.319 190.079 125.198 189.537 125.834C188.55 127 187.322 127.58 185.85 127.58C183.96 127.58 182.626 126.649 181.849 124.786C181.292 123.466 181.009 121.431 180.994 118.676H192.66C192.579 116.356 192.143 114.405 191.352 112.821Z" fill="#E20073"/>
</svg>
