<svg width="243" height="230" viewBox="0 0 243 230" fill="none" xmlns="http://www.w3.org/2000/svg">
<path d="M243 0H0V230H243V0Z" fill="white"/>
<g clip-path="url(#clip0_61_983)">
<path d="M71 123.152C71.3989 121.902 71.7977 120.649 72.2033 119.402C72.2731 119.19 72.3828 118.99 72.4592 118.781C72.6221 118.322 72.7683 117.853 72.9379 117.395C73.0342 117.129 73.1639 116.876 73.2769 116.614C73.3201 116.511 73.36 116.404 73.3966 116.298C73.8951 114.792 74.4004 113.286 74.8823 111.774C75.1316 110.989 75.3178 110.185 75.5737 109.401C76.0158 108.058 76.4745 106.718 76.9631 105.389C77.1592 104.857 77.372 104.295 77.711 103.853C78.296 103.098 79.1436 102.899 80.0644 103.098C81.0349 103.308 81.5236 104.023 81.7596 104.903C81.9623 105.658 82.062 106.442 82.1983 107.217C82.431 108.553 82.6603 109.893 82.883 111.232C82.9828 111.824 82.9695 112.449 83.1689 113C83.498 113.895 83.3251 114.832 83.5478 115.729C83.7173 116.404 83.7639 117.109 83.9035 117.794C83.9799 118.166 84.1428 118.518 84.2591 118.88C84.4253 119.402 84.6048 119.924 84.7411 120.453C84.7843 120.619 84.658 120.825 84.6946 120.995C84.9007 121.932 85.14 122.859 85.3527 123.797C85.3893 123.963 85.3993 124.159 85.3461 124.315C85.1001 125.033 85.1267 125.691 85.5688 126.353C85.7084 126.562 85.6452 126.914 85.6618 127.204C85.6984 127.868 85.6153 128.566 85.8015 129.185C85.9211 129.584 85.9643 129.956 86.0075 130.351C86.0242 130.504 86.2203 130.634 86.3333 130.777L86.4729 130.764C86.566 130.265 86.6756 129.77 86.7521 129.268C87.0014 127.602 87.2174 125.934 87.4834 124.269C87.8523 121.968 88.1947 119.662 88.6567 117.378C89.2251 114.549 89.8799 111.737 90.5414 108.929C90.8804 107.483 91.3125 106.06 91.6948 104.627C92.1601 102.882 92.6222 101.134 93.0809 99.389C93.3833 98.2356 93.6492 97.0755 93.9783 95.9288C94.1678 95.2706 94.4503 94.6424 94.6797 93.9942C95.6669 91.2221 96.6275 88.4433 97.6346 85.6778C98.562 83.135 99.5293 80.6055 100.5 78.076C100.865 77.122 101.248 76.1713 101.683 75.2473C102.168 74.2202 102.853 73.3227 103.807 72.6879C104.253 72.392 104.778 72.2225 105.266 71.9932C105.462 71.9932 105.662 71.9932 105.858 71.9932C106.194 72.0829 106.529 72.176 106.865 72.2624C109.371 72.9239 109.857 76.065 108.776 77.5707C108.524 77.9197 108.374 78.3452 108.152 78.7175C108.062 78.867 107.899 78.9767 107.766 79.0997C107.55 79.2925 107.294 79.4521 107.111 79.6748C106.303 80.652 105.476 81.6126 104.735 82.6364C103.734 84.0158 103.129 85.608 102.458 87.1602C102.135 87.9048 101.806 88.6494 101.507 89.4072C101.397 89.6864 101.391 90.0055 101.288 90.2914C101.128 90.7335 100.925 91.1589 100.736 91.591C100.54 92.0365 100.33 92.4785 100.148 92.9273C99.9581 93.386 99.7752 93.848 99.6157 94.32C99.4063 94.9249 99.2201 95.5365 99.0274 96.1481C98.8047 96.8595 98.5886 97.5774 98.3692 98.2888C98.2396 98.7076 98.1066 99.1264 97.977 99.5452C97.9604 99.5984 97.9305 99.6715 97.9537 99.7048C98.1233 99.9607 97.9704 100.14 97.874 100.376C97.5083 101.26 97.1294 102.148 96.8901 103.072C96.6873 103.856 96.7106 104.694 96.561 105.492C96.4979 105.834 96.2386 106.137 96.0923 106.469C95.9461 106.798 95.8231 107.137 95.6968 107.476C95.514 107.965 95.3145 108.447 95.165 108.942C94.7993 110.145 94.4337 111.345 94.1146 112.562C93.8321 113.632 93.5927 114.712 93.3734 115.796C93.2637 116.348 93.2437 116.916 93.1772 117.474C93.1673 117.568 93.144 117.681 93.0842 117.744C92.7252 118.106 92.7385 118.528 92.7751 119C92.8016 119.376 92.6521 119.768 92.569 120.154C92.5557 120.217 92.4659 120.263 92.4526 120.323C92.3396 120.958 92.2598 121.599 92.1269 122.228C92.0405 122.633 92.2333 123.075 91.8909 123.458C91.7646 123.597 91.8477 123.913 91.8078 124.146C91.6815 124.9 91.5286 125.648 91.4156 126.403C91.3956 126.529 91.5651 126.672 91.5784 126.811C91.6117 127.17 91.6715 127.546 91.5984 127.888C91.5253 128.237 91.2693 128.54 91.153 128.886C91.0533 129.181 91.0233 129.507 90.9801 129.82C90.9203 130.248 90.8671 130.677 90.8239 131.109C90.8139 131.199 90.8206 131.332 90.8771 131.385C91.1197 131.621 91.2294 131.811 90.7973 131.944C90.7641 131.954 90.7375 132.033 90.7308 132.086C90.538 133.143 90.3153 134.197 90.1691 135.261C89.8666 137.455 89.6173 139.655 89.3215 141.852C89.0822 143.63 88.8196 145.405 88.5404 147.18C88.4706 147.619 88.3443 148.058 88.1814 148.473C87.849 149.314 86.9349 149.813 85.951 149.737C85.3527 149.69 84.5915 149.125 84.4253 148.204C84.309 147.556 84.1362 146.918 84.0132 146.27C83.7273 144.727 83.4548 143.185 83.1822 141.639C83.0293 140.759 82.9595 139.858 82.7168 139.004C82.6038 138.608 82.79 138.093 82.3412 137.797C82.3113 137.777 82.3113 137.687 82.3246 137.637C82.5573 136.693 82.1551 135.813 82.0521 134.902C81.8992 133.569 81.6698 132.243 81.4704 130.913C81.1745 128.945 80.8687 126.978 80.5762 125.006C80.3602 123.557 80.1574 122.108 79.9447 120.659C79.8217 119.828 79.6921 119 79.5624 118.173C79.5458 118.066 79.5126 117.943 79.4428 117.863C78.9808 117.315 79.1902 116.687 79.2035 116.042H79.004C78.8744 115.789 78.8212 115.557 78.675 115.424C78.4057 115.181 78.1963 115.257 78.0933 115.606C77.967 116.039 77.7044 116.368 77.3886 116.67C77.3554 116.703 77.3155 116.763 77.3221 116.803C77.4085 117.258 77.0994 117.584 76.9598 117.97C76.8235 118.349 76.7305 118.744 76.6141 119.13C76.4512 119.652 76.305 120.18 76.1089 120.692C75.6734 121.832 75.2779 122.999 74.7195 124.076C74.5134 124.475 73.9217 124.77 73.4464 124.913C72.4825 125.199 71.5219 124.973 71 123.487V123.148V123.152Z" fill="#ED1736"/>
<path d="M129.83 122.035C129.976 121.972 130.079 121.939 130.169 121.882C131.137 121.26 132.097 120.632 133.064 120.014C134.437 119.14 135.803 118.262 137.193 117.411C138.014 116.909 138.868 116.457 139.706 115.985C141.926 114.729 144.15 113.479 146.367 112.216C148.684 110.896 150.994 109.564 153.307 108.234C153.759 107.975 153.762 107.908 153.32 107.616C152.529 107.087 152.406 106.28 152.433 105.425C152.463 104.478 152.539 103.534 152.566 102.587C152.586 101.885 152.529 101.181 152.559 100.483C152.599 99.5685 152.712 98.6578 152.762 97.7437C152.792 97.2118 152.792 96.6734 152.752 96.1415C152.689 95.284 152.207 94.925 151.356 95.0879C150.552 95.2408 149.963 95.7261 149.495 96.3775C149.401 96.5072 149.292 96.6302 149.192 96.7565C149.023 96.9725 148.667 97.039 148.687 97.4146C148.69 97.4778 148.561 97.5509 148.484 97.614C148.421 97.6672 148.308 97.7038 148.291 97.7669C148.142 98.3619 148.005 98.9636 147.872 99.5619C147.863 99.6018 147.936 99.6616 147.985 99.7347C147.703 99.6981 147.567 99.7713 147.656 100.034C147.74 100.27 147.829 100.459 147.533 100.662C147.437 100.729 147.487 101.121 147.58 101.31C147.706 101.57 147.653 101.689 147.46 101.869C147.234 102.075 147.085 102.314 147.377 102.64C147.51 102.789 147.48 103.082 147.52 103.298C147.391 103.438 147.178 103.561 147.168 103.697C147.125 104.362 147.131 105.03 147.128 105.695C147.128 105.701 147.224 105.711 147.274 105.718C147.051 106.13 147.068 106.535 147.221 106.668C147.221 107.21 147.228 107.662 147.218 108.118C147.218 108.221 147.158 108.327 147.118 108.427C146.958 108.792 146.812 109.165 146.626 109.517C146.54 109.68 146.39 109.826 146.234 109.936C145.469 110.481 144.711 111.039 143.691 110.986C142.966 110.946 142.541 110.611 142.504 109.889C142.468 109.121 142.501 108.347 142.528 107.576C142.571 106.339 142.631 105.106 142.694 103.87C142.803 101.699 142.877 99.522 143.049 97.3548C143.196 95.5499 144.439 94.094 146.33 93.9112C146.722 93.8746 147.115 93.9743 147.51 93.7749C147.666 93.6951 147.946 93.8779 148.175 93.9212C149.235 94.1139 149.9 93.5057 150.532 92.7844C151.542 91.6276 152.679 90.6637 154.254 90.3546C155.198 90.1684 156.259 90.5274 156.641 91.2387C156.744 91.4315 156.784 91.6576 156.867 91.8636C156.927 92.0099 157.01 92.1462 157.02 92.2858C157.04 92.4819 157.01 92.7046 157.093 92.8708C157.246 93.1799 157.326 93.3993 157.063 93.7317C156.907 93.9311 156.997 94.32 156.973 94.6591L157.173 94.6391V96.2147C157.027 96.3011 156.804 96.4141 157.053 96.7365C157.13 96.8362 156.96 97.1022 156.963 97.2883C156.973 98.0329 157.013 98.7741 157.027 99.5187C157.027 99.6616 156.924 99.8078 156.927 99.9541C156.937 100.486 157.163 100.998 157.05 101.543C156.993 101.809 157.007 102.088 156.937 102.347C156.834 102.726 157.043 103.7 157.326 103.953C157.276 104.069 157.153 104.219 157.186 104.302C157.283 104.528 157.429 104.741 157.585 104.93C158.044 105.482 158.599 105.459 159.19 105.163C160.317 104.594 161.441 104.016 162.578 103.471C163.166 103.188 163.768 102.909 164.392 102.733C164.795 102.62 165.253 102.676 165.682 102.706C166.031 102.73 166.393 102.783 166.722 102.899C167.258 103.089 167.733 104.036 167.607 104.571C167.158 106.482 165.921 107.466 164.456 108.041C163.06 108.59 161.607 108.982 160.191 109.484C157.751 110.348 155.434 111.478 153.154 112.695C151.186 113.742 149.189 114.732 147.254 115.836C143.94 117.724 140.643 119.648 137.379 121.623C135.308 122.876 133.304 124.239 131.286 125.575C130.784 125.907 130.332 126.316 129.863 126.698C129.581 126.928 129.654 127.263 129.647 127.566C129.637 127.945 129.807 128.404 129.647 128.686C129.451 129.035 129.681 129.361 129.511 129.663C129.478 129.72 129.511 129.82 129.521 129.896C129.538 130.076 129.568 130.255 129.568 130.435C129.568 130.69 129.654 131.033 129.524 131.186C129.212 131.555 129.544 131.9 129.475 132.269C129.338 132.981 129.461 133.735 129.438 134.473C129.428 134.789 129.634 135.118 129.375 135.434C129.325 135.494 129.478 135.693 129.475 135.829C129.458 136.637 129.421 137.445 129.398 138.252C129.385 138.665 129.378 139.08 129.385 139.492C129.388 139.828 129.418 140.164 129.435 140.503C129.435 140.539 129.425 140.586 129.401 140.616C129.062 141.021 129.082 141.287 129.518 141.616L129.268 141.746C129.295 141.915 129.268 142.125 129.355 142.238C129.621 142.56 129.381 142.869 129.268 143.075C129.119 143.351 129.215 143.531 129.305 143.727C129.425 143.989 129.481 144.186 129.288 144.475C129.172 144.648 129.282 144.97 129.292 145.292C129.076 145.442 129.066 145.678 129.338 145.954C129.391 146.007 129.401 146.163 129.365 146.243C129.239 146.519 129.415 147.167 129.724 147.387C129.292 147.832 129.794 148.208 129.82 148.633C129.83 148.822 129.996 149.005 129.717 149.198C129.498 149.351 129.747 150.002 130.03 150.169C130.083 150.199 130.133 150.268 130.149 150.328C130.246 150.671 130.395 151.016 130.395 151.359C130.395 151.578 130.163 151.794 129.99 152.09C130.086 152.379 129.704 153.06 130.601 153.087C130.535 153.157 130.512 153.18 130.488 153.203C130.468 153.223 130.448 153.24 130.405 153.277L130.731 153.562L130.405 154.127C130.405 154.127 130.465 154.157 130.532 154.194C130.369 154.48 130.558 154.925 130.914 155.115C130.944 155.5 130.322 155.806 130.761 156.228C130.631 156.438 130.498 156.65 130.369 156.866C130.003 157.465 129.561 157.937 128.777 157.91C128.258 157.893 127.736 157.91 127.214 157.91C126.423 157.91 125.825 157.511 125.526 156.773C125.13 155.796 124.961 154.779 124.987 153.729C125.027 152.103 125.09 150.478 125.133 148.852C125.167 147.553 125.19 146.256 125.217 144.957C125.237 143.993 125.273 143.029 125.28 142.068C125.313 138.236 125.34 134.4 125.366 130.567C125.366 130.365 125.366 130.162 125.366 129.8C124.515 130.398 123.741 130.9 123.013 131.458C121.178 132.871 119.34 134.28 117.548 135.739C114.74 138.026 111.954 140.346 109.185 142.68C108.484 143.272 107.876 143.976 107.208 144.611C106.277 145.499 105.326 146.359 104.399 147.25C104.09 147.546 103.837 147.898 103.538 148.208C102.601 149.171 101.643 150.119 100.713 151.093C100.241 151.585 99.8218 152.13 99.3664 152.638C99.0872 152.951 98.7914 153.247 98.4889 153.539C97.864 154.141 97.2889 154.819 96.5843 155.304C95.7732 155.863 94.8592 155.65 93.9816 155.304C92.8482 154.859 92.3031 152.844 93.1507 151.807C94.1445 150.594 95.1982 149.454 96.3483 148.397C97.8374 147.028 99.2767 145.605 100.792 144.265C102.424 142.826 104.12 141.457 105.792 140.061C107.447 138.675 109.099 137.285 110.764 135.909C112.589 134.4 114.474 132.967 116.402 131.588C118.705 129.939 120.952 128.207 123.229 126.519C123.847 126.06 124.469 125.598 125.124 125.189C125.492 124.957 125.383 124.604 125.409 124.325C125.459 123.79 125.396 123.245 125.369 122.703C125.353 122.371 125.223 122.317 124.944 122.507C124.542 122.78 124.17 123.119 123.731 123.301C123.129 123.554 122.554 123.886 121.856 123.906C121.304 123.923 120.759 124.119 120.204 124.169C118.678 124.302 117.006 123.438 116.794 121.533C116.661 120.353 116.707 119.153 116.667 117.963C116.651 117.488 116.541 117.009 116.594 116.544C116.887 113.991 116.877 111.368 118.044 108.995C118.762 107.533 119.609 106.137 120.999 105.173C121.66 104.714 122.331 104.292 123.142 104.156C123.295 104.129 123.445 104.082 123.598 104.076C124.442 104.043 124.731 104.438 124.625 105.279C124.545 105.894 124.356 106.436 124.007 106.934C123.93 107.047 123.837 107.15 123.741 107.247C122.983 107.995 122.448 108.876 122.125 109.893C121.959 110.421 121.71 110.923 121.547 111.452C121.397 111.94 121.318 112.449 121.208 112.947C121.201 112.974 121.201 113.007 121.208 113.03C121.554 114.061 120.985 115.048 121.075 116.075C121.128 116.703 121.012 117.345 121.058 117.973C121.088 118.349 121.238 118.741 121.421 119.077C121.71 119.612 122.358 119.738 123.113 119.462C124.485 118.964 125.187 117.933 125.363 116.524C125.586 114.729 125.795 112.931 125.978 111.132C126.161 109.344 126.304 107.549 126.463 105.758C126.523 105.086 126.603 104.418 126.626 103.747C126.672 102.43 128.182 101.643 129.139 101.689C129.737 101.719 130.309 101.789 130.638 102.354C130.774 102.59 130.867 102.882 130.884 103.155C130.917 103.65 130.881 104.149 130.867 104.647C130.854 105.093 130.851 105.542 130.814 105.984C130.724 106.997 130.601 108.008 130.512 109.022C130.339 111.019 130.159 113.017 130.02 115.018C129.96 115.889 130.006 116.77 129.986 117.644C129.976 118.086 129.917 118.528 129.897 118.97C129.857 119.874 129.83 120.779 129.8 121.679C129.797 121.786 129.82 121.892 129.837 122.045L129.83 122.035Z" fill="#ED1736"/>
<path d="M151.951 124.322C156.212 124.322 160.477 124.319 164.738 124.322C168.454 124.325 171.442 126.788 172.164 130.428C172.988 134.583 169.93 138.748 165.722 139.183C165.303 139.226 164.881 139.25 164.459 139.25C156.006 139.253 147.55 139.256 139.097 139.25C135.527 139.25 132.553 136.87 131.748 133.396C130.698 128.856 134.158 124.418 138.825 124.319C138.881 124.319 138.938 124.319 138.994 124.319C143.312 124.319 147.63 124.319 151.951 124.319V124.322ZM138.213 130.355C138.11 129.973 137.951 129.663 137.522 129.747C137.093 129.826 137.073 130.182 137.08 130.538C137.09 131.056 137.08 131.578 137.08 132.097C137.08 132.702 137.08 133.307 137.08 133.908C137.08 134.237 137.236 134.45 137.572 134.477C137.931 134.503 138.12 134.3 138.167 133.961C138.187 133.822 138.177 133.682 138.177 133.539C138.183 132.894 138.163 132.246 138.197 131.601C138.226 131.04 138.635 130.674 139.154 130.677C139.666 130.681 140.005 131.026 140.045 131.601C140.065 131.91 140.058 132.22 140.061 132.529C140.061 132.994 140.051 133.456 140.071 133.921C140.085 134.26 140.261 134.487 140.626 134.477C140.989 134.47 141.152 134.251 141.158 133.905C141.162 133.639 141.152 133.37 141.162 133.104C141.181 132.529 141.148 131.947 141.248 131.385C141.358 130.757 142.115 130.481 142.644 130.817C142.993 131.04 143.063 131.402 143.069 131.774C143.079 132.476 143.073 133.18 143.076 133.882C143.076 134.227 143.229 134.453 143.591 134.477C143.957 134.5 144.16 134.28 144.163 133.945C144.176 133.031 144.183 132.117 144.143 131.206C144.113 130.564 143.837 130.026 143.182 129.8C142.498 129.567 141.853 129.66 141.284 130.139C141.171 130.232 141.065 130.335 140.955 130.435C140.148 129.457 139.2 129.424 138.213 130.352V130.355ZM152.556 133.875C153.633 134.746 154.707 134.762 155.541 133.948C156.395 133.117 156.495 131.505 155.757 130.531C155.438 130.112 155.026 129.833 154.507 129.73C153.753 129.584 153.101 129.793 152.549 130.381C152.506 129.727 152.519 129.112 152.499 128.497C152.489 128.151 152.27 127.942 151.921 127.965C151.595 127.985 151.426 128.198 151.422 128.53C151.422 128.739 151.422 128.952 151.422 129.162C151.422 130.734 151.422 132.309 151.422 133.882C151.422 134.184 151.542 134.41 151.855 134.467C152.177 134.523 152.396 134.38 152.489 134.058C152.503 134.005 152.526 133.955 152.559 133.872L152.556 133.875ZM147.783 134.553C149.185 134.553 150.272 133.493 150.276 132.123C150.276 130.74 149.209 129.687 147.799 129.687C146.403 129.687 145.306 130.75 145.296 132.117C145.287 133.476 146.387 134.553 147.783 134.553ZM163.425 132.515C163.548 132.515 163.645 132.515 163.741 132.515C164.542 132.515 165.343 132.522 166.144 132.515C166.563 132.512 166.766 132.316 166.779 131.944C166.812 131.03 166.161 130.092 165.287 129.803C164.289 129.471 163.226 129.846 162.667 130.724C162.059 131.674 162.165 133.031 162.903 133.822C163.741 134.716 165.323 134.812 166.247 134.024C166.48 133.825 166.59 133.589 166.387 133.33C166.194 133.08 165.948 133.144 165.712 133.297C165.572 133.39 165.43 133.483 165.273 133.543C164.289 133.905 163.435 133.313 163.422 132.515H163.425ZM161.092 131.252C161.092 130.381 161.095 129.511 161.092 128.64C161.092 128.208 160.899 127.972 160.57 127.962C160.238 127.948 160.015 128.191 160.012 128.606C160.005 130.348 160.005 132.09 160.012 133.832C160.012 134.27 160.211 134.483 160.557 134.48C160.902 134.48 161.088 134.26 161.092 133.822C161.098 132.964 161.092 132.107 161.092 131.252ZM158.542 132.146C158.542 131.571 158.546 130.993 158.542 130.418C158.539 129.979 158.323 129.72 157.977 129.73C157.655 129.74 157.445 129.989 157.445 130.411C157.439 131.551 157.439 132.688 157.445 133.828C157.445 134.257 157.652 134.483 157.994 134.487C158.34 134.487 158.539 134.26 158.542 133.835C158.549 133.273 158.542 132.712 158.542 132.146V132.146ZM158.572 128.55C158.572 128.224 158.31 127.955 157.991 127.958C157.671 127.962 157.409 128.234 157.422 128.563C157.439 128.916 157.652 129.098 157.981 129.132C158.293 129.162 158.569 128.872 158.572 128.55Z" fill="#393536"/>
<path d="M105.323 126.496C105.379 125.662 105.456 124.831 105.486 123.996C105.512 123.282 105.456 122.564 105.489 121.849C105.516 121.287 105.619 120.729 105.685 120.17C105.748 119.642 105.835 119.117 105.868 118.588C105.941 117.342 105.961 116.092 106.057 114.849C106.107 114.197 106.214 113.536 106.397 112.908C106.785 111.575 107.829 110.923 109.092 110.641C109.937 110.451 110.794 110.345 111.592 109.986C112.104 109.757 112.609 109.507 113.118 109.275C114.028 108.859 114.627 109.138 115.049 110.022C115.657 111.299 114.972 112.289 114.052 112.947C113.011 113.689 111.984 114.463 111.369 115.627C111.166 116.009 111.043 116.434 110.93 116.856C110.834 117.212 110.817 117.588 110.751 117.95C110.664 118.419 110.505 118.884 110.482 119.353C110.402 120.885 110.425 122.427 110.305 123.956C110.202 125.249 110.249 126.629 109.109 127.593C108.414 128.181 107.643 128.633 106.722 128.729C106.041 128.799 105.446 128.148 105.383 127.3C105.363 127.034 105.383 126.765 105.383 126.499H105.333L105.323 126.496Z" fill="#ED1736"/>
<path d="M102.165 116.371C101.833 116.514 101.946 116.81 102.055 117.059C102.268 117.538 102.208 117.987 102.072 118.478C101.942 118.941 101.952 119.439 101.883 119.918C101.843 120.19 101.74 120.456 101.71 120.732C101.663 121.201 101.66 121.673 101.623 122.145C101.597 122.504 101.554 122.863 101.5 123.218C101.407 123.85 101.298 124.481 101.208 125.113C101.111 125.791 101.025 126.473 100.952 127.154C100.912 127.523 100.872 127.898 100.892 128.267C100.952 129.298 100.816 130.295 100.53 131.279C100.503 131.365 100.643 131.492 100.679 131.608C100.709 131.701 100.736 131.867 100.696 131.894C99.8982 132.432 99.1005 132.974 98.2795 133.476C97.5615 133.915 96.325 133.675 96.3483 132.376C96.3715 130.957 96.4314 129.541 96.4845 128.125C96.5178 127.224 96.5444 126.32 96.6075 125.422C96.6707 124.508 96.7804 123.597 96.8502 122.683C96.9399 121.513 96.9831 120.337 97.0995 119.17C97.2224 117.923 97.5814 116.747 98.4822 115.816C99.034 115.244 99.6921 114.819 100.47 114.603C101.334 114.36 101.986 114.816 102.059 115.71C102.075 115.919 102.129 116.125 102.175 116.374L102.165 116.371Z" fill="#ED1736"/>
<path d="M139.021 108.085L138.708 108.045C138.669 108.284 138.609 108.517 138.592 108.756C138.532 109.61 138.479 110.465 138.443 111.319C138.433 111.581 138.502 111.847 138.496 112.11C138.476 113.11 137.838 113.722 137.083 114.227C136.654 114.513 136.196 114.776 135.717 114.962C134.603 115.391 133.849 114.872 133.899 113.695C133.949 112.519 134.072 111.345 134.181 110.172C134.301 108.876 134.431 107.579 134.567 106.286C134.726 104.797 134.916 103.312 135.059 101.819C135.135 101.031 135.242 100.267 135.577 99.5389C135.953 98.7245 137.007 97.5744 138.286 97.6608C138.801 97.6941 138.994 97.8403 139.041 98.3489C139.047 98.4287 139.051 98.5184 139.094 98.5816C139.34 98.9572 139.37 99.3261 139.244 99.7749C139.114 100.237 139.137 100.742 139.081 101.224C139.011 101.822 138.888 102.421 138.861 103.019C138.825 103.873 138.851 104.731 138.861 105.588C138.861 105.795 138.934 105.997 138.934 106.203C138.934 106.38 138.924 106.579 138.845 106.725C138.589 107.191 138.542 107.623 139.021 108.085V108.085Z" fill="#ED1736"/>
<path d="M103.116 103.923C103.521 103.933 103.801 104.039 103.92 104.438C104.053 104.884 104.382 105.293 104.183 105.798C104.04 106.153 103.927 106.536 103.717 106.851C103.113 107.756 102.178 108.277 101.274 108.816C100.816 109.088 100.317 108.956 99.9448 108.676C99.5725 108.397 99.393 107.932 99.4961 107.44C99.6756 106.596 99.9814 105.811 100.683 105.243C101.324 104.721 101.926 104.139 102.783 103.986C102.906 103.963 103.033 103.943 103.116 103.93V103.923Z" fill="#ED1736"/>
<path d="M138.273 93.4095C136.97 93.4128 136.365 92.5087 136.751 91.352C137.186 90.0523 138.13 89.2911 139.423 88.9953C139.875 88.8923 140.39 89.0086 140.866 89.0817C141.125 89.1216 141.424 90.0556 141.314 90.3382C140.862 91.5016 140.151 92.4555 139.061 93.0904C138.818 93.23 138.536 93.2998 138.27 93.4028L138.273 93.4095Z" fill="#ED1736"/>
<path d="M153.849 130.651C154.61 130.661 155.165 131.306 155.145 132.16C155.125 132.997 154.564 133.612 153.819 133.602C153.068 133.592 152.48 132.931 152.486 132.103C152.496 131.266 153.081 130.641 153.849 130.651Z" fill="#393536"/>
<path d="M149.176 132.113C149.179 132.977 148.597 133.602 147.789 133.592C147.002 133.582 146.39 132.924 146.397 132.093C146.403 131.252 146.975 130.654 147.776 130.651C148.594 130.651 149.176 131.256 149.179 132.113H149.176Z" fill="#393536"/>
<path d="M163.422 131.744C163.488 131.03 163.944 130.581 164.579 130.587C165.194 130.594 165.612 131.03 165.679 131.744H163.422Z" fill="#393536"/>
</g>
<defs>
<clipPath id="clip0_61_983">
<rect width="101.373" height="86" fill="white" transform="translate(71 72)"/>
</clipPath>
</defs>
</svg>
