<svg width="243" height="230" viewBox="0 0 243 230" fill="none" xmlns="http://www.w3.org/2000/svg">
<path d="M243 0H0V230H243V0Z" fill="white"/>
<path d="M74.5749 148.173C70.8906 148.173 67.8596 150.902 67.8596 155.44C67.8596 159.694 69.9144 162.362 74.1065 162.362C77.8316 162.362 80.8258 159.613 80.8258 155.074C80.8258 150.373 78.2383 148.173 74.5749 148.173V148.173ZM111.434 148.173C108.136 148.173 106.207 149.861 106.207 152.304C106.207 156.783 112.006 155.624 112.006 158.249C112.006 159.512 110.928 160.06 109.584 160.06C108.587 160.06 107.489 159.837 106.715 159.571L106.552 162.032C107.407 162.255 108.381 162.36 109.359 162.36C112.737 162.36 114.796 160.466 114.796 157.881C114.796 153.627 108.973 154.501 108.973 152.038C108.973 151.062 109.789 150.372 111.315 150.372C112.149 150.372 113.002 150.512 113.775 150.736L113.919 148.419C113.099 148.268 112.268 148.186 111.434 148.173V148.173ZM157.943 148.194C153.18 148.194 150.247 151.269 150.247 155.583C150.247 159.777 152.832 162.339 157.188 162.339C158.838 162.339 160.528 162.035 161.892 161.486V154.93H159.244V159.714C158.677 159.883 158.086 159.964 157.494 159.957C154.706 159.957 153.117 158.247 153.117 155.337C153.117 152.264 155.073 150.554 157.78 150.554C159.063 150.554 160.32 150.816 161.42 151.244L161.829 148.784C160.648 148.438 159.309 148.194 157.945 148.194H157.943ZM54 148.394L58.7839 162.135H61.8148L66.6184 148.394H63.9129L61.2047 156.273C60.798 157.432 60.5749 158.206 60.3715 159.143H60.3269C60.0961 158.229 59.8246 157.326 59.5134 156.436L56.8499 148.394H54ZM84.0601 148.394V162.135H91.1651V159.812H86.7079V148.396L84.0601 148.394ZM94.0149 148.394V162.135H96.6575V155.539L101.095 162.135H104.556L99.3053 155.031L104.333 148.394H101.116L96.6588 154.627V148.393L94.0149 148.394ZM116.872 148.394L120.371 162.135H123.423L125.416 154.505C125.661 153.589 125.845 152.67 125.947 151.714H125.967C126.111 152.691 126.271 153.689 126.496 154.564L128.491 162.136H131.726L135.226 148.394H132.584L130.71 156.07C130.507 156.884 130.324 157.757 130.183 158.714H130.159C130.036 157.807 129.852 156.909 129.611 156.027L127.492 148.394H124.705L122.609 156.07C122.365 156.947 122.201 157.881 122.058 158.797H122.039C121.917 157.84 121.755 156.882 121.531 155.987L119.656 148.394H116.872ZM140.683 148.394L135.881 162.135H138.545L139.501 159.325H144.733L145.689 162.135H148.582L143.676 148.394H140.683ZM166.267 148.394V162.135H173.736V159.878H168.914V156.149H173.494V153.993H168.914V150.613H173.736V148.396L166.267 148.394ZM177.625 148.394V162.135H180.189V157.23C180.189 155.582 180.147 153.262 180.066 152.083C180.473 152.977 181.104 154.057 181.693 155.094L185.766 162.135H189V148.394H186.436V152.669C186.436 154.359 186.477 156.965 186.58 158.349C186.07 157.31 185.38 156.088 184.77 155.031L180.899 148.394H177.625ZM74.3335 150.555C76.694 150.555 77.9969 152.226 77.9969 155.279C77.9969 158.576 76.0812 159.958 74.2889 159.958C71.8261 159.958 70.6898 158.066 70.6898 155.156C70.6898 152.062 72.4402 150.555 74.3335 150.555V150.555ZM142.064 151.428H142.108C142.292 152.202 142.495 152.874 142.759 153.627L144.041 157.231H140.177L141.416 153.731C141.7 152.937 141.904 152.142 142.066 151.428H142.064Z" fill="black"/>
<g clip-path="url(#clip0_57_839)">
<path d="M122.385 132.513C105.747 132.513 92.1151 118.815 92.1151 102.176C92.1151 98.434 92.7833 94.8925 94.0529 91.5515L111.761 127.167C111.961 127.635 112.295 128.036 112.83 128.036C113.364 128.036 113.698 127.635 113.899 127.167L122.051 108.925C122.118 108.725 122.252 108.524 122.452 108.524C122.652 108.524 122.719 108.725 122.853 108.925L131.005 127.167C131.206 127.635 131.54 128.036 132.074 128.036C132.609 128.036 132.943 127.635 133.143 127.167L150.851 91.5515C152.121 94.8925 152.789 98.434 152.789 102.176C152.655 118.815 139.024 132.513 122.385 132.513V132.513ZM122.385 95.2934C122.185 95.2934 122.118 95.093 121.984 94.8925L112.496 73.5097C115.569 72.3737 118.91 71.7723 122.385 71.7723C125.86 71.7723 129.201 72.3737 132.275 73.5097L122.786 94.8925C122.652 95.1598 122.586 95.2934 122.385 95.2934ZM112.696 117.278C112.496 117.278 112.429 117.077 112.295 116.877L96.9263 85.8716C99.6659 81.6619 103.341 78.1204 107.818 75.648L118.91 100.305C119.044 100.706 119.378 100.84 119.712 100.84H125.058C125.459 100.84 125.726 100.773 125.927 100.305L137.019 75.648C141.429 78.1204 145.171 81.6619 147.911 85.8716L132.408 116.877C132.342 117.077 132.208 117.278 132.007 117.278C131.807 117.278 131.74 117.077 131.607 116.877L125.793 103.646C125.593 103.178 125.325 103.112 124.924 103.112H119.579C119.178 103.112 118.91 103.178 118.71 103.646L113.097 116.877C113.03 117.077 112.897 117.278 112.696 117.278ZM122.385 135.587C140.895 135.587 155.796 120.686 155.796 102.176C155.796 83.6665 140.895 68.7654 122.385 68.7654C103.876 68.7654 88.9745 83.6665 88.9745 102.176C88.9745 120.686 103.876 135.587 122.385 135.587Z" fill="#002259"/>
</g>
<defs>
<clipPath id="clip0_57_839">
<rect width="68.7995" height="68.7995" fill="white" transform="translate(87.1257 67)"/>
</clipPath>
</defs>
</svg>
